<svg width="453" height="680" viewBox="0 0 453 680" fill="none" xmlns="http://www.w3.org/2000/svg">
<g opacity="0.3">
<path opacity="0.05" d="M57.7954 129.879L42.136 172.745H73.3985L57.7954 129.879ZM82.1294 196.798L76.8345 182.378H38.7L33.4051 196.798H23.2095L51.2049 119.909H64.4422L92.4376 196.798H82.1294ZM147.302 167.957C147.302 162.437 145.312 157.706 141.331 153.763C137.35 149.782 132.6 147.792 127.08 147.792C121.597 147.792 116.865 149.782 112.885 153.763C108.904 157.706 106.914 162.437 106.914 167.957C106.914 173.478 108.904 178.228 112.885 182.209C116.865 186.152 121.597 188.123 127.08 188.123C132.562 188.123 137.313 186.152 141.331 182.209C145.312 178.228 147.302 173.478 147.302 167.957ZM156.878 167.957C156.878 176.144 153.967 183.147 148.147 188.968C142.364 194.751 135.341 197.643 127.08 197.643C118.856 197.643 111.833 194.751 106.013 188.968C100.192 183.147 97.2819 176.144 97.2819 167.957C97.2819 159.921 100.08 152.936 105.675 147.003C111.308 141.107 118.123 138.16 126.122 138.16C134.534 138.16 141.594 141.37 147.302 147.792V119.909H156.878V167.957ZM218.952 167.957C218.952 162.437 216.962 157.706 212.981 153.763C209.001 149.782 204.25 147.792 198.73 147.792C193.247 147.792 188.516 149.782 184.535 153.763C180.555 157.706 178.564 162.437 178.564 167.957C178.564 173.478 180.555 178.228 184.535 182.209C188.516 186.152 193.247 188.123 198.73 188.123C204.213 188.123 208.963 186.152 212.981 182.209C216.962 178.228 218.952 173.478 218.952 167.957ZM228.528 167.957C228.528 176.144 225.618 183.147 219.797 188.968C214.014 194.751 206.991 197.643 198.73 197.643C190.506 197.643 183.484 194.751 177.663 188.968C171.842 183.147 168.932 176.144 168.932 167.957C168.932 159.771 171.842 152.767 177.663 146.947C183.521 141.089 190.543 138.16 198.73 138.16C206.954 138.16 213.976 141.089 219.797 146.947C225.618 152.767 228.528 159.771 228.528 167.957ZM268.037 197.951C262.576 197.951 257.693 196.836 253.386 194.606C249.156 192.376 245.811 188.915 243.35 184.223C240.965 179.532 239.773 173.533 239.773 166.227C239.773 158.613 241.042 152.422 243.58 147.654C246.118 142.886 249.541 139.386 253.847 137.156C258.231 134.926 263.192 133.81 268.729 133.81C271.882 133.81 274.92 134.157 277.843 134.849C280.765 135.464 283.149 136.233 284.995 137.156L281.88 145.577C280.034 144.885 277.881 144.231 275.42 143.616C272.959 143.001 270.652 142.693 268.498 142.693C264.345 142.693 260.923 143.578 258.231 145.347C255.539 147.115 253.54 149.73 252.232 153.191C250.925 156.652 250.271 160.959 250.271 166.112C250.271 171.034 250.925 175.225 252.232 178.686C253.54 182.147 255.501 184.762 258.116 186.531C260.731 188.299 263.999 189.184 267.921 189.184C271.305 189.184 274.266 188.838 276.804 188.146C279.419 187.453 281.803 186.607 283.957 185.608V194.606C281.88 195.683 279.573 196.49 277.035 197.028C274.574 197.644 271.575 197.951 268.037 197.951ZM277.496 212.833C277.496 215.294 276.843 217.37 275.535 219.062C274.305 220.831 272.421 222.177 269.883 223.1C267.345 224.023 264.191 224.484 260.423 224.484C259.269 224.484 258.154 224.408 257.078 224.254C256.078 224.177 255.27 224.061 254.655 223.908V217.563C255.347 217.717 256.27 217.832 257.424 217.909C258.577 218.063 259.692 218.14 260.769 218.14C263.538 218.14 265.653 217.755 267.114 216.986C268.575 216.294 269.306 214.986 269.306 213.064C269.306 211.064 268.268 209.603 266.191 208.68C264.191 207.757 261.73 207.103 258.808 206.719L263.768 196.798H270.459L267.46 202.912C269.306 203.296 270.998 203.873 272.536 204.642C274.074 205.488 275.266 206.565 276.112 207.872C277.035 209.18 277.496 210.833 277.496 212.833ZM343.664 167.957C343.664 162.437 341.674 157.706 337.693 153.763C333.712 149.782 328.962 147.792 323.442 147.792C317.959 147.792 313.228 149.782 309.247 153.763C305.266 157.706 303.276 162.437 303.276 167.957C303.276 173.478 305.266 178.228 309.247 182.209C313.228 186.152 317.959 188.123 323.442 188.123C328.924 188.123 333.675 186.152 337.693 182.209C341.674 178.228 343.664 173.478 343.664 167.957ZM343.664 196.798V188.123C337.993 194.469 330.934 197.643 322.484 197.643C314.486 197.643 307.67 194.714 302.037 188.855C296.442 182.96 293.644 175.994 293.644 167.957C293.644 159.771 296.554 152.767 302.375 146.947C308.233 141.089 315.255 138.16 323.442 138.16C331.666 138.16 338.688 141.089 344.509 146.947C350.329 152.767 353.24 159.771 353.24 167.957V196.798H343.664ZM334.482 128.584C334.482 128.771 334.294 129.222 333.919 129.936C332.454 132.752 330.821 134.16 329.018 134.16C327.854 134.16 325.939 133.278 323.273 131.513C320.607 129.748 318.541 128.865 317.077 128.865C315.049 128.865 313.171 130.067 311.444 132.47V128.584C311.444 128.396 311.632 127.945 312.007 127.232C313.472 124.415 315.143 123.007 317.02 123.007C318.184 123.007 320.081 123.89 322.71 125.655C325.338 127.419 327.385 128.302 328.849 128.302C330.802 128.302 332.68 127.119 334.482 124.753V128.584ZM415.314 167.957C415.314 162.437 413.324 157.706 409.343 153.763C405.363 149.782 400.612 147.792 395.092 147.792C389.609 147.792 384.878 149.782 380.897 153.763C376.917 157.706 374.926 162.437 374.926 167.957C374.926 173.478 376.917 178.228 380.897 182.209C384.878 186.152 389.609 188.123 395.092 188.123C400.575 188.123 405.325 186.152 409.343 182.209C413.324 178.228 415.314 173.478 415.314 167.957ZM424.89 167.957C424.89 176.144 421.98 183.147 416.159 188.968C410.376 194.751 403.354 197.643 395.092 197.643C386.868 197.643 379.846 194.751 374.025 188.968C368.204 183.147 365.294 176.144 365.294 167.957C365.294 159.771 368.204 152.767 374.025 146.947C379.883 141.089 386.906 138.16 395.092 138.16C403.316 138.16 410.338 141.089 416.159 146.947C421.98 152.767 424.89 159.771 424.89 167.957Z" fill="white"/>
<path opacity="0.3" d="M57.7954 350.347L42.136 393.213H73.3985L57.7954 350.347ZM82.1294 417.266L76.8345 402.846H38.7L33.4051 417.266H23.2095L51.2049 340.377H64.4422L92.4376 417.266H82.1294ZM147.302 388.426C147.302 382.905 145.312 378.174 141.331 374.231C137.35 370.25 132.6 368.26 127.08 368.26C121.597 368.26 116.865 370.25 112.885 374.231C108.904 378.174 106.914 382.905 106.914 388.426C106.914 393.946 108.904 398.696 112.885 402.677C116.865 406.62 121.597 408.591 127.08 408.591C132.562 408.591 137.313 406.62 141.331 402.677C145.312 398.696 147.302 393.946 147.302 388.426ZM156.878 388.426C156.878 396.612 153.967 403.616 148.147 409.436C142.364 415.219 135.341 418.111 127.08 418.111C118.856 418.111 111.833 415.219 106.013 409.436C100.192 403.616 97.2819 396.612 97.2819 388.426C97.2819 380.389 100.08 373.405 105.675 367.471C111.308 361.576 118.123 358.628 126.122 358.628C134.534 358.628 141.594 361.838 147.302 368.26V340.377H156.878V388.426ZM218.952 388.426C218.952 382.905 216.962 378.174 212.981 374.231C209.001 370.25 204.25 368.26 198.73 368.26C193.247 368.26 188.516 370.25 184.535 374.231C180.555 378.174 178.564 382.905 178.564 388.426C178.564 393.946 180.555 398.696 184.535 402.677C188.516 406.62 193.247 408.591 198.73 408.591C204.213 408.591 208.963 406.62 212.981 402.677C216.962 398.696 218.952 393.946 218.952 388.426ZM228.528 388.426C228.528 396.612 225.618 403.616 219.797 409.436C214.014 415.219 206.991 418.111 198.73 418.111C190.506 418.111 183.484 415.219 177.663 409.436C171.842 403.616 168.932 396.612 168.932 388.426C168.932 380.239 171.842 373.236 177.663 367.415C183.521 361.557 190.543 358.628 198.73 358.628C206.954 358.628 213.976 361.557 219.797 367.415C225.618 373.236 228.528 380.239 228.528 388.426ZM268.037 418.419C262.576 418.419 257.693 417.304 253.386 415.074C249.156 412.844 245.811 409.383 243.35 404.691C240.965 400 239.773 394.001 239.773 386.695C239.773 379.081 241.042 372.89 243.58 368.122C246.118 363.354 249.541 359.854 253.847 357.624C258.231 355.394 263.192 354.279 268.729 354.279C271.882 354.279 274.92 354.625 277.843 355.317C280.765 355.932 283.149 356.701 284.995 357.624L281.88 366.045C280.034 365.353 277.881 364.7 275.42 364.084C272.959 363.469 270.652 363.161 268.498 363.161C264.345 363.161 260.923 364.046 258.231 365.815C255.539 367.584 253.54 370.198 252.232 373.659C250.925 377.12 250.271 381.427 250.271 386.58C250.271 391.502 250.925 395.693 252.232 399.154C253.54 402.615 255.501 405.23 258.116 406.999C260.731 408.768 263.999 409.652 267.921 409.652C271.305 409.652 274.266 409.306 276.804 408.614C279.419 407.922 281.803 407.076 283.957 406.076V415.074C281.88 416.151 279.573 416.958 277.035 417.497C274.574 418.112 271.575 418.419 268.037 418.419ZM277.496 433.301C277.496 435.762 276.843 437.839 275.535 439.531C274.305 441.299 272.421 442.645 269.883 443.568C267.345 444.491 264.191 444.953 260.423 444.953C259.269 444.953 258.154 444.876 257.078 444.722C256.078 444.645 255.27 444.53 254.655 444.376V438.031C255.347 438.185 256.27 438.3 257.424 438.377C258.577 438.531 259.692 438.608 260.769 438.608C263.538 438.608 265.653 438.223 267.114 437.454C268.575 436.762 269.306 435.454 269.306 433.532C269.306 431.532 268.268 430.071 266.191 429.148C264.191 428.225 261.73 427.571 258.808 427.187L263.768 417.266H270.459L267.46 423.38C269.306 423.765 270.998 424.341 272.536 425.11C274.074 425.956 275.266 427.033 276.112 428.341C277.035 429.648 277.496 431.301 277.496 433.301ZM343.664 388.426C343.664 382.905 341.674 378.174 337.693 374.231C333.712 370.25 328.962 368.26 323.442 368.26C317.959 368.26 313.228 370.25 309.247 374.231C305.266 378.174 303.276 382.905 303.276 388.426C303.276 393.946 305.266 398.696 309.247 402.677C313.228 406.62 317.959 408.591 323.442 408.591C328.924 408.591 333.675 406.62 337.693 402.677C341.674 398.696 343.664 393.946 343.664 388.426ZM343.664 417.266V408.591C337.993 414.938 330.934 418.111 322.484 418.111C314.486 418.111 307.67 415.182 302.037 409.324C296.442 403.428 293.644 396.462 293.644 388.426C293.644 380.239 296.554 373.236 302.375 367.415C308.233 361.557 315.255 358.628 323.442 358.628C331.666 358.628 338.688 361.557 344.509 367.415C350.329 373.236 353.24 380.239 353.24 388.426V417.266H343.664ZM334.482 349.052C334.482 349.24 334.294 349.69 333.919 350.404C332.454 353.22 330.821 354.628 329.018 354.628C327.854 354.628 325.939 353.746 323.273 351.981C320.607 350.216 318.541 349.333 317.077 349.333C315.049 349.333 313.171 350.535 311.444 352.938V349.052C311.444 348.864 311.632 348.413 312.007 347.7C313.472 344.883 315.143 343.475 317.02 343.475C318.184 343.475 320.081 344.358 322.71 346.123C325.338 347.888 327.385 348.77 328.849 348.77C330.802 348.77 332.68 347.587 334.482 345.221V349.052ZM415.314 388.426C415.314 382.905 413.324 378.174 409.343 374.231C405.363 370.25 400.612 368.26 395.092 368.26C389.609 368.26 384.878 370.25 380.897 374.231C376.917 378.174 374.926 382.905 374.926 388.426C374.926 393.946 376.917 398.696 380.897 402.677C384.878 406.62 389.609 408.591 395.092 408.591C400.575 408.591 405.325 406.62 409.343 402.677C413.324 398.696 415.314 393.946 415.314 388.426ZM424.89 388.426C424.89 396.612 421.98 403.616 416.159 409.436C410.376 415.219 403.354 418.111 395.092 418.111C386.868 418.111 379.846 415.219 374.025 409.436C368.204 403.616 365.294 396.612 365.294 388.426C365.294 380.239 368.204 373.236 374.025 367.415C379.883 361.557 386.906 358.628 395.092 358.628C403.316 358.628 410.338 361.557 416.159 367.415C421.98 373.236 424.89 380.239 424.89 388.426Z" fill="white"/>
<path opacity="0.1" d="M57.7954 242.677L42.136 285.543H73.3985L57.7954 242.677ZM82.1294 309.595L76.8345 295.175H38.7L33.4051 309.595H23.2095L51.2049 232.707H64.4422L92.4376 309.595H82.1294ZM147.302 280.755C147.302 275.235 145.312 270.503 141.331 266.56C137.35 262.58 132.6 260.589 127.08 260.589C121.597 260.589 116.865 262.58 112.885 266.56C108.904 270.503 106.914 275.235 106.914 280.755C106.914 286.275 108.904 291.026 112.885 295.006C116.865 298.949 121.597 300.921 127.08 300.921C132.562 300.921 137.313 298.949 141.331 295.006C145.312 291.026 147.302 286.275 147.302 280.755ZM156.878 280.755C156.878 288.941 153.967 295.945 148.147 301.766C142.364 307.549 135.341 310.44 127.08 310.44C118.856 310.44 111.833 307.549 106.013 301.766C100.192 295.945 97.2819 288.941 97.2819 280.755C97.2819 272.719 100.08 265.734 105.675 259.801C111.308 253.905 118.123 250.957 126.122 250.957C134.534 250.957 141.594 254.168 147.302 260.589V232.707H156.878V280.755ZM218.952 280.755C218.952 275.235 216.962 270.503 212.981 266.56C209.001 262.58 204.25 260.589 198.73 260.589C193.247 260.589 188.516 262.58 184.535 266.56C180.555 270.503 178.564 275.235 178.564 280.755C178.564 286.275 180.555 291.026 184.535 295.006C188.516 298.949 193.247 300.921 198.73 300.921C204.213 300.921 208.963 298.949 212.981 295.006C216.962 291.026 218.952 286.275 218.952 280.755ZM228.528 280.755C228.528 288.941 225.618 295.945 219.797 301.766C214.014 307.549 206.991 310.44 198.73 310.44C190.506 310.44 183.484 307.549 177.663 301.766C171.842 295.945 168.932 288.941 168.932 280.755C168.932 272.569 171.842 265.565 177.663 259.744C183.521 253.886 190.543 250.957 198.73 250.957C206.954 250.957 213.976 253.886 219.797 259.744C225.618 265.565 228.528 272.569 228.528 280.755ZM268.037 310.749C262.576 310.749 257.693 309.634 253.386 307.403C249.156 305.173 245.811 301.712 243.35 297.021C240.965 292.33 239.773 286.331 239.773 279.025C239.773 271.411 241.042 265.22 243.58 260.451C246.118 255.683 249.541 252.184 253.847 249.954C258.231 247.723 263.192 246.608 268.729 246.608C271.882 246.608 274.92 246.954 277.843 247.646C280.765 248.262 283.149 249.031 284.995 249.954L281.88 258.375C280.034 257.683 277.881 257.029 275.42 256.414C272.959 255.799 270.652 255.491 268.498 255.491C264.345 255.491 260.923 256.375 258.231 258.144C255.539 259.913 253.54 262.528 252.232 265.989C250.925 269.45 250.271 273.756 250.271 278.909C250.271 283.831 250.925 288.023 252.232 291.484C253.54 294.944 255.501 297.559 258.116 299.328C260.731 301.097 263.999 301.981 267.921 301.981C271.305 301.981 274.266 301.635 276.804 300.943C279.419 300.251 281.803 299.405 283.957 298.405V307.403C281.88 308.48 279.573 309.288 277.035 309.826C274.574 310.441 271.575 310.749 268.037 310.749ZM277.496 325.631C277.496 328.092 276.843 330.168 275.535 331.86C274.305 333.629 272.421 334.975 269.883 335.898C267.345 336.821 264.191 337.282 260.423 337.282C259.269 337.282 258.154 337.205 257.078 337.051C256.078 336.974 255.27 336.859 254.655 336.705V330.36C255.347 330.514 256.27 330.63 257.424 330.706C258.577 330.86 259.692 330.937 260.769 330.937C263.538 330.937 265.653 330.553 267.114 329.784C268.575 329.091 269.306 327.784 269.306 325.861C269.306 323.862 268.268 322.4 266.191 321.478C264.191 320.555 261.73 319.901 258.808 319.516L263.768 309.595H270.459L267.46 315.709C269.306 316.094 270.998 316.671 272.536 317.44C274.074 318.286 275.266 319.363 276.112 320.67C277.035 321.977 277.496 323.631 277.496 325.631ZM343.664 280.755C343.664 275.235 341.674 270.503 337.693 266.56C333.712 262.58 328.962 260.589 323.442 260.589C317.959 260.589 313.228 262.58 309.247 266.56C305.266 270.503 303.276 275.235 303.276 280.755C303.276 286.275 305.266 291.026 309.247 295.006C313.228 298.949 317.959 300.921 323.442 300.921C328.924 300.921 333.675 298.949 337.693 295.006C341.674 291.026 343.664 286.275 343.664 280.755ZM343.664 309.595V300.921C337.993 307.267 330.934 310.44 322.484 310.44C314.486 310.44 307.67 307.511 302.037 301.653C296.442 295.757 293.644 288.791 293.644 280.755C293.644 272.569 296.554 265.565 302.375 259.744C308.233 253.886 315.255 250.957 323.442 250.957C331.666 250.957 338.688 253.886 344.509 259.744C350.329 265.565 353.24 272.569 353.24 280.755V309.595H343.664ZM334.482 241.381C334.482 241.569 334.294 242.02 333.919 242.733C332.454 245.55 330.821 246.958 329.018 246.958C327.854 246.958 325.939 246.075 323.273 244.31C320.607 242.545 318.541 241.663 317.077 241.663C315.049 241.663 313.171 242.865 311.444 245.268V241.381C311.444 241.193 311.632 240.743 312.007 240.029C313.472 237.213 315.143 235.805 317.02 235.805C318.184 235.805 320.081 236.687 322.71 238.452C325.338 240.217 327.385 241.1 328.849 241.1C330.802 241.1 332.68 239.917 334.482 237.551V241.381ZM415.314 280.755C415.314 275.235 413.324 270.503 409.343 266.56C405.363 262.58 400.612 260.589 395.092 260.589C389.609 260.589 384.878 262.58 380.897 266.56C376.917 270.503 374.926 275.235 374.926 280.755C374.926 286.275 376.917 291.026 380.897 295.006C384.878 298.949 389.609 300.921 395.092 300.921C400.575 300.921 405.325 298.949 409.343 295.006C413.324 291.026 415.314 286.275 415.314 280.755ZM424.89 280.755C424.89 288.941 421.98 295.945 416.159 301.766C410.376 307.549 403.354 310.44 395.092 310.44C386.868 310.44 379.846 307.549 374.025 301.766C368.204 295.945 365.294 288.941 365.294 280.755C365.294 272.569 368.204 265.565 374.025 259.744C379.883 253.886 386.906 250.957 395.092 250.957C403.316 250.957 410.338 253.886 416.159 259.744C421.98 265.565 424.89 272.569 424.89 280.755Z" fill="white"/>
<path opacity="0.1" d="M57.7954 468.272L42.136 511.138H73.3985L57.7954 468.272ZM82.1294 535.191L76.8345 520.771H38.7L33.4051 535.191H23.2095L51.2049 458.302H64.4422L92.4376 535.191H82.1294ZM147.302 506.35C147.302 500.83 145.312 496.099 141.331 492.156C137.35 488.175 132.6 486.185 127.08 486.185C121.597 486.185 116.865 488.175 112.885 492.156C108.904 496.099 106.914 500.83 106.914 506.35C106.914 511.871 108.904 516.621 112.885 520.602C116.865 524.545 121.597 526.516 127.08 526.516C132.562 526.516 137.313 524.545 141.331 520.602C145.312 516.621 147.302 511.871 147.302 506.35ZM156.878 506.35C156.878 514.537 153.967 521.54 148.147 527.361C142.364 533.144 135.341 536.036 127.08 536.036C118.856 536.036 111.833 533.144 106.013 527.361C100.192 521.54 97.2819 514.537 97.2819 506.35C97.2819 498.314 100.08 491.329 105.675 485.396C111.308 479.5 118.123 476.553 126.122 476.553C134.534 476.553 141.594 479.763 147.302 486.185V458.302H156.878V506.35ZM218.952 506.35C218.952 500.83 216.962 496.099 212.981 492.156C209.001 488.175 204.25 486.185 198.73 486.185C193.247 486.185 188.516 488.175 184.535 492.156C180.555 496.099 178.564 500.83 178.564 506.35C178.564 511.871 180.555 516.621 184.535 520.602C188.516 524.545 193.247 526.516 198.73 526.516C204.213 526.516 208.963 524.545 212.981 520.602C216.962 516.621 218.952 511.871 218.952 506.35ZM228.528 506.35C228.528 514.537 225.618 521.54 219.797 527.361C214.014 533.144 206.991 536.036 198.73 536.036C190.506 536.036 183.484 533.144 177.663 527.361C171.842 521.54 168.932 514.537 168.932 506.35C168.932 498.164 171.842 491.16 177.663 485.34C183.521 479.482 190.543 476.553 198.73 476.553C206.954 476.553 213.976 479.482 219.797 485.34C225.618 491.16 228.528 498.164 228.528 506.35ZM268.037 536.344C262.576 536.344 257.693 535.229 253.386 532.999C249.156 530.769 245.811 527.308 243.35 522.616C240.965 517.925 239.773 511.926 239.773 504.62C239.773 497.006 241.042 490.815 243.58 486.047C246.118 481.279 249.541 477.779 253.847 475.549C258.231 473.319 263.192 472.204 268.729 472.204C271.882 472.204 274.92 472.55 277.843 473.242C280.765 473.857 283.149 474.626 284.995 475.549L281.88 483.97C280.034 483.278 277.881 482.625 275.42 482.009C272.959 481.394 270.652 481.086 268.498 481.086C264.345 481.086 260.923 481.971 258.231 483.74C255.539 485.509 253.54 488.123 252.232 491.584C250.925 495.045 250.271 499.352 250.271 504.505C250.271 509.427 250.925 513.618 252.232 517.079C253.54 520.54 255.501 523.155 258.116 524.924C260.731 526.693 263.999 527.577 267.921 527.577C271.305 527.577 274.266 527.231 276.804 526.539C279.419 525.847 281.803 525.001 283.957 524.001V532.999C281.88 534.076 279.573 534.883 277.035 535.422C274.574 536.037 271.575 536.344 268.037 536.344ZM277.496 551.226C277.496 553.687 276.843 555.764 275.535 557.456C274.305 559.224 272.421 560.57 269.883 561.493C267.345 562.416 264.191 562.878 260.423 562.878C259.269 562.878 258.154 562.801 257.078 562.647C256.078 562.57 255.27 562.455 254.655 562.301V555.956C255.347 556.11 256.27 556.225 257.424 556.302C258.577 556.456 259.692 556.533 260.769 556.533C263.538 556.533 265.653 556.148 267.114 555.379C268.575 554.687 269.306 553.379 269.306 551.457C269.306 549.457 268.268 547.996 266.191 547.073C264.191 546.15 261.73 545.496 258.808 545.112L263.768 535.191H270.459L267.46 541.305C269.306 541.689 270.998 542.266 272.536 543.035C274.074 543.881 275.266 544.958 276.112 546.265C277.035 547.573 277.496 549.226 277.496 551.226ZM343.664 506.35C343.664 500.83 341.674 496.099 337.693 492.156C333.712 488.175 328.962 486.185 323.442 486.185C317.959 486.185 313.228 488.175 309.247 492.156C305.266 496.099 303.276 500.83 303.276 506.35C303.276 511.871 305.266 516.621 309.247 520.602C313.228 524.545 317.959 526.516 323.442 526.516C328.924 526.516 333.675 524.545 337.693 520.602C341.674 516.621 343.664 511.871 343.664 506.35ZM343.664 535.191V526.516C337.993 532.863 330.934 536.036 322.484 536.036C314.486 536.036 307.67 533.107 302.037 527.248C296.442 521.353 293.644 514.387 293.644 506.35C293.644 498.164 296.554 491.16 302.375 485.34C308.233 479.482 315.255 476.553 323.442 476.553C331.666 476.553 338.688 479.482 344.509 485.34C350.329 491.16 353.24 498.164 353.24 506.35V535.191H343.664ZM334.482 466.977C334.482 467.164 334.294 467.615 333.919 468.329C332.454 471.145 330.821 472.553 329.018 472.553C327.854 472.553 325.939 471.671 323.273 469.906C320.607 468.141 318.541 467.258 317.077 467.258C315.049 467.258 313.171 468.46 311.444 470.863V466.977C311.444 466.789 311.632 466.338 312.007 465.625C313.472 462.808 315.143 461.4 317.02 461.4C318.184 461.4 320.081 462.283 322.71 464.048C325.338 465.813 327.385 466.695 328.849 466.695C330.802 466.695 332.68 465.512 334.482 463.146V466.977ZM415.314 506.35C415.314 500.83 413.324 496.099 409.343 492.156C405.363 488.175 400.612 486.185 395.092 486.185C389.609 486.185 384.878 488.175 380.897 492.156C376.917 496.099 374.926 500.83 374.926 506.35C374.926 511.871 376.917 516.621 380.897 520.602C384.878 524.545 389.609 526.516 395.092 526.516C400.575 526.516 405.325 524.545 409.343 520.602C413.324 516.621 415.314 511.871 415.314 506.35ZM424.89 506.35C424.89 514.537 421.98 521.54 416.159 527.361C410.376 533.144 403.354 536.036 395.092 536.036C386.868 536.036 379.846 533.144 374.025 527.361C368.204 521.54 365.294 514.537 365.294 506.35C365.294 498.164 368.204 491.16 374.025 485.34C379.883 479.482 386.906 476.553 395.092 476.553C403.316 476.553 410.338 479.482 416.159 485.34C421.98 491.16 424.89 498.164 424.89 506.35Z" fill="white"/>
<path opacity="0.05" d="M57.7954 581.07L42.136 623.936H73.3985L57.7954 581.07ZM82.1294 647.989L76.8345 633.568H38.7L33.4051 647.989H23.2095L51.2049 571.1H64.4422L92.4376 647.989H82.1294ZM147.302 619.148C147.302 613.628 145.312 608.896 141.331 604.953C137.35 600.973 132.6 598.983 127.08 598.983C121.597 598.983 116.865 600.973 112.885 604.953C108.904 608.896 106.914 613.628 106.914 619.148C106.914 624.668 108.904 629.419 112.885 633.399C116.865 637.342 121.597 639.314 127.08 639.314C132.562 639.314 137.313 637.342 141.331 633.399C145.312 629.419 147.302 624.668 147.302 619.148ZM156.878 619.148C156.878 627.335 153.967 634.338 148.147 640.159C142.364 645.942 135.341 648.833 127.08 648.833C118.856 648.833 111.833 645.942 106.013 640.159C100.192 634.338 97.2819 627.335 97.2819 619.148C97.2819 611.112 100.08 604.127 105.675 598.194C111.308 592.298 118.123 589.35 126.122 589.35C134.534 589.35 141.594 592.561 147.302 598.983V571.1H156.878V619.148ZM218.952 619.148C218.952 613.628 216.962 608.896 212.981 604.953C209.001 600.973 204.25 598.983 198.73 598.983C193.247 598.983 188.516 600.973 184.535 604.953C180.555 608.896 178.564 613.628 178.564 619.148C178.564 624.668 180.555 629.419 184.535 633.399C188.516 637.342 193.247 639.314 198.73 639.314C204.213 639.314 208.963 637.342 212.981 633.399C216.962 629.419 218.952 624.668 218.952 619.148ZM228.528 619.148C228.528 627.335 225.618 634.338 219.797 640.159C214.014 645.942 206.991 648.833 198.73 648.833C190.506 648.833 183.484 645.942 177.663 640.159C171.842 634.338 168.932 627.335 168.932 619.148C168.932 610.962 171.842 603.958 177.663 598.138C183.521 592.279 190.543 589.35 198.73 589.35C206.954 589.35 213.976 592.279 219.797 598.138C225.618 603.958 228.528 610.962 228.528 619.148ZM268.037 649.142C262.576 649.142 257.693 648.027 253.386 645.797C249.156 643.566 245.811 640.106 243.35 635.414C240.965 630.723 239.773 624.724 239.773 617.418C239.773 609.804 241.042 603.613 243.58 598.845C246.118 594.076 249.541 590.577 253.847 588.347C258.231 586.116 263.192 585.001 268.729 585.001C271.882 585.001 274.92 585.347 277.843 586.04C280.765 586.655 283.149 587.424 284.995 588.347L281.88 596.768C280.034 596.076 277.881 595.422 275.42 594.807C272.959 594.192 270.652 593.884 268.498 593.884C264.345 593.884 260.923 594.769 258.231 596.537C255.539 598.306 253.54 600.921 252.232 604.382C250.925 607.843 250.271 612.15 250.271 617.302C250.271 622.225 250.925 626.416 252.232 629.877C253.54 633.338 255.501 635.952 258.116 637.721C260.731 639.49 263.999 640.375 267.921 640.375C271.305 640.375 274.266 640.029 276.804 639.336C279.419 638.644 281.803 637.798 283.957 636.798V645.797C281.88 646.873 279.573 647.681 277.035 648.219C274.574 648.835 271.575 649.142 268.037 649.142ZM277.496 664.024C277.496 666.485 276.843 668.561 275.535 670.253C274.305 672.022 272.421 673.368 269.883 674.291C267.345 675.214 264.191 675.675 260.423 675.675C259.269 675.675 258.154 675.598 257.078 675.445C256.078 675.368 255.27 675.252 254.655 675.098V668.754C255.347 668.907 256.27 669.023 257.424 669.1C258.577 669.253 259.692 669.33 260.769 669.33C263.538 669.33 265.653 668.946 267.114 668.177C268.575 667.485 269.306 666.177 269.306 664.254C269.306 662.255 268.268 660.794 266.191 659.871C264.191 658.948 261.73 658.294 258.808 657.91L263.768 647.989H270.459L267.46 654.103C269.306 654.487 270.998 655.064 272.536 655.833C274.074 656.679 275.266 657.756 276.112 659.063C277.035 660.371 277.496 662.024 277.496 664.024ZM343.664 619.148C343.664 613.628 341.674 608.896 337.693 604.953C333.712 600.973 328.962 598.983 323.442 598.983C317.959 598.983 313.228 600.973 309.247 604.953C305.266 608.896 303.276 613.628 303.276 619.148C303.276 624.668 305.266 629.419 309.247 633.399C313.228 637.342 317.959 639.314 323.442 639.314C328.924 639.314 333.675 637.342 337.693 633.399C341.674 629.419 343.664 624.668 343.664 619.148ZM343.664 647.989V639.314C337.993 645.66 330.934 648.833 322.484 648.833C314.486 648.833 307.67 645.904 302.037 640.046C296.442 634.15 293.644 627.184 293.644 619.148C293.644 610.962 296.554 603.958 302.375 598.138C308.233 592.279 315.255 589.35 323.442 589.35C331.666 589.35 338.688 592.279 344.509 598.138C350.329 603.958 353.24 610.962 353.24 619.148V647.989H343.664ZM334.482 579.774C334.482 579.962 334.294 580.413 333.919 581.126C332.454 583.943 330.821 585.351 329.018 585.351C327.854 585.351 325.939 584.468 323.273 582.704C320.607 580.939 318.541 580.056 317.077 580.056C315.049 580.056 313.171 581.258 311.444 583.661V579.774C311.444 579.587 311.632 579.136 312.007 578.423C313.472 575.606 315.143 574.198 317.02 574.198C318.184 574.198 320.081 575.08 322.71 576.845C325.338 578.61 327.385 579.493 328.849 579.493C330.802 579.493 332.68 578.31 334.482 575.944V579.774ZM415.314 619.148C415.314 613.628 413.324 608.896 409.343 604.953C405.363 600.973 400.612 598.983 395.092 598.983C389.609 598.983 384.878 600.973 380.897 604.953C376.917 608.896 374.926 613.628 374.926 619.148C374.926 624.668 376.917 629.419 380.897 633.399C384.878 637.342 389.609 639.314 395.092 639.314C400.575 639.314 405.325 637.342 409.343 633.399C413.324 629.419 415.314 624.668 415.314 619.148ZM424.89 619.148C424.89 627.335 421.98 634.338 416.159 640.159C410.376 645.942 403.354 648.833 395.092 648.833C386.868 648.833 379.846 645.942 374.025 640.159C368.204 634.338 365.294 627.335 365.294 619.148C365.294 610.962 368.204 603.958 374.025 598.138C379.883 592.279 386.906 589.35 395.092 589.35C403.316 589.35 410.338 592.279 416.159 598.138C421.98 603.958 424.89 610.962 424.89 619.148Z" fill="white"/>
</g>
</svg>
