<svg width="737" height="680" viewBox="0 0 737 680" fill="none" xmlns="http://www.w3.org/2000/svg">
<g opacity="0.3">
<path opacity="0.05" d="M143.835 182.377H105.7L100.405 196.798H90.2095L118.205 119.909H131.442L159.438 196.798H149.129L143.835 182.377ZM109.136 172.745H140.398L124.795 129.879L109.136 172.745ZM223.878 167.957C223.878 176.144 220.967 183.147 215.147 188.968C209.364 194.751 202.341 197.643 194.08 197.643C185.818 197.643 178.796 194.751 173.013 188.968C167.192 183.147 164.282 176.144 164.282 167.957C164.282 159.921 167.08 152.936 172.675 147.003C178.308 141.107 185.123 138.159 193.122 138.159C201.534 138.159 208.594 141.37 214.302 147.792V119.909H223.878V167.957ZM214.302 167.957C214.302 162.437 212.311 157.705 208.331 153.762C204.35 149.782 199.6 147.792 194.08 147.792C188.597 147.792 183.865 149.782 179.885 153.762C175.904 157.705 173.914 162.437 173.914 167.957C173.914 173.478 175.904 178.228 179.885 182.208C183.865 186.151 188.597 188.123 194.08 188.123C199.562 188.123 204.313 186.151 208.331 182.208C212.311 178.228 214.302 173.478 214.302 167.957ZM295.528 167.957C295.528 176.144 292.618 183.147 286.797 188.968C281.014 194.751 273.992 197.643 265.73 197.643C257.468 197.643 250.446 194.751 244.663 188.968C238.842 183.147 235.932 176.144 235.932 167.957C235.932 159.771 238.842 152.767 244.663 146.947C250.521 141.088 257.544 138.159 265.73 138.159C273.954 138.159 280.976 141.088 286.797 146.947C292.618 152.767 295.528 159.771 295.528 167.957ZM285.952 167.957C285.952 162.437 283.962 157.705 279.981 153.762C276.001 149.782 271.25 147.792 265.73 147.792C260.247 147.792 255.516 149.782 251.535 153.762C247.555 157.705 245.564 162.437 245.564 167.957C245.564 173.478 247.555 178.228 251.535 182.208C255.516 186.151 260.247 188.123 265.73 188.123C271.213 188.123 275.963 186.151 279.981 182.208C283.962 178.228 285.952 173.478 285.952 167.957ZM335.037 197.951C329.576 197.951 324.693 196.836 320.386 194.606C316.156 192.375 312.811 188.915 310.35 184.223C307.965 179.532 306.773 173.533 306.773 166.227C306.773 158.613 308.042 152.422 310.58 147.654C313.118 142.885 316.541 139.386 320.847 137.156C325.231 134.926 330.192 133.81 335.729 133.81C338.882 133.81 341.92 134.156 344.843 134.849C347.765 135.464 350.149 136.233 351.995 137.156L348.88 145.577C347.034 144.885 344.881 144.231 342.42 143.616C339.959 143.001 337.652 142.693 335.498 142.693C331.345 142.693 327.923 143.578 325.231 145.346C322.539 147.115 320.54 149.73 319.232 153.191C317.925 156.652 317.271 160.959 317.271 166.112C317.271 171.034 317.925 175.225 319.232 178.686C320.54 182.147 322.501 184.762 325.116 186.53C327.731 188.299 330.999 189.184 334.921 189.184C338.305 189.184 341.266 188.838 343.804 188.146C346.419 187.453 348.803 186.607 350.957 185.608V194.606C348.88 195.682 346.573 196.49 344.035 197.028C341.574 197.644 338.575 197.951 335.037 197.951ZM344.496 212.833C344.496 215.294 343.843 217.37 342.535 219.062C341.305 220.831 339.421 222.177 336.883 223.1C334.345 224.023 331.191 224.484 327.423 224.484C326.269 224.484 325.154 224.407 324.078 224.254C323.078 224.177 322.27 224.061 321.655 223.908V217.563C322.347 217.716 323.27 217.832 324.424 217.909C325.577 218.063 326.692 218.139 327.769 218.139C330.538 218.139 332.653 217.755 334.114 216.986C335.575 216.294 336.306 214.986 336.306 213.064C336.306 211.064 335.268 209.603 333.191 208.68C331.191 207.757 328.73 207.103 325.808 206.719L330.768 196.798H337.459L334.46 202.912C336.306 203.296 337.998 203.873 339.536 204.642C341.074 205.488 342.266 206.565 343.112 207.872C344.035 209.18 344.496 210.833 344.496 212.833ZM410.664 188.123C404.993 194.469 397.934 197.643 389.484 197.643C381.486 197.643 374.67 194.713 369.037 188.855C363.442 182.922 360.644 175.956 360.644 167.957C360.644 159.771 363.554 152.767 369.375 146.947C375.233 141.088 382.255 138.159 390.442 138.159C398.666 138.159 405.688 141.088 411.509 146.947C417.329 152.767 420.24 159.771 420.24 167.957V196.798H410.664V188.123ZM410.664 167.957C410.664 162.437 408.674 157.705 404.693 153.762C400.712 149.782 395.962 147.792 390.442 147.792C384.959 147.792 380.228 149.782 376.247 153.762C372.266 157.705 370.276 162.437 370.276 167.957C370.276 173.478 372.266 178.228 376.247 182.208C380.228 186.151 384.959 188.123 390.442 188.123C395.924 188.123 400.675 186.151 404.693 182.208C408.674 178.228 410.664 173.478 410.664 167.957ZM401.482 128.471C401.482 128.659 401.294 129.109 400.919 129.823C399.454 132.639 397.821 134.047 396.018 134.047C394.854 134.047 392.939 133.165 390.273 131.4C387.607 129.635 385.541 128.752 384.077 128.752C382.049 128.752 380.171 129.954 378.444 132.358V128.471C378.444 128.283 378.632 127.832 379.007 127.119C380.472 124.303 382.143 122.894 384.02 122.894C385.147 122.894 387.043 123.777 389.71 125.542C392.376 127.307 394.422 128.189 395.849 128.189C397.802 128.189 399.68 127.006 401.482 124.64V128.471ZM491.89 167.957C491.89 176.144 488.98 183.147 483.159 188.968C477.376 194.751 470.354 197.643 462.092 197.643C453.83 197.643 446.808 194.751 441.025 188.968C435.204 183.147 432.294 176.144 432.294 167.957C432.294 159.771 435.204 152.767 441.025 146.947C446.883 141.088 453.906 138.159 462.092 138.159C470.316 138.159 477.338 141.088 483.159 146.947C488.98 152.767 491.89 159.771 491.89 167.957ZM482.314 167.957C482.314 162.437 480.324 157.705 476.343 153.762C472.363 149.782 467.612 147.792 462.092 147.792C456.609 147.792 451.878 149.782 447.897 153.762C443.917 157.705 441.926 162.437 441.926 167.957C441.926 173.478 443.917 178.228 447.897 182.208C451.878 186.151 456.609 188.123 462.092 188.123C467.575 188.123 472.325 186.151 476.343 182.208C480.324 178.228 482.314 173.478 482.314 167.957Z" fill="white"/>
<path opacity="0.3" d="M143.835 402.846H105.7L100.405 417.266H90.2095L118.205 340.377H131.442L159.438 417.266H149.129L143.835 402.846ZM109.136 393.213H140.398L124.795 350.347L109.136 393.213ZM223.878 388.426C223.878 396.612 220.967 403.616 215.147 409.436C209.364 415.219 202.341 418.111 194.08 418.111C185.818 418.111 178.796 415.219 173.013 409.436C167.192 403.616 164.282 396.612 164.282 388.426C164.282 380.389 167.08 373.405 172.675 367.471C178.308 361.576 185.123 358.628 193.122 358.628C201.534 358.628 208.594 361.838 214.302 368.26V340.377H223.878V388.426ZM214.302 388.426C214.302 382.905 212.311 378.174 208.331 374.231C204.35 370.25 199.6 368.26 194.08 368.26C188.597 368.26 183.865 370.25 179.885 374.231C175.904 378.174 173.914 382.905 173.914 388.426C173.914 393.946 175.904 398.696 179.885 402.677C183.865 406.62 188.597 408.591 194.08 408.591C199.562 408.591 204.313 406.62 208.331 402.677C212.311 398.696 214.302 393.946 214.302 388.426ZM295.528 388.426C295.528 396.612 292.618 403.616 286.797 409.436C281.014 415.219 273.992 418.111 265.73 418.111C257.468 418.111 250.446 415.219 244.663 409.436C238.842 403.616 235.932 396.612 235.932 388.426C235.932 380.239 238.842 373.236 244.663 367.415C250.521 361.557 257.544 358.628 265.73 358.628C273.954 358.628 280.976 361.557 286.797 367.415C292.618 373.236 295.528 380.239 295.528 388.426ZM285.952 388.426C285.952 382.905 283.962 378.174 279.981 374.231C276.001 370.25 271.25 368.26 265.73 368.26C260.247 368.26 255.516 370.25 251.535 374.231C247.555 378.174 245.564 382.905 245.564 388.426C245.564 393.946 247.555 398.696 251.535 402.677C255.516 406.62 260.247 408.591 265.73 408.591C271.213 408.591 275.963 406.62 279.981 402.677C283.962 398.696 285.952 393.946 285.952 388.426ZM335.037 418.419C329.576 418.419 324.693 417.304 320.386 415.074C316.156 412.844 312.811 409.383 310.35 404.691C307.965 400 306.773 394.001 306.773 386.695C306.773 379.081 308.042 372.89 310.58 368.122C313.118 363.354 316.541 359.854 320.847 357.624C325.231 355.394 330.192 354.279 335.729 354.279C338.882 354.279 341.92 354.625 344.843 355.317C347.765 355.932 350.149 356.701 351.995 357.624L348.88 366.045C347.034 365.353 344.881 364.7 342.42 364.084C339.959 363.469 337.652 363.161 335.498 363.161C331.345 363.161 327.923 364.046 325.231 365.815C322.539 367.584 320.54 370.198 319.232 373.659C317.925 377.12 317.271 381.427 317.271 386.58C317.271 391.502 317.925 395.693 319.232 399.154C320.54 402.615 322.501 405.23 325.116 406.999C327.731 408.768 330.999 409.652 334.921 409.652C338.305 409.652 341.266 409.306 343.804 408.614C346.419 407.922 348.803 407.076 350.957 406.076V415.074C348.88 416.151 346.573 416.958 344.035 417.497C341.574 418.112 338.575 418.419 335.037 418.419ZM344.496 433.301C344.496 435.762 343.843 437.839 342.535 439.531C341.305 441.299 339.421 442.645 336.883 443.568C334.345 444.491 331.191 444.953 327.423 444.953C326.269 444.953 325.154 444.876 324.078 444.722C323.078 444.645 322.27 444.53 321.655 444.376V438.031C322.347 438.185 323.27 438.3 324.424 438.377C325.577 438.531 326.692 438.608 327.769 438.608C330.538 438.608 332.653 438.223 334.114 437.454C335.575 436.762 336.306 435.454 336.306 433.532C336.306 431.532 335.268 430.071 333.191 429.148C331.191 428.225 328.73 427.571 325.808 427.187L330.768 417.266H337.459L334.46 423.38C336.306 423.765 337.998 424.341 339.536 425.11C341.074 425.956 342.266 427.033 343.112 428.341C344.035 429.648 344.496 431.301 344.496 433.301ZM410.664 408.591C404.993 414.938 397.934 418.111 389.484 418.111C381.486 418.111 374.67 415.182 369.037 409.324C363.442 403.39 360.644 396.424 360.644 388.426C360.644 380.239 363.554 373.236 369.375 367.415C375.233 361.557 382.255 358.628 390.442 358.628C398.666 358.628 405.688 361.557 411.509 367.415C417.329 373.236 420.24 380.239 420.24 388.426V417.266H410.664V408.591ZM410.664 388.426C410.664 382.905 408.674 378.174 404.693 374.231C400.712 370.25 395.962 368.26 390.442 368.26C384.959 368.26 380.228 370.25 376.247 374.231C372.266 378.174 370.276 382.905 370.276 388.426C370.276 393.946 372.266 398.696 376.247 402.677C380.228 406.62 384.959 408.591 390.442 408.591C395.924 408.591 400.675 406.62 404.693 402.677C408.674 398.696 410.664 393.946 410.664 388.426ZM401.482 348.939C401.482 349.127 401.294 349.577 400.919 350.291C399.454 353.107 397.821 354.516 396.018 354.516C394.854 354.516 392.939 353.633 390.273 351.868C387.607 350.103 385.541 349.221 384.077 349.221C382.049 349.221 380.171 350.422 378.444 352.826V348.939C378.444 348.751 378.632 348.301 379.007 347.587C380.472 344.771 382.143 343.363 384.02 343.363C385.147 343.363 387.043 344.245 389.71 346.01C392.376 347.775 394.422 348.657 395.849 348.657C397.802 348.657 399.68 347.475 401.482 345.109V348.939ZM491.89 388.426C491.89 396.612 488.98 403.616 483.159 409.436C477.376 415.219 470.354 418.111 462.092 418.111C453.83 418.111 446.808 415.219 441.025 409.436C435.204 403.616 432.294 396.612 432.294 388.426C432.294 380.239 435.204 373.236 441.025 367.415C446.883 361.557 453.906 358.628 462.092 358.628C470.316 358.628 477.338 361.557 483.159 367.415C488.98 373.236 491.89 380.239 491.89 388.426ZM482.314 388.426C482.314 382.905 480.324 378.174 476.343 374.231C472.363 370.25 467.612 368.26 462.092 368.26C456.609 368.26 451.878 370.25 447.897 374.231C443.917 378.174 441.926 382.905 441.926 388.426C441.926 393.946 443.917 398.696 447.897 402.677C451.878 406.62 456.609 408.591 462.092 408.591C467.575 408.591 472.325 406.62 476.343 402.677C480.324 398.696 482.314 393.946 482.314 388.426Z" fill="white"/>
<path opacity="0.1" d="M143.835 295.175H105.7L100.405 309.595H90.2095L118.205 232.707H131.442L159.438 309.595H149.129L143.835 295.175ZM109.136 285.543H140.398L124.795 242.677L109.136 285.543ZM223.878 280.755C223.878 288.942 220.967 295.945 215.147 301.766C209.364 307.549 202.341 310.44 194.08 310.44C185.818 310.44 178.796 307.549 173.013 301.766C167.192 295.945 164.282 288.942 164.282 280.755C164.282 272.719 167.08 265.734 172.675 259.801C178.308 253.905 185.123 250.957 193.122 250.957C201.534 250.957 208.594 254.168 214.302 260.589V232.707H223.878V280.755ZM214.302 280.755C214.302 275.235 212.311 270.503 208.331 266.56C204.35 262.58 199.6 260.589 194.08 260.589C188.597 260.589 183.865 262.58 179.885 266.56C175.904 270.503 173.914 275.235 173.914 280.755C173.914 286.275 175.904 291.026 179.885 295.006C183.865 298.949 188.597 300.921 194.08 300.921C199.562 300.921 204.313 298.949 208.331 295.006C212.311 291.026 214.302 286.275 214.302 280.755ZM295.528 280.755C295.528 288.942 292.618 295.945 286.797 301.766C281.014 307.549 273.992 310.44 265.73 310.44C257.468 310.44 250.446 307.549 244.663 301.766C238.842 295.945 235.932 288.942 235.932 280.755C235.932 272.569 238.842 265.565 244.663 259.745C250.521 253.886 257.544 250.957 265.73 250.957C273.954 250.957 280.976 253.886 286.797 259.745C292.618 265.565 295.528 272.569 295.528 280.755ZM285.952 280.755C285.952 275.235 283.962 270.503 279.981 266.56C276.001 262.58 271.25 260.589 265.73 260.589C260.247 260.589 255.516 262.58 251.535 266.56C247.555 270.503 245.564 275.235 245.564 280.755C245.564 286.275 247.555 291.026 251.535 295.006C255.516 298.949 260.247 300.921 265.73 300.921C271.213 300.921 275.963 298.949 279.981 295.006C283.962 291.026 285.952 286.275 285.952 280.755ZM335.037 310.749C329.576 310.749 324.693 309.634 320.386 307.404C316.156 305.173 312.811 301.712 310.35 297.021C307.965 292.33 306.773 286.331 306.773 279.025C306.773 271.411 308.042 265.22 310.58 260.452C313.118 255.683 316.541 252.184 320.847 249.954C325.231 247.723 330.192 246.608 335.729 246.608C338.882 246.608 341.92 246.954 344.843 247.646C347.765 248.262 350.149 249.031 351.995 249.954L348.88 258.375C347.034 257.683 344.881 257.029 342.42 256.414C339.959 255.799 337.652 255.491 335.498 255.491C331.345 255.491 327.923 256.375 325.231 258.144C322.539 259.913 320.54 262.528 319.232 265.989C317.925 269.45 317.271 273.757 317.271 278.909C317.271 283.831 317.925 288.023 319.232 291.484C320.54 294.945 322.501 297.559 325.116 299.328C327.731 301.097 330.999 301.982 334.921 301.982C338.305 301.982 341.266 301.636 343.804 300.943C346.419 300.251 348.803 299.405 350.957 298.405V307.404C348.88 308.48 346.573 309.288 344.035 309.826C341.574 310.441 338.575 310.749 335.037 310.749ZM344.496 325.631C344.496 328.092 343.843 330.168 342.535 331.86C341.305 333.629 339.421 334.975 336.883 335.898C334.345 336.821 331.191 337.282 327.423 337.282C326.269 337.282 325.154 337.205 324.078 337.051C323.078 336.975 322.27 336.859 321.655 336.705V330.36C322.347 330.514 323.27 330.63 324.424 330.707C325.577 330.86 326.692 330.937 327.769 330.937C330.538 330.937 332.653 330.553 334.114 329.784C335.575 329.092 336.306 327.784 336.306 325.861C336.306 323.862 335.268 322.401 333.191 321.478C331.191 320.555 328.73 319.901 325.808 319.517L330.768 309.595H337.459L334.46 315.71C336.306 316.094 337.998 316.671 339.536 317.44C341.074 318.286 342.266 319.363 343.112 320.67C344.035 321.978 344.496 323.631 344.496 325.631ZM410.664 300.921C404.993 307.267 397.934 310.44 389.484 310.44C381.486 310.44 374.67 307.511 369.037 301.653C363.442 295.72 360.644 288.754 360.644 280.755C360.644 272.569 363.554 265.565 369.375 259.745C375.233 253.886 382.255 250.957 390.442 250.957C398.666 250.957 405.688 253.886 411.509 259.745C417.329 265.565 420.24 272.569 420.24 280.755V309.595H410.664V300.921ZM410.664 280.755C410.664 275.235 408.674 270.503 404.693 266.56C400.712 262.58 395.962 260.589 390.442 260.589C384.959 260.589 380.228 262.58 376.247 266.56C372.266 270.503 370.276 275.235 370.276 280.755C370.276 286.275 372.266 291.026 376.247 295.006C380.228 298.949 384.959 300.921 390.442 300.921C395.924 300.921 400.675 298.949 404.693 295.006C408.674 291.026 410.664 286.275 410.664 280.755ZM401.482 241.269C401.482 241.456 401.294 241.907 400.919 242.621C399.454 245.437 397.821 246.845 396.018 246.845C394.854 246.845 392.939 245.963 390.273 244.198C387.607 242.433 385.541 241.55 384.077 241.55C382.049 241.55 380.171 242.752 378.444 245.155V241.269C378.444 241.081 378.632 240.63 379.007 239.917C380.472 237.1 382.143 235.692 384.02 235.692C385.147 235.692 387.043 236.575 389.71 238.34C392.376 240.105 394.422 240.987 395.849 240.987C397.802 240.987 399.68 239.804 401.482 237.438V241.269ZM491.89 280.755C491.89 288.942 488.98 295.945 483.159 301.766C477.376 307.549 470.354 310.44 462.092 310.44C453.83 310.44 446.808 307.549 441.025 301.766C435.204 295.945 432.294 288.942 432.294 280.755C432.294 272.569 435.204 265.565 441.025 259.745C446.883 253.886 453.906 250.957 462.092 250.957C470.316 250.957 477.338 253.886 483.159 259.745C488.98 265.565 491.89 272.569 491.89 280.755ZM482.314 280.755C482.314 275.235 480.324 270.503 476.343 266.56C472.363 262.58 467.612 260.589 462.092 260.589C456.609 260.589 451.878 262.58 447.897 266.56C443.917 270.503 441.926 275.235 441.926 280.755C441.926 286.275 443.917 291.026 447.897 295.006C451.878 298.949 456.609 300.921 462.092 300.921C467.575 300.921 472.325 298.949 476.343 295.006C480.324 291.026 482.314 286.275 482.314 280.755Z" fill="white"/>
<path opacity="0.1" d="M143.835 520.771H105.7L100.405 535.191H90.2095L118.205 458.302H131.442L159.438 535.191H149.129L143.835 520.771ZM109.136 511.138H140.398L124.795 468.272L109.136 511.138ZM223.878 506.35C223.878 514.537 220.967 521.54 215.147 527.361C209.364 533.144 202.341 536.036 194.08 536.036C185.818 536.036 178.796 533.144 173.013 527.361C167.192 521.54 164.282 514.537 164.282 506.35C164.282 498.314 167.08 491.329 172.675 485.396C178.308 479.5 185.123 476.553 193.122 476.553C201.534 476.553 208.594 479.763 214.302 486.185V458.302H223.878V506.35ZM214.302 506.35C214.302 500.83 212.311 496.099 208.331 492.156C204.35 488.175 199.6 486.185 194.08 486.185C188.597 486.185 183.865 488.175 179.885 492.156C175.904 496.099 173.914 500.83 173.914 506.35C173.914 511.871 175.904 516.621 179.885 520.602C183.865 524.545 188.597 526.516 194.08 526.516C199.562 526.516 204.313 524.545 208.331 520.602C212.311 516.621 214.302 511.871 214.302 506.35ZM295.528 506.35C295.528 514.537 292.618 521.54 286.797 527.361C281.014 533.144 273.992 536.036 265.73 536.036C257.468 536.036 250.446 533.144 244.663 527.361C238.842 521.54 235.932 514.537 235.932 506.35C235.932 498.164 238.842 491.16 244.663 485.34C250.521 479.482 257.544 476.553 265.73 476.553C273.954 476.553 280.976 479.482 286.797 485.34C292.618 491.16 295.528 498.164 295.528 506.35ZM285.952 506.35C285.952 500.83 283.962 496.099 279.981 492.156C276.001 488.175 271.25 486.185 265.73 486.185C260.247 486.185 255.516 488.175 251.535 492.156C247.555 496.099 245.564 500.83 245.564 506.35C245.564 511.871 247.555 516.621 251.535 520.602C255.516 524.545 260.247 526.516 265.73 526.516C271.213 526.516 275.963 524.545 279.981 520.602C283.962 516.621 285.952 511.871 285.952 506.35ZM335.037 536.344C329.576 536.344 324.693 535.229 320.386 532.999C316.156 530.769 312.811 527.308 310.35 522.616C307.965 517.925 306.773 511.926 306.773 504.62C306.773 497.006 308.042 490.815 310.58 486.047C313.118 481.279 316.541 477.779 320.847 475.549C325.231 473.319 330.192 472.204 335.729 472.204C338.882 472.204 341.92 472.55 344.843 473.242C347.765 473.857 350.149 474.626 351.995 475.549L348.88 483.97C347.034 483.278 344.881 482.625 342.42 482.009C339.959 481.394 337.652 481.086 335.498 481.086C331.345 481.086 327.923 481.971 325.231 483.74C322.539 485.509 320.54 488.123 319.232 491.584C317.925 495.045 317.271 499.352 317.271 504.505C317.271 509.427 317.925 513.618 319.232 517.079C320.54 520.54 322.501 523.155 325.116 524.924C327.731 526.693 330.999 527.577 334.921 527.577C338.305 527.577 341.266 527.231 343.804 526.539C346.419 525.847 348.803 525.001 350.957 524.001V532.999C348.88 534.076 346.573 534.883 344.035 535.422C341.574 536.037 338.575 536.344 335.037 536.344ZM344.496 551.226C344.496 553.687 343.843 555.764 342.535 557.456C341.305 559.224 339.421 560.57 336.883 561.493C334.345 562.416 331.191 562.878 327.423 562.878C326.269 562.878 325.154 562.801 324.078 562.647C323.078 562.57 322.27 562.455 321.655 562.301V555.956C322.347 556.11 323.27 556.225 324.424 556.302C325.577 556.456 326.692 556.533 327.769 556.533C330.538 556.533 332.653 556.148 334.114 555.379C335.575 554.687 336.306 553.379 336.306 551.457C336.306 549.457 335.268 547.996 333.191 547.073C331.191 546.15 328.73 545.496 325.808 545.112L330.768 535.191H337.459L334.46 541.305C336.306 541.689 337.998 542.266 339.536 543.035C341.074 543.881 342.266 544.958 343.112 546.265C344.035 547.573 344.496 549.226 344.496 551.226ZM410.664 526.516C404.993 532.863 397.934 536.036 389.484 536.036C381.486 536.036 374.67 533.107 369.037 527.248C363.442 521.315 360.644 514.349 360.644 506.35C360.644 498.164 363.554 491.16 369.375 485.34C375.233 479.482 382.255 476.553 390.442 476.553C398.666 476.553 405.688 479.482 411.509 485.34C417.329 491.16 420.24 498.164 420.24 506.35V535.191H410.664V526.516ZM410.664 506.35C410.664 500.83 408.674 496.099 404.693 492.156C400.712 488.175 395.962 486.185 390.442 486.185C384.959 486.185 380.228 488.175 376.247 492.156C372.266 496.099 370.276 500.83 370.276 506.35C370.276 511.871 372.266 516.621 376.247 520.602C380.228 524.545 384.959 526.516 390.442 526.516C395.924 526.516 400.675 524.545 404.693 520.602C408.674 516.621 410.664 511.871 410.664 506.35ZM401.482 466.864C401.482 467.052 401.294 467.502 400.919 468.216C399.454 471.032 397.821 472.441 396.018 472.441C394.854 472.441 392.939 471.558 390.273 469.793C387.607 468.028 385.541 467.146 384.077 467.146C382.049 467.146 380.171 468.347 378.444 470.751V466.864C378.444 466.676 378.632 466.226 379.007 465.512C380.472 462.696 382.143 461.287 384.02 461.287C385.147 461.287 387.043 462.17 389.71 463.935C392.376 465.7 394.422 466.582 395.849 466.582C397.802 466.582 399.68 465.399 401.482 463.034V466.864ZM491.89 506.35C491.89 514.537 488.98 521.54 483.159 527.361C477.376 533.144 470.354 536.036 462.092 536.036C453.83 536.036 446.808 533.144 441.025 527.361C435.204 521.54 432.294 514.537 432.294 506.35C432.294 498.164 435.204 491.16 441.025 485.34C446.883 479.482 453.906 476.553 462.092 476.553C470.316 476.553 477.338 479.482 483.159 485.34C488.98 491.16 491.89 498.164 491.89 506.35ZM482.314 506.35C482.314 500.83 480.324 496.099 476.343 492.156C472.363 488.175 467.612 486.185 462.092 486.185C456.609 486.185 451.878 488.175 447.897 492.156C443.917 496.099 441.926 500.83 441.926 506.35C441.926 511.871 443.917 516.621 447.897 520.602C451.878 524.545 456.609 526.516 462.092 526.516C467.575 526.516 472.325 524.545 476.343 520.602C480.324 516.621 482.314 511.871 482.314 506.35Z" fill="white"/>
<path opacity="0.05" d="M143.835 633.568H105.7L100.405 647.989H90.2095L118.205 571.1H131.442L159.438 647.989H149.129L143.835 633.568ZM109.136 623.936H140.398L124.795 581.07L109.136 623.936ZM223.878 619.148C223.878 627.335 220.967 634.338 215.147 640.159C209.364 645.942 202.341 648.833 194.08 648.833C185.818 648.833 178.796 645.942 173.013 640.159C167.192 634.338 164.282 627.335 164.282 619.148C164.282 611.112 167.08 604.127 172.675 598.194C178.308 592.298 185.123 589.35 193.122 589.35C201.534 589.35 208.594 592.561 214.302 598.983V571.1H223.878V619.148ZM214.302 619.148C214.302 613.628 212.311 608.896 208.331 604.953C204.35 600.973 199.6 598.983 194.08 598.983C188.597 598.983 183.865 600.973 179.885 604.953C175.904 608.896 173.914 613.628 173.914 619.148C173.914 624.668 175.904 629.419 179.885 633.399C183.865 637.342 188.597 639.314 194.08 639.314C199.562 639.314 204.313 637.342 208.331 633.399C212.311 629.419 214.302 624.668 214.302 619.148ZM295.528 619.148C295.528 627.335 292.618 634.338 286.797 640.159C281.014 645.942 273.992 648.833 265.73 648.833C257.468 648.833 250.446 645.942 244.663 640.159C238.842 634.338 235.932 627.335 235.932 619.148C235.932 610.962 238.842 603.958 244.663 598.138C250.521 592.279 257.544 589.35 265.73 589.35C273.954 589.35 280.976 592.279 286.797 598.138C292.618 603.958 295.528 610.962 295.528 619.148ZM285.952 619.148C285.952 613.628 283.962 608.896 279.981 604.953C276.001 600.973 271.25 598.983 265.73 598.983C260.247 598.983 255.516 600.973 251.535 604.953C247.555 608.896 245.564 613.628 245.564 619.148C245.564 624.668 247.555 629.419 251.535 633.399C255.516 637.342 260.247 639.314 265.73 639.314C271.213 639.314 275.963 637.342 279.981 633.399C283.962 629.419 285.952 624.668 285.952 619.148ZM335.037 649.142C329.576 649.142 324.693 648.027 320.386 645.797C316.156 643.566 312.811 640.106 310.35 635.414C307.965 630.723 306.773 624.724 306.773 617.418C306.773 609.804 308.042 603.613 310.58 598.845C313.118 594.076 316.541 590.577 320.847 588.347C325.231 586.116 330.192 585.001 335.729 585.001C338.882 585.001 341.92 585.347 344.843 586.04C347.765 586.655 350.149 587.424 351.995 588.347L348.88 596.768C347.034 596.076 344.881 595.422 342.42 594.807C339.959 594.192 337.652 593.884 335.498 593.884C331.345 593.884 327.923 594.769 325.231 596.537C322.539 598.306 320.54 600.921 319.232 604.382C317.925 607.843 317.271 612.15 317.271 617.302C317.271 622.225 317.925 626.416 319.232 629.877C320.54 633.338 322.501 635.952 325.116 637.721C327.731 639.49 330.999 640.375 334.921 640.375C338.305 640.375 341.266 640.029 343.804 639.336C346.419 638.644 348.803 637.798 350.957 636.798V645.797C348.88 646.873 346.573 647.681 344.035 648.219C341.574 648.835 338.575 649.142 335.037 649.142ZM344.496 664.024C344.496 666.485 343.843 668.561 342.535 670.253C341.305 672.022 339.421 673.368 336.883 674.291C334.345 675.214 331.191 675.675 327.423 675.675C326.269 675.675 325.154 675.598 324.078 675.445C323.078 675.368 322.27 675.252 321.655 675.098V668.754C322.347 668.907 323.27 669.023 324.424 669.1C325.577 669.253 326.692 669.33 327.769 669.33C330.538 669.33 332.653 668.946 334.114 668.177C335.575 667.485 336.306 666.177 336.306 664.254C336.306 662.255 335.268 660.794 333.191 659.871C331.191 658.948 328.73 658.294 325.808 657.91L330.768 647.989H337.459L334.46 654.103C336.306 654.487 337.998 655.064 339.536 655.833C341.074 656.679 342.266 657.756 343.112 659.063C344.035 660.371 344.496 662.024 344.496 664.024ZM410.664 639.314C404.993 645.66 397.934 648.833 389.484 648.833C381.486 648.833 374.67 645.904 369.037 640.046C363.442 634.113 360.644 627.147 360.644 619.148C360.644 610.962 363.554 603.958 369.375 598.138C375.233 592.279 382.255 589.35 390.442 589.35C398.666 589.35 405.688 592.279 411.509 598.138C417.329 603.958 420.24 610.962 420.24 619.148V647.989H410.664V639.314ZM410.664 619.148C410.664 613.628 408.674 608.896 404.693 604.953C400.712 600.973 395.962 598.983 390.442 598.983C384.959 598.983 380.228 600.973 376.247 604.953C372.266 608.896 370.276 613.628 370.276 619.148C370.276 624.668 372.266 629.419 376.247 633.399C380.228 637.342 384.959 639.314 390.442 639.314C395.924 639.314 400.675 637.342 404.693 633.399C408.674 629.419 410.664 624.668 410.664 619.148ZM401.482 579.662C401.482 579.85 401.294 580.3 400.919 581.014C399.454 583.83 397.821 585.238 396.018 585.238C394.854 585.238 392.939 584.356 390.273 582.591C387.607 580.826 385.541 579.943 384.077 579.943C382.049 579.943 380.171 581.145 378.444 583.548V579.662C378.444 579.474 378.632 579.023 379.007 578.31C380.472 575.493 382.143 574.085 384.02 574.085C385.147 574.085 387.043 574.968 389.71 576.733C392.376 578.498 394.422 579.38 395.849 579.38C397.802 579.38 399.68 578.197 401.482 575.831V579.662ZM491.89 619.148C491.89 627.335 488.98 634.338 483.159 640.159C477.376 645.942 470.354 648.833 462.092 648.833C453.83 648.833 446.808 645.942 441.025 640.159C435.204 634.338 432.294 627.335 432.294 619.148C432.294 610.962 435.204 603.958 441.025 598.138C446.883 592.279 453.906 589.35 462.092 589.35C470.316 589.35 477.338 592.279 483.159 598.138C488.98 603.958 491.89 610.962 491.89 619.148ZM482.314 619.148C482.314 613.628 480.324 608.896 476.343 604.953C472.363 600.973 467.612 598.983 462.092 598.983C456.609 598.983 451.878 600.973 447.897 604.953C443.917 608.896 441.926 613.628 441.926 619.148C441.926 624.668 443.917 629.419 447.897 633.399C451.878 637.342 456.609 639.314 462.092 639.314C467.575 639.314 472.325 637.342 476.343 633.399C480.324 629.419 482.314 624.668 482.314 619.148Z" fill="white"/>
</g>
</svg>
