<svg width="616" height="243" viewBox="0 0 616 243" fill="none" xmlns="http://www.w3.org/2000/svg">
<g clip-path="url(#clip0_452_1675)">
<path d="M22.9681 152.756C18.103 146.572 13.7315 139.912 10.5234 132.703C6.71598 123.428 4.7065 113.569 4.19531 103.604C5.18243 101.873 11.1756 91.3604 15.2122 86.3604C19.619 80.901 25.5593 70.4946 23.4088 59.1519C21.9281 51.378 20.2535 46.8727 19.3369 44.8056C20.4651 43.3215 21.6813 41.8904 22.9857 40.53C25.4711 38.1271 28.1504 35.636 31.5525 34.6466C34.5667 33.7102 38.0921 34.3109 40.4365 36.4664C44.0148 40.0529 42.8161 45.7066 41.1768 49.9646C38.6385 56.166 34.8135 61.7314 31.764 67.6854C24.6074 81.2897 18.7376 96.0247 18.0678 111.555C17.9091 120.247 18.3322 129.435 22.0339 137.42C22.1749 137.632 22.3159 137.791 22.4745 137.933C22.4922 143.198 24.8189 148.321 27.5335 152.756C31.4643 158.993 36.4175 164.523 39.8548 171.078C39.9958 171.325 40.1192 171.59 40.2426 171.837C34.743 165.265 28.3443 159.47 22.9681 152.756Z" fill="#53248F"/>
<path d="M174.384 146.696C168.92 162.014 159.507 175.706 147.838 186.961C138.76 185.618 111.368 182.208 94.9217 187.438C78.458 192.668 61.7123 211.29 56.4066 217.597C52.4582 215.6 48.6507 213.268 45.3897 210.265C42.0758 207.261 39.2731 203.763 36.5586 200.212C32.945 195.353 29.3844 190.053 28.0447 184.063C27.0576 178.268 32.381 177.933 35.6772 181.29C38.9558 184.293 41.2121 188.569 45.3368 190.53C51.9646 193.622 57.5524 187.102 62.5232 183.622C68.675 179.01 75.3733 174.911 82.7061 172.473C90.8322 170.106 99.822 171.078 107.278 175.053C110.257 176.696 113.236 178.498 115.528 181.06C116.339 182.032 116.462 183.357 118.031 183.392C119.229 183.463 120.252 182.367 120.146 181.184C120.04 179.841 118.789 178.427 117.819 177.438C109.975 170.07 98.9583 166.166 88.2234 167.226C76.9774 168.392 67.1238 175 58.3103 181.696C55.5781 183.675 52.9693 186.254 49.6731 187.208C49.4968 187.226 49.3205 187.226 49.1443 187.226C48.7917 183.463 47.8928 179.752 46.6236 176.184C43.768 167.95 38.4094 161.025 33.3505 154.063C30.724 150.335 28.0976 146.042 27.0576 141.466C26.2644 138.233 26.2115 131.767 30.3362 130.954C34.602 132.244 36.0121 138.463 37.4047 142.208C38.2331 144.434 38.8325 147.102 40.9653 148.463C42.6223 149.523 44.8785 148.904 46.0948 147.456C48.827 143.816 51.5592 140.035 55.349 137.385C62.0649 132.579 70.6845 130.653 78.8106 132.191C81.6838 132.65 84.3455 133.816 86.7075 135.441C86.637 135.353 86.5665 135.265 86.4959 135.176C86.4607 135.123 86.4431 135.07 86.4078 135.017C86.496 135.176 86.6017 135.318 86.7251 135.459C86.9895 135.636 87.2539 135.83 87.5007 136.025C88.2939 136.343 89.0695 136.131 89.5983 135.653C91.2024 135.088 92.9651 132.738 94.1813 131.714C100.263 125.795 104.299 118.003 106.556 109.876C112.108 88.9927 100.157 67.2436 86.778 51.8726C85.8966 50.8655 84.9624 49.8938 84.0282 48.9397C83.4817 48.3743 82.9 47.862 82.3712 47.2789C82.0363 46.9079 80.7672 45.7065 81.4194 45.2295C82.8824 44.1341 85.3326 44.7878 86.919 45.1941C89.9156 45.9538 92.7888 47.1553 95.6268 48.3743C96.7725 48.869 97.9359 49.3637 99.0816 49.8408C99.8925 50.1765 100.739 50.5828 101.602 50.7948C105.269 52.1199 108.301 48.6924 110.98 46.6782C114.452 43.816 117.89 40.9362 121.38 38.1093C123.125 36.7136 124.923 35.3178 126.791 33.922C127.003 33.7454 127.232 33.5687 127.479 33.4097C127.479 33.4097 145.264 43.127 158.89 34.5051C163.932 41.6782 168.021 49.5581 171.264 57.6853C174.966 67.4733 178.157 77.5263 179.99 87.8443C180.342 89.9821 180.642 92.1199 180.889 94.2754C181.118 95.2648 180.924 96.4839 181.188 97.4909C181.188 97.597 181.188 97.7206 181.188 97.8266C181.294 100.812 181.329 103.816 181.365 106.802C181.47 120.318 178.773 133.869 174.384 146.696Z" fill="#53248F"/>
<path d="M86.796 130.848L86.7783 130.83C86.8312 130.883 86.8665 130.936 86.9193 130.971C86.8665 130.954 86.8312 130.901 86.796 130.848Z" fill="white"/>
<path d="M120.094 95.2124C118.172 95.1241 115.493 95.4598 116.039 98.0216C116.745 100.301 119.23 99.1347 120.94 99.3644C127.779 99.5764 133.455 104.4 135.588 110.795C137.28 115.566 137.069 120.725 136.892 125.707C136.593 132.156 135.218 138.887 131.199 144.099C130.758 144.612 130.3 145.071 129.824 145.477C129.859 142.474 129.207 138.251 129.031 136.767C128.255 134.311 124.641 135.124 125.012 137.668C125.435 140.813 125.77 143.976 125.629 147.138C125.629 147.262 125.629 147.368 125.646 147.474C124.536 147.686 123.408 147.668 122.315 147.403C122.561 143.923 122.526 140.442 122.279 136.979C122.209 134.47 118.595 134.223 118.19 136.679C118.119 138.004 118.366 139.364 118.349 140.707C118.384 142.209 118.384 143.693 118.331 145.195C117.591 144.488 116.938 143.622 116.392 142.598C114.7 139.4 114.7 135.689 114.77 132.174C114.964 127.085 115.458 121.962 114.823 116.873C114.383 114.188 110.434 114.788 110.734 117.474C111.351 122.333 110.804 127.244 110.646 132.103C110.416 137.386 110.963 143.145 114.629 147.262C116.568 149.453 119.159 151.131 122.068 151.608C130.388 153.039 136.328 145.99 138.655 138.746C140.559 133.569 141.052 128.004 141.123 122.527C141.14 119.612 141.105 116.679 140.629 113.799C138.937 103.375 130.97 95.1418 120.094 95.2124Z" fill="white"/>
<path d="M176.464 111.431C173.908 110.194 173.027 113.604 172.128 115.3C169.784 120.601 169.378 126.466 168.303 132.102C167.545 136.148 166.399 140.194 164.143 143.675C164.072 143.799 163.984 143.905 163.914 144.028C163.861 142.12 163.826 140.194 163.755 138.286C163.72 137.297 163.614 136.325 163.579 135.336C163.649 134.788 163.491 134.205 163.138 133.763C161.869 132.173 159.313 133.269 159.454 135.265C159.701 139.223 159.754 143.198 159.877 147.173C159.877 147.297 159.895 147.42 159.912 147.526C158.731 148.021 157.515 148.127 156.317 147.809C156.387 147.597 156.422 147.367 156.405 147.12C156.299 144.187 156.317 141.254 156.281 138.322C156.264 137.385 156.299 136.484 156.246 135.548C155.805 133.003 152.104 133.357 152.139 135.901C152.157 138.799 152.174 141.696 152.209 144.594C147.415 137.615 148.966 123.375 150.288 115.283C151.451 108.304 153.919 101.219 159.296 96.3781C161.94 93.9222 165.201 91.6254 168.902 91.3957C171.211 91.7137 172.34 88.1802 169.678 87.3498C160.759 86.7844 151.645 96.9258 148.825 104.788C145.846 112.986 144.877 121.82 144.929 130.512C144.824 138.834 146.939 150.3 156.563 152.12C161.27 152.738 165.518 149.417 167.845 145.565C171.828 139.329 172.481 131.784 173.75 124.647C174.261 121.873 174.931 119.099 176.112 116.537C176.852 114.859 178.65 112.791 176.464 111.431Z" fill="white"/>
<path d="M185.506 99.8235C185.471 97.191 185.418 94.5408 185.312 91.9083C185.312 91.7317 185.295 91.555 185.295 91.3783C185.295 91.2546 185.277 91.1309 185.277 91.0249C185.295 90.7776 185.242 90.5479 185.171 90.3359C185.066 89.5585 184.942 88.8165 184.925 88.1981C183.867 79.1698 181.54 70.3359 178.755 61.6963C174.084 47.35 167.597 33.3041 157.902 21.6433C154.024 17.032 132.678 -5.49449 127.214 1.25463C125.909 3.14509 126.949 14.1168 127.073 17.3677C127.108 19.5408 127.443 21.7317 127.179 23.9048C122.225 27.5797 117.695 31.1309 112.883 35.1592C109.869 37.5267 107.101 40.3359 103.752 42.244C103.276 42.5267 102.783 42.191 102.324 42.032C101.038 41.5196 99.7509 40.9896 98.4641 40.4419C93.0526 38.4631 82.9523 32.9154 78.1401 38.0214C77.1001 39.1522 76.8005 40.9896 77.3293 42.4737C77.5232 44.2228 79.8323 45.6009 80.8547 46.9437C85.5435 51.7317 89.7035 57.0497 93.2817 62.7034C98.9576 71.9613 103.4 82.4207 103.928 93.3748C104.14 102.297 100.95 111.007 96.1902 118.428C93.8811 121.626 91.378 124.293 88.3638 126.979C84.3096 124.028 78.8981 123.18 73.9801 122.951C60.7599 122.668 50.2013 129.382 42.9742 140.159C40.4712 135.477 39.9776 129.718 36.3464 125.636C32.1159 120.265 26.6868 121.802 24.1133 126.396C22.7384 121.431 22.3858 116.184 22.2096 111.06C21.9452 97.297 26.3167 83.9401 32.1865 71.6433C34.6895 66.3253 37.5451 61.1663 40.4712 56.0779C44.1728 49.5055 48.421 41.926 46.4291 34.1168C45.2305 29.5585 41.1057 26.237 36.4875 25.6539C29.9655 24.5762 24.1485 28.8165 19.8828 33.3041C10.9106 42.7034 5.95743 55.1415 3.13711 67.668C-2.09812 89.8589 -1.28728 114.417 9.3242 134.947C13.9777 143.498 19.8123 151.431 26.5634 158.445C30.8997 162.933 35.2359 167.456 39.1315 172.35C40.4712 174.099 42.0752 176.308 42.9918 178.569C42.1105 177.491 41.2644 176.396 40.383 175.548C39.1315 174.17 37.7742 172.88 36.2054 171.873C31.8163 169.205 25.6997 170.23 24.2367 175.672C23.3906 178.816 24.2895 182.173 25.5587 185.089C27.9912 190.707 31.358 195.866 35.2536 200.583C40.0834 207.014 46.1999 212.368 53.3036 216.096C62.1524 219.664 67.5815 219.771 71.9002 220.053C100.086 221.767 126.914 207.403 147.238 188.728C164.601 173.216 177.345 152.951 182.245 129.983C184.625 120.106 185.771 110 185.506 99.8235ZM80.6608 40.6716C80.6432 40.6716 80.6432 40.6539 80.6255 40.6539H80.6432C80.7137 40.6893 80.8018 40.7423 80.8723 40.7776C80.8723 40.7776 80.8723 40.7776 80.8547 40.7776C80.8547 40.7776 80.8547 40.7776 80.8723 40.7776C80.9076 40.7953 80.9252 40.8306 80.9604 40.8483C80.8723 40.7953 80.7665 40.7246 80.6608 40.6716ZM23.038 148.18C18.173 141.997 13.8015 135.336 10.5933 128.127C6.78591 118.852 4.77642 108.993 4.26524 99.0285C5.23473 97.297 11.2455 86.7847 15.2821 81.7847C19.6889 76.3253 25.6292 65.9189 23.4787 54.5762C21.998 46.8023 20.3235 42.297 19.4069 40.2299C20.535 38.7458 21.7513 37.3147 23.0557 35.9543C25.5411 33.5514 28.2204 31.0603 31.6224 30.0709C34.6366 29.1345 38.162 29.7352 40.5064 31.8907C44.0847 35.4772 42.8861 41.131 41.2467 45.3889C38.7085 51.5903 34.8834 57.1557 31.8339 63.1097C24.6773 76.714 18.8075 91.449 18.1377 106.979C17.9791 115.672 18.4021 124.859 22.1038 132.845C22.2448 133.057 22.3858 133.216 22.5445 133.357C22.5621 138.622 24.8889 143.746 27.6034 148.18C31.5343 154.417 36.4874 159.947 39.9247 166.502C40.0657 166.749 40.1891 167.014 40.3125 167.262C34.8129 160.689 28.4143 154.894 23.038 148.18ZM174.454 142.12C168.99 157.438 159.577 171.131 147.908 182.385C138.83 181.043 111.438 177.633 94.9916 182.862C78.5279 188.092 61.7822 206.714 56.4765 213.021C52.528 211.025 48.7206 208.693 45.4596 205.689C42.1457 202.686 39.343 199.187 36.6285 195.636C33.0149 190.778 29.4543 185.477 28.1146 179.488C27.1275 173.693 32.4509 173.357 35.7471 176.714C39.0257 179.717 41.282 183.993 45.4067 185.954C52.0345 189.046 57.6223 182.527 62.5931 179.046C68.7449 174.435 75.4432 170.336 82.776 167.898C90.8845 165.53 99.8919 166.502 107.348 170.477C110.327 172.12 113.306 173.922 115.598 176.484C116.408 177.456 116.532 178.781 118.101 178.816C119.299 178.887 120.322 177.792 120.216 176.608C120.11 175.265 118.859 173.852 117.889 172.862C110.045 165.495 99.0282 161.59 88.2933 162.65C77.0472 163.816 67.1937 170.424 58.3802 177.12C55.648 179.099 53.0392 181.679 49.743 182.633C49.5667 182.65 49.3904 182.65 49.2142 182.65C48.8616 178.887 47.9626 175.177 46.6935 171.608C43.8379 163.375 38.4793 156.449 33.4203 149.488C30.7939 145.76 28.1675 141.467 27.1275 136.891C26.3343 133.657 26.2814 127.191 30.4061 126.378C34.6719 127.668 36.082 133.887 37.4746 137.633C38.303 139.859 38.9024 142.527 41.0352 143.887C42.6922 144.947 44.9484 144.329 46.1647 142.88C48.8969 139.223 51.6291 135.46 55.4189 132.809C62.1348 128.004 70.7544 126.078 78.8805 127.615C81.7537 128.074 84.4153 129.24 86.7774 130.866C86.7069 130.778 86.6364 130.689 86.5658 130.601C86.5306 130.548 86.513 130.495 86.4777 130.442C86.5658 130.601 86.6716 130.742 86.795 130.884C87.0594 131.06 87.3238 131.255 87.5706 131.449C88.3638 131.767 89.1394 131.555 89.6682 131.078C91.2723 130.513 93.035 128.163 94.2512 127.138C100.333 121.219 104.369 113.428 106.625 105.301C112.178 84.4172 100.227 62.668 86.8479 47.297C85.9665 46.29 85.0323 45.3182 84.0981 44.3642C83.5516 43.7988 82.9699 43.2864 82.4411 42.7034C82.1062 42.3324 80.8371 41.131 81.4893 40.6539C82.9523 39.5408 85.4025 40.2122 86.9889 40.6186C89.9855 41.3783 92.8587 42.5797 95.6966 43.7988C96.8424 44.2935 98.0058 44.7882 99.1515 45.2652C99.9624 45.6009 100.808 46.0073 101.672 46.2193C105.339 47.5444 108.37 44.1168 111.05 42.1027C114.522 39.2405 117.96 36.3606 121.45 33.5338C123.195 32.138 124.993 30.7423 126.861 29.3465C127.073 29.1698 127.302 28.9931 127.549 28.8341C127.549 28.8341 145.334 38.5514 158.96 29.9295C164.001 37.1027 168.091 44.9825 171.334 53.1097C175.036 62.8977 178.226 72.9507 180.06 83.2688C180.412 85.4066 180.712 87.5444 180.959 89.6998C181.188 90.6892 180.994 91.9083 181.258 92.9154C181.258 93.0214 181.258 93.1451 181.258 93.2511C181.364 96.2369 181.399 99.2405 181.435 102.226C181.54 115.742 178.843 129.293 174.454 142.12Z" fill="white"/>
<path d="M152.104 39.8233C153.462 39.0989 155.136 38.9046 154.907 36.8904C154.114 33.8339 150.941 35.636 149.213 36.7138C146.71 38.2862 144.454 40.265 142.621 42.5971C140.453 45.3887 139.095 48.7809 138.602 52.2791C138.443 53.3922 139.36 54.4346 140.435 54.5583C142.991 54.7703 142.674 51.7668 143.308 50.0883C143.89 48.2155 144.824 46.4664 146.041 44.9293C147.715 42.8622 149.795 41.1307 152.104 39.8233Z" fill="white"/>
<path d="M121.785 62.0502C123.319 62.9866 125.328 61.2905 124.729 59.6121C124.147 57.7746 118.559 55.8135 116.673 55.7958C112.513 55.6368 108.371 57.1916 104.969 59.5414C103.964 60.3188 102.572 61.0962 102.589 62.5273C102.554 64.3647 105.11 65.2481 106.203 63.817C107.613 62.5803 109.27 61.6792 110.997 60.9902C114.999 59.3117 118.154 59.6651 121.785 62.0502ZM106.467 63.4637C106.397 63.5873 106.309 63.711 106.22 63.817C106.397 63.605 106.52 63.3753 106.608 63.1103C106.573 63.234 106.52 63.34 106.467 63.4637Z" fill="white"/>
<path d="M87.2714 70.3359C91.6253 73.2157 91.5372 68.3571 90.3562 66.6786C80.8728 46.6786 52.2289 51.4136 42.111 68.4631C30.4771 86.2016 41.1944 113.481 63.1048 115.283C77.6647 116.502 91.2375 109.223 95.327 94.6468C96.0497 92.6504 97.0544 89.4172 94.287 88.5868C92.0836 88.0744 90.1623 89.7528 88.3819 90.7776C83.8165 93.7988 78.3698 97.2617 72.7291 95.1769C69.7149 94.0638 67.5115 91.5373 65.7488 88.9401C62.6817 84.2581 63.5455 77.9154 67.3353 73.9048C72.1651 68.3394 80.7671 67.297 87.2714 70.3359Z" fill="#FF87F3"/>
<path d="M132.925 60.353C130.123 61.7664 131.233 64.4696 133.595 65.618C134.618 66.1834 135.71 66.5544 136.786 67.0138C137.403 67.2611 137.984 67.6322 138.672 67.6852C142.497 67.5615 141.721 62.2258 141.422 59.611C140.258 55.1763 135.27 59.1339 132.925 60.353Z" fill="#FF87F3"/>
</g>
<path d="M309.242 47.5668C309.242 54.6455 306.681 60.7456 301.559 65.8674C296.438 70.9408 290.338 73.4775 283.259 73.4775C276.156 73.4775 270.056 70.9408 264.958 65.8674C259.837 60.7456 257.276 54.6455 257.276 47.5668C257.276 40.5124 259.837 34.4243 264.958 29.3025C270.08 24.1808 276.18 21.6199 283.259 21.6199C290.338 21.6199 296.438 24.1808 301.559 29.3025C306.681 34.4243 309.242 40.5124 309.242 47.5668ZM301.813 47.5668C301.813 42.4934 299.989 38.1327 296.341 34.4847C292.693 30.8366 288.332 29.0126 283.259 29.0126C278.185 29.0126 273.825 30.8366 270.177 34.4847C266.529 38.1327 264.705 42.4934 264.705 47.5668C264.705 52.6403 266.529 57.001 270.177 60.649C273.825 64.297 278.185 66.1211 283.259 66.1211C288.332 66.1211 292.693 64.297 296.341 60.649C299.989 57.001 301.813 52.6403 301.813 47.5668ZM341.712 50.6834C341.712 48.1708 340.794 45.9965 338.958 44.1604C337.122 42.3243 334.947 41.4063 332.435 41.4063C329.922 41.4063 327.748 42.3243 325.912 44.1604C324.076 45.9965 323.158 48.1708 323.158 50.6834V72.8615H315.729V50.6834C315.729 46.2622 317.408 42.3726 320.766 39.0145C324.124 35.6564 328.014 33.9773 332.435 33.9773C336.832 33.9773 340.709 35.6564 344.067 39.0145C347.45 42.3968 349.141 46.2864 349.141 50.6834V72.8615H341.712V50.6834ZM395.236 68.6215C395.236 73.9849 393.28 78.5992 389.366 82.4647C385.476 86.3785 380.826 88.3354 375.414 88.3354C372.056 88.3354 368.867 87.4777 365.847 85.7624C364.325 84.9169 362.96 83.9143 361.752 82.7546C360.568 81.6191 359.493 80.3266 358.527 78.8771L364.796 74.7821C367.502 78.865 371.041 80.9064 375.414 80.9064C379.086 80.9064 382.021 79.6985 384.22 77.2826C386.273 75.0116 387.445 72.04 387.735 68.3679C384.063 71.7743 379.75 73.4775 374.798 73.4775C369.483 73.4775 364.953 71.5327 361.208 67.6431C357.488 63.7776 355.628 59.1511 355.628 53.7637C355.628 48.352 357.572 43.7014 361.462 39.8118C365.424 35.9221 370.075 33.9773 375.414 33.9773C380.826 33.9773 385.476 35.9221 389.366 39.8118C393.28 43.7014 395.236 48.352 395.236 53.7637V68.6215ZM387.808 53.7637C387.808 50.4055 386.588 47.5064 384.147 45.0664C381.707 42.6263 378.796 41.4063 375.414 41.4063C372.032 41.4063 369.12 42.6263 366.68 45.0664C364.264 47.4823 363.057 50.3814 363.057 53.7637C363.057 57.1701 364.264 60.0813 366.68 62.4972C369.096 64.9131 372.007 66.1211 375.414 66.1211C378.82 66.1211 381.732 64.9131 384.147 62.4972C386.588 60.0571 387.808 57.1459 387.808 53.7637ZM278.62 147.861H271.191V104.629H255.754V97.236H294.094V104.629H278.62V147.861ZM300.617 109.593H308.01V147.861H300.617V109.593ZM300.617 97.236H308.01V104.629H300.617V97.236ZM343.596 125.683C343.596 123.171 342.678 120.996 340.842 119.16C339.006 117.324 336.832 116.406 334.319 116.406C331.807 116.406 329.632 117.324 327.796 119.16C325.96 120.996 325.042 123.171 325.042 125.683V147.861H317.613V125.683C317.613 121.262 319.292 117.373 322.65 114.015C326.008 110.656 329.898 108.977 334.319 108.977C338.716 108.977 342.594 110.656 345.952 114.015C349.334 117.397 351.025 121.286 351.025 125.683V147.861H343.596V125.683ZM360.629 109.593H368.021V147.861H360.629V109.593ZM360.629 97.236H368.021V104.629H360.629V97.236ZM415.675 128.256C415.627 133.885 413.718 138.657 409.949 142.571C406.181 146.509 401.506 148.478 395.925 148.478C390.417 148.478 385.73 146.581 381.864 142.788C377.999 138.995 376.066 134.344 376.066 128.836C376.066 123.376 377.987 118.701 381.828 114.812C385.669 110.922 390.332 108.977 395.816 108.977C399.827 108.977 403.487 110.089 406.797 112.311C410.106 114.534 412.583 117.518 414.226 121.262L388.025 138.294C390.368 140.179 393.002 141.121 395.925 141.121C399.452 141.121 402.363 139.865 404.659 137.352C406.954 134.84 408.125 131.808 408.174 128.256H415.675ZM403.716 119.233C401.349 117.348 398.715 116.406 395.816 116.406C392.386 116.406 389.475 117.626 387.083 120.066C384.691 122.506 383.495 125.43 383.495 128.836C383.495 129.754 383.664 130.817 384.002 132.025L403.716 119.233ZM465.177 133.402C465.177 137.34 463.74 140.747 460.865 143.622C457.99 146.448 454.583 147.861 450.645 147.861H423.756V97.236H449.413C453.351 97.236 456.758 98.6735 459.633 101.548C462.508 104.423 463.945 107.83 463.945 111.768C463.945 116.165 462.194 119.644 458.69 122.204C463.015 124.717 465.177 128.45 465.177 133.402ZM457.748 133.402C457.748 131.469 457.048 129.802 455.646 128.401C454.245 127 452.578 126.299 450.645 126.299H431.149V140.505H450.645C452.554 140.505 454.209 139.804 455.61 138.403C457.036 136.978 457.748 135.311 457.748 133.402ZM456.516 111.768C456.516 109.811 455.816 108.132 454.414 106.731C453.013 105.329 451.346 104.629 449.413 104.629H431.149V118.87H449.413C451.346 118.87 453.013 118.17 454.414 116.769C455.816 115.367 456.516 113.7 456.516 111.768ZM476.375 109.593H483.768V147.861H476.375V109.593ZM476.375 97.236H483.768V104.629H476.375V97.236ZM510.693 116.406C507.939 116.406 505.607 117.288 503.699 119.052C501.766 120.791 500.8 123.002 500.8 125.683V147.861H493.371V125.683C493.371 121.093 495.098 117.179 498.553 113.942C502.032 110.681 506.079 109.026 510.693 108.977V116.406ZM553.672 128.764C553.672 134.175 551.727 138.826 547.838 142.716C543.948 146.557 539.285 148.478 533.849 148.478C528.39 148.478 523.727 146.557 519.861 142.716C515.996 138.85 514.063 134.199 514.063 128.764C514.063 123.352 515.923 118.713 519.644 114.848C523.364 110.934 527.894 108.977 533.233 108.977C538.259 108.977 542.595 110.729 546.243 114.232V97.236H553.672V128.764ZM546.243 128.764C546.243 125.406 545.023 122.506 542.583 120.066C540.143 117.626 537.232 116.406 533.849 116.406C530.467 116.406 527.556 117.626 525.116 120.066C522.7 122.482 521.492 125.381 521.492 128.764C521.492 132.17 522.7 135.081 525.116 137.497C527.532 139.913 530.443 141.121 533.849 141.121C537.256 141.121 540.167 139.913 542.583 137.497C545.023 135.057 546.243 132.146 546.243 128.764ZM299.204 188.109C297.392 185.354 295.085 183.156 292.282 181.513C289.48 179.846 286.472 179.013 283.259 179.013C278.185 179.013 273.825 180.837 270.177 184.485C266.529 188.133 264.705 192.493 264.705 197.567C264.705 202.64 266.529 207.001 270.177 210.649C273.825 214.297 278.185 216.121 283.259 216.121C286.472 216.121 289.504 215.275 292.355 213.584C295.109 211.99 297.38 209.828 299.168 207.098L305.401 211.193C302.985 214.961 299.784 217.957 295.797 220.18C291.932 222.378 287.753 223.478 283.259 223.478C276.156 223.478 270.056 220.941 264.958 215.867C259.837 210.746 257.276 204.645 257.276 197.567C257.276 190.512 259.837 184.424 264.958 179.303C270.08 174.181 276.18 171.62 283.259 171.62C287.68 171.62 291.908 172.743 295.942 174.99C299.784 177.237 302.961 180.269 305.473 184.086L299.204 188.109ZM342.364 218.295C338.692 221.75 334.355 223.478 329.355 223.478C324.04 223.478 319.51 221.533 315.765 217.643C312.045 213.778 310.184 209.151 310.184 203.764C310.184 198.328 312.117 193.677 315.982 189.812C319.872 185.922 324.535 183.977 329.971 183.977C335.406 183.977 340.069 185.922 343.959 189.812C347.848 193.701 349.793 198.352 349.793 203.764V222.861H342.364V218.295ZM342.364 203.764C342.364 200.406 341.144 197.506 338.704 195.066C336.264 192.626 333.353 191.406 329.971 191.406C326.588 191.406 323.677 192.626 321.237 195.066C318.821 197.482 317.613 200.381 317.613 203.764C317.613 207.17 318.821 210.081 321.237 212.497C323.653 214.913 326.564 216.121 329.971 216.121C333.377 216.121 336.288 214.913 338.704 212.497C341.144 210.057 342.364 207.146 342.364 203.764ZM368.347 222.861H360.918V192.022H354.758V184.593H360.918V172.236H368.347V184.593H374.544V192.022H368.347V222.861ZM403.934 212.171C403.934 215.312 402.798 217.981 400.527 220.18C398.256 222.378 395.563 223.478 392.446 223.478C389.692 223.478 387.276 222.62 385.198 220.905C383.121 219.165 381.78 216.918 381.176 214.164L388.351 212.244C388.834 214.829 390.199 216.121 392.446 216.121C393.509 216.121 394.463 215.735 395.309 214.961C396.155 214.164 396.577 213.234 396.577 212.171C396.577 210.407 395.236 208.946 392.555 207.786C388.23 205.853 385.742 204.633 385.09 204.126C382.408 202.145 381.067 199.258 381.067 195.465C381.067 192.373 382.191 189.679 384.437 187.384C386.708 185.113 389.414 183.977 392.555 183.977C395.333 183.977 397.749 184.859 399.803 186.623C401.784 188.314 403.1 190.549 403.753 193.327L396.505 195.211C395.949 192.675 394.633 191.406 392.555 191.406C391.468 191.406 390.513 191.817 389.692 192.638C388.871 193.46 388.46 194.402 388.46 195.465C388.46 197.204 389.801 198.666 392.482 199.85C394.608 200.768 396.275 201.541 397.483 202.169C398.715 202.773 399.525 203.22 399.911 203.51C402.593 205.539 403.934 208.426 403.934 212.171Z" fill="white"/>
<defs>
<clipPath id="clip0_452_1675">
<rect width="185.542" height="220.177" fill="white"/>
</clipPath>
</defs>
</svg>
