<svg width="74" height="87" viewBox="0 0 74 87" fill="none" xmlns="http://www.w3.org/2000/svg">
<path d="M9.06534 60.2713C7.14575 57.8314 5.42089 55.2033 4.15507 52.3591C2.65278 48.6992 1.8599 44.8093 1.6582 40.8776C2.04769 40.1944 4.41241 36.0465 6.00512 34.0737C7.74388 31.9196 10.0877 27.8136 9.23922 23.3381C8.65499 20.2708 7.99426 18.4931 7.6326 17.6775C8.07772 17.0919 8.55762 16.5273 9.0723 15.9905C10.053 15.0424 11.1101 14.0595 12.4525 13.6691C13.6418 13.2996 15.0328 13.5366 15.9578 14.3871C17.3697 15.8023 16.8967 18.0331 16.2499 19.7131C15.2484 22.16 13.7391 24.3559 12.5359 26.7052C9.71216 32.073 7.39613 37.8869 7.13184 44.0146C7.06924 47.4444 7.23616 51.0694 8.69672 54.2204C8.75237 54.304 8.80801 54.3668 8.8706 54.4225C8.87756 56.4999 9.79562 58.5216 10.8667 60.2713C12.4177 62.7322 14.3721 64.9141 15.7283 67.5004C15.7839 67.598 15.8326 67.7026 15.8813 67.8002C13.7113 65.2069 11.1866 62.9204 9.06534 60.2713Z" fill="white"/>
<path d="M68.8091 57.8803C66.653 63.9243 62.939 69.3269 58.3347 73.7676C54.7529 73.2377 43.9447 71.8923 37.4556 73.9558C30.9596 76.0192 24.3523 83.3668 22.2588 85.8556C20.7009 85.0678 19.1986 84.1476 17.9119 82.9625C16.6044 81.7774 15.4985 80.3971 14.4274 78.9959C13.0016 77.0789 11.5967 74.9875 11.0681 72.6243C10.6787 70.3377 12.7791 70.2053 14.0797 71.5298C15.3733 72.7149 16.2636 74.4019 17.8911 75.1757C20.5062 76.3957 22.7109 73.8233 24.6722 72.45C27.0996 70.6305 29.7425 69.0132 32.6358 68.0512C35.8421 67.1171 39.3892 67.5005 42.3311 69.069C43.5066 69.7173 44.682 70.4284 45.5861 71.4392C45.906 71.8226 45.9547 72.3454 46.5737 72.3594C47.0467 72.3873 47.4501 71.955 47.4083 71.488C47.3666 70.9582 46.8728 70.4005 46.4903 70.0101C43.3953 67.1031 39.0484 65.5625 34.8127 65.9808C30.3754 66.4409 26.4875 69.0481 23.01 71.6901C21.932 72.4709 20.9026 73.4887 19.602 73.8652C19.5325 73.8721 19.4629 73.8721 19.3934 73.8721C19.2543 72.3873 18.8995 70.9233 18.3988 69.5151C17.2721 66.2666 15.1577 63.5339 13.1616 60.7872C12.1253 59.3163 11.089 57.6223 10.6787 55.8168C10.3657 54.5411 10.3448 51.9896 11.9723 51.669C13.6554 52.1779 14.2118 54.6317 14.7613 56.1096C15.0882 56.988 15.3246 58.0406 16.1662 58.5774C16.82 58.9956 17.7102 58.7517 18.1901 58.18C19.2682 56.744 20.3462 55.2521 21.8415 54.2065C24.4914 52.3103 27.8924 51.5504 31.0987 52.1569C32.2324 52.3382 33.2826 52.7983 34.2146 53.4396C34.1868 53.4048 34.1589 53.3699 34.1311 53.3351C34.1172 53.3142 34.1103 53.2932 34.0964 53.2723C34.1311 53.3351 34.1729 53.3908 34.2215 53.4466C34.3259 53.5163 34.4302 53.593 34.5276 53.6697C34.8405 53.7952 35.1466 53.7115 35.3552 53.5233C35.9881 53.3002 36.6836 52.373 37.1635 51.9687C39.563 49.6334 41.1557 46.5591 42.046 43.3524C44.2368 35.1124 39.5213 26.5309 34.2424 20.466C33.8947 20.0687 33.526 19.6853 33.1574 19.3088C32.9418 19.0857 32.7123 18.8836 32.5036 18.6535C32.3715 18.5071 31.8707 18.0331 32.1281 17.8449C32.7053 17.4127 33.6721 17.6706 34.298 17.8309C35.4804 18.1307 36.6141 18.6047 37.7339 19.0857C38.1859 19.2809 38.645 19.4761 39.097 19.6643C39.417 19.7968 39.7508 19.9571 40.0916 20.0408C41.5383 20.5636 42.7345 19.2112 43.7917 18.4165C45.1619 17.2872 46.5181 16.1509 47.8952 15.0355C48.5837 14.4848 49.2932 13.934 50.0304 13.3833C50.1139 13.3136 50.2043 13.2439 50.3016 13.1812C50.3016 13.1812 57.3193 17.0153 62.6956 13.6134C64.6847 16.4437 66.2983 19.5528 67.578 22.7595C69.0386 26.6216 70.2975 30.5882 71.0208 34.6593C71.1599 35.5028 71.2781 36.3463 71.3755 37.1968C71.4659 37.5872 71.3894 38.0682 71.4937 38.4656C71.4937 38.5074 71.4937 38.5562 71.4937 38.598C71.5355 39.7761 71.5494 40.9612 71.5633 42.1394C71.605 47.4723 70.5409 52.8192 68.8091 57.8803Z" fill="white"/>
<path d="M34.2496 51.6271L34.2427 51.6201C34.2635 51.641 34.2775 51.6619 34.2983 51.6759C34.2775 51.6689 34.2635 51.648 34.2496 51.6271Z" fill="#53248F"/>
<path d="M47.3878 37.5664C46.6297 37.5315 45.5725 37.664 45.7881 38.6748C46.0663 39.574 47.047 39.114 47.7216 39.2046C50.4202 39.2882 52.6597 41.1914 53.5013 43.7149C54.1689 45.5971 54.0855 47.6327 54.0159 49.5986C53.8977 52.1431 53.3552 54.7991 51.7694 56.8556C51.5956 57.0577 51.4147 57.239 51.227 57.3993C51.2409 56.2142 50.9835 54.5481 50.914 53.9625C50.6079 52.9935 49.1822 53.3142 49.3282 54.3181C49.4951 55.5589 49.6273 56.8068 49.5716 58.0546C49.5716 58.1034 49.5716 58.1452 49.5786 58.1871C49.1404 58.2707 48.6953 58.2637 48.2641 58.1592C48.3615 56.7859 48.3476 55.4125 48.2502 54.0462C48.2224 53.0563 46.7966 52.9587 46.6366 53.9277C46.6088 54.4505 46.7062 54.9873 46.6992 55.5171C46.7131 56.1097 46.7131 56.6952 46.6922 57.2878C46.4001 57.0089 46.1428 56.6673 45.9272 56.263C45.2595 55.0012 45.2595 53.5373 45.2873 52.15C45.3638 50.1423 45.5586 48.1207 45.3082 46.113C45.1343 45.0534 43.5764 45.2904 43.6946 46.35C43.938 48.2671 43.7224 50.2051 43.6598 52.1221C43.5694 54.2065 43.785 56.4791 45.2317 58.1034C45.9967 58.9678 47.0191 59.6301 48.1667 59.8183C51.4495 60.383 53.7934 57.6015 54.7114 54.7433C55.4626 52.7008 55.6573 50.5048 55.6851 48.3438C55.6921 47.1935 55.6782 46.0363 55.4904 44.9C54.8227 40.787 51.679 37.5385 47.3878 37.5664Z" fill="#53248F"/>
<path d="M69.6301 43.9657C68.6216 43.4777 68.2739 44.8232 67.9192 45.4924C66.9941 47.5837 66.8342 49.8982 66.4099 52.122C66.1108 53.7184 65.6588 55.3148 64.7685 56.6881C64.7407 56.7369 64.7059 56.7787 64.6781 56.8275C64.6572 56.0746 64.6433 55.3148 64.6155 54.5619C64.6016 54.1715 64.5599 53.7881 64.546 53.3977C64.5738 53.1816 64.5112 52.9515 64.3721 52.7773C63.8713 52.1499 62.8628 52.5821 62.9185 53.3698C63.0158 54.9314 63.0367 56.4999 63.0854 58.0684C63.0854 58.1172 63.0923 58.166 63.0993 58.2078C62.6333 58.403 62.1534 58.4448 61.6805 58.3193C61.7083 58.2357 61.7222 58.1451 61.7152 58.0475C61.6735 56.8902 61.6805 55.733 61.6666 54.5758C61.6596 54.2064 61.6735 53.8508 61.6526 53.4813C61.4788 52.4775 60.0182 52.6169 60.0321 53.6208C60.0391 54.764 60.046 55.9073 60.0599 57.0506C58.1682 54.297 58.7802 48.6782 59.3018 45.4854C59.7609 42.7318 60.7346 39.9364 62.8559 38.0263C63.8991 37.0573 65.1858 36.151 66.6464 36.0604C67.5575 36.1859 68.0026 34.7917 66.9524 34.464C63.4331 34.2409 59.8374 38.2424 58.7246 41.3446C57.5492 44.5792 57.1666 48.0648 57.1875 51.4946C57.1458 54.778 57.9804 59.3023 61.7778 60.0203C63.6348 60.2643 65.311 58.9537 66.2291 57.434C67.8009 54.9732 68.0583 51.9965 68.559 49.1801C68.7607 48.0857 69.025 46.9912 69.491 45.9804C69.7831 45.3181 70.4925 44.5025 69.6301 43.9657Z" fill="#53248F"/>
<path d="M73.1976 39.386C73.1837 38.3473 73.1628 37.3016 73.1211 36.2629C73.1211 36.1932 73.1141 36.1235 73.1141 36.0538C73.1141 36.005 73.1072 35.9562 73.1072 35.9144C73.1141 35.8168 73.0932 35.7261 73.0654 35.6425C73.0237 35.3358 72.975 35.043 72.9681 34.799C72.5508 31.2367 71.6327 27.7511 70.5338 24.3422C68.6907 18.6816 66.1312 13.1396 62.3059 8.5386C60.7758 6.71913 52.3532 -2.16911 50.1972 0.493879C49.6825 1.23979 50.0928 5.56889 50.1415 6.85158C50.1554 7.70903 50.2876 8.57346 50.1833 9.43091C48.2289 10.8809 46.4414 12.2821 44.5427 13.8715C43.3534 14.8057 42.2615 15.9141 40.94 16.667C40.7522 16.7785 40.5575 16.6461 40.3766 16.5833C39.8689 16.3812 39.3612 16.172 38.8535 15.9559C36.7183 15.1752 32.733 12.9862 30.8343 15.0009C30.4239 15.447 30.3057 16.172 30.5144 16.7576C30.5909 17.4478 31.502 17.9915 31.9054 18.5213C33.7554 20.4105 35.3968 22.5088 36.8087 24.7396C39.0482 28.3925 40.8009 32.5194 41.0095 36.8415C41.093 40.362 39.8341 43.7988 37.9563 46.7266C37.0452 47.9884 36.0575 49.0411 34.8682 50.1007C33.2686 48.9365 31.1334 48.6019 29.1929 48.5113C23.9766 48.3997 19.8105 51.0488 16.9589 55.3012C15.9713 53.4538 15.7766 51.1812 14.3438 49.5709C12.6746 47.4516 10.5325 48.0581 9.51702 49.8706C8.97453 47.9117 8.83543 45.8413 8.76588 43.8197C8.66155 38.3891 10.3864 33.1189 12.7024 28.267C13.6901 26.1687 14.8168 24.1331 15.9713 22.1254C17.4319 19.5321 19.1081 16.5415 18.3221 13.4602C17.8492 11.6617 16.2217 10.3511 14.3995 10.1211C11.8261 9.69582 9.53093 11.3689 7.84781 13.1396C4.30768 16.8482 2.35331 21.7559 1.2405 26.6985C-0.825153 35.4543 -0.50522 45.1442 3.68173 53.2447C5.51786 56.6187 7.81999 59.7488 10.4838 62.5163C12.1947 64.287 13.9057 66.0716 15.4427 68.0026C15.9713 68.6928 16.6042 69.5642 16.9659 70.4565C16.6181 70.0312 16.2843 69.599 15.9365 69.2644C15.4427 68.7207 14.9072 68.2118 14.2882 67.8144C12.5564 66.7618 10.143 67.1661 9.56571 69.3132C9.23187 70.5541 9.58657 71.8786 10.0873 73.0288C11.0471 75.2457 12.3756 77.2812 13.9126 79.1426C15.8183 81.6801 18.2317 83.7923 21.0346 85.2632C24.526 86.6714 26.6682 86.7132 28.3722 86.8248C39.4933 87.501 50.0789 81.8334 58.0981 74.4649C64.9489 68.3442 69.9774 60.3483 71.9109 51.2858C72.8498 47.3889 73.3019 43.4014 73.1976 39.386ZM31.8289 16.0465C31.8219 16.0465 31.8219 16.0396 31.815 16.0396H31.8219C31.8497 16.0535 31.8845 16.0744 31.9123 16.0884C31.9123 16.0884 31.9123 16.0884 31.9054 16.0884C31.9054 16.0884 31.9054 16.0884 31.9123 16.0884C31.9262 16.0953 31.9332 16.1093 31.9471 16.1163C31.9123 16.0953 31.8706 16.0675 31.8289 16.0465ZM9.09276 58.4661C7.17317 56.0262 5.44831 53.398 4.18249 50.5538C2.6802 46.8939 1.88732 43.004 1.68562 39.0723C2.06815 38.3891 4.43983 34.2413 6.03254 32.2684C7.7713 30.1144 10.1152 26.0083 9.26664 21.5329C8.68242 18.4655 8.02169 16.6879 7.66002 15.8723C8.10515 15.2867 8.58504 14.722 9.09972 14.1852C10.0804 13.2372 11.1376 12.2542 12.4799 11.8638C13.6692 11.4944 15.0602 11.7314 15.9852 12.5819C17.3971 13.997 16.9242 16.2278 16.2773 17.9078C15.2758 20.3547 13.7666 22.5506 12.5633 24.8999C9.73958 30.2677 7.42355 36.0817 7.15926 42.2093C7.09666 45.6391 7.26358 49.2641 8.72415 52.4151C8.77979 52.4988 8.83543 52.5615 8.89802 52.6173C8.90498 54.6947 9.82305 56.7163 10.8941 58.4661C12.4451 60.9269 14.3995 63.1089 15.7557 65.6952C15.8114 65.7928 15.86 65.8973 15.9087 65.9949C13.7387 63.4017 11.2141 61.1151 9.09276 58.4661ZM68.8367 56.075C66.6807 62.119 62.9667 67.5216 58.3624 71.9623C54.7806 71.4324 43.9724 70.087 37.4833 72.1505C30.9873 74.2139 24.38 81.5615 22.2865 84.0503C20.7286 83.2625 19.2263 82.3423 17.9396 81.1572C16.6321 79.9721 15.5262 78.5918 14.4551 77.1906C13.0293 75.2736 11.6244 73.1822 11.0958 70.819C10.7063 68.5324 12.8068 68.4 14.1074 69.7245C15.401 70.9096 16.2913 72.5966 17.9187 73.3704C20.5338 74.5904 22.7386 72.018 24.6999 70.6447C27.1272 68.8252 29.7702 67.2079 32.6635 66.2459C35.8628 65.3118 39.4168 65.6952 42.3588 67.2637C43.5342 67.912 44.7096 68.6231 45.6138 69.6339C45.9337 70.0173 45.9824 70.5401 46.6014 70.5541C47.0744 70.582 47.4777 70.1497 47.436 69.6827C47.3943 69.1529 46.9005 68.5952 46.5179 68.2048C43.4229 65.2978 39.076 63.7572 34.8404 64.1755C30.4031 64.6356 26.5152 67.2428 23.0377 69.8848C21.9596 70.6656 20.9303 71.6834 19.6297 72.0599C19.5601 72.0668 19.4906 72.0668 19.421 72.0668C19.2819 70.582 18.9272 69.118 18.4265 67.7098C17.2997 64.4613 15.1854 61.7286 13.1893 58.9819C12.153 57.511 11.1167 55.817 10.7063 54.0115C10.3934 52.7358 10.3725 50.1843 12 49.8637C13.6831 50.3726 14.2395 52.8264 14.789 54.3043C15.1158 55.1827 15.3523 56.2353 16.1939 56.7721C16.8477 57.1904 17.7379 56.9464 18.2178 56.3747C19.2958 54.9317 20.3739 53.4468 21.8692 52.4012C24.5191 50.505 27.9201 49.7452 31.1264 50.3516C32.2601 50.5329 33.3103 50.993 34.2423 51.6343C34.2144 51.5995 34.1866 51.5646 34.1588 51.5298C34.1449 51.5089 34.1379 51.4879 34.124 51.467C34.1588 51.5298 34.2005 51.5855 34.2492 51.6413C34.3535 51.711 34.4579 51.7877 34.5552 51.8644C34.8682 51.9899 35.1742 51.9062 35.3829 51.718C36.0158 51.4949 36.7113 50.5678 37.1912 50.1634C39.5907 47.8281 41.1834 44.7538 42.0737 41.5471C44.2645 33.3071 39.549 24.7256 34.2701 18.6607C33.9223 18.2634 33.5537 17.88 33.1851 17.5035C32.9695 17.2804 32.74 17.0783 32.5313 16.8482C32.3992 16.7018 31.8984 16.2278 32.1558 16.0396C32.733 15.6004 33.6998 15.8653 34.3257 16.0256C35.5081 16.3254 36.6418 16.7994 37.7615 17.2804C38.2136 17.4756 38.6726 17.6708 39.1247 17.8591C39.4447 17.9915 39.7785 18.1518 40.1193 18.2355C41.5659 18.7583 42.7622 17.4059 43.8194 16.6112C45.1895 15.4819 46.5458 14.3456 47.9229 13.2302C48.6114 12.6795 49.3208 12.1288 50.0581 11.578C50.1415 11.5083 50.232 11.4386 50.3293 11.3759C50.3293 11.3759 57.347 15.21 62.7232 11.8081C64.7124 14.6384 66.326 17.7475 67.6057 20.9542C69.0663 24.8163 70.3251 28.7829 71.0485 32.854C71.1876 33.6975 71.3058 34.541 71.4032 35.3915C71.4936 35.7819 71.4171 36.2629 71.5214 36.6603C71.5214 36.7021 71.5214 36.7509 71.5214 36.7927C71.5631 37.9709 71.577 39.156 71.591 40.3341C71.6327 45.667 70.5686 51.0139 68.8367 56.075Z" fill="#53248F"/>
<path d="M60.0183 15.7119C60.5538 15.4261 61.2145 15.3494 61.1241 14.5547C60.8111 13.3487 59.5592 14.0597 58.8776 14.485C57.89 15.1054 56.9998 15.8862 56.2764 16.8064C55.421 17.9078 54.8854 19.2463 54.6907 20.6266C54.6281 21.0658 54.9897 21.4771 55.414 21.5258C56.4225 21.6095 56.2973 20.4244 56.5477 19.7621C56.7772 19.0232 57.1458 18.3331 57.6257 17.7266C58.2864 16.9109 59.1071 16.2278 60.0183 15.7119Z" fill="#53248F"/>
<path d="M48.0552 24.4815C48.6602 24.8509 49.4531 24.1817 49.2167 23.5195C48.9871 22.7945 46.7824 22.0207 46.0382 22.0137C44.3968 21.9509 42.7624 22.5644 41.42 23.4916C41.0236 23.7983 40.4741 24.105 40.4811 24.6697C40.4672 25.3947 41.4757 25.7433 41.9069 25.1786C42.4633 24.6906 43.1171 24.3351 43.7987 24.0632C45.3775 23.4009 46.6224 23.5404 48.0552 24.4815ZM42.0112 25.0392C41.9834 25.088 41.9486 25.1368 41.9138 25.1786C41.9834 25.0949 42.0321 25.0043 42.0669 24.8997C42.0529 24.9485 42.0321 24.9904 42.0112 25.0392Z" fill="#53248F"/>
<path d="M34.4374 27.751C36.1553 28.8873 36.1205 26.9702 35.6545 26.3079C31.9127 18.4166 20.6107 20.2848 16.6185 27.012C12.0282 34.0111 16.2569 44.7745 24.902 45.4856C30.6469 45.9666 36.0023 43.0945 37.6159 37.3433C37.901 36.5555 38.2975 35.2798 37.2055 34.9522C36.3361 34.75 35.578 35.4123 34.8756 35.8166C33.0742 37.0087 30.9251 38.375 28.6995 37.5524C27.5102 37.1132 26.6408 36.1163 25.9453 35.0916C24.7351 33.2442 25.0759 30.7416 26.5712 29.1591C28.4769 26.9632 31.871 26.5519 34.4374 27.751Z" fill="#FF87F3"/>
<path d="M52.451 23.8123C51.3451 24.37 51.7833 25.4365 52.7153 25.8897C53.1187 26.1127 53.5499 26.2591 53.9741 26.4404C54.2176 26.538 54.4471 26.6844 54.7183 26.7053C56.2276 26.6565 55.9216 24.5512 55.8033 23.5195C55.3443 21.7697 53.376 23.3313 52.451 23.8123Z" fill="#FF87F3"/>
</svg>
