<svg width="71" height="84" viewBox="0 0 71 84" fill="none" xmlns="http://www.w3.org/2000/svg">
<path d="M8.79074 58.2156C6.92915 55.8656 5.25641 53.3343 4.02884 50.5948C2.57194 47.0697 1.80302 43.3231 1.60742 39.5362C1.98514 38.8782 4.2784 34.8831 5.82298 32.9829C7.50921 30.9082 9.78224 26.9534 8.95936 22.6427C8.39279 19.6884 7.75202 17.9762 7.40129 17.1907C7.83296 16.6267 8.29836 16.0828 8.79748 15.5658C9.74851 14.6526 10.7737 13.7059 12.0755 13.3299C13.2289 12.974 14.5779 13.2023 15.4749 14.0215C16.8441 15.3845 16.3855 17.5331 15.7582 19.1513C14.787 21.508 13.3233 23.6231 12.1564 25.8858C9.41801 31.0559 7.17196 36.6557 6.91566 42.5576C6.85495 45.8611 7.01683 49.3526 8.43326 52.3875C8.48722 52.4681 8.54118 52.5285 8.60188 52.5822C8.60862 54.5831 9.49895 56.5303 10.5377 58.2156C12.0418 60.5858 13.9371 62.6874 15.2523 65.1784C15.3063 65.2724 15.3535 65.3732 15.4007 65.4672C13.2963 62.9694 10.8479 60.7671 8.79074 58.2156Z" fill="#461A7E"/>
<path d="M66.7296 55.9126C64.6387 61.7339 61.0369 66.9376 56.5718 71.2147C53.0982 70.7044 42.6166 69.4085 36.3236 71.396C30.0239 73.3834 23.6162 80.4604 21.586 82.8574C20.0752 82.0987 18.6183 81.2124 17.3705 80.071C16.1024 78.9295 15.03 77.6001 13.9913 76.2505C12.6086 74.404 11.2461 72.3897 10.7335 70.1135C10.3558 67.9112 12.3927 67.7836 13.654 69.0593C14.9086 70.2008 15.7719 71.8257 17.3502 72.571C19.8863 73.746 22.0244 71.2684 23.9265 69.9457C26.2805 68.1932 28.8435 66.6355 31.6494 65.7089C34.7588 64.8091 38.1987 65.1784 41.0518 66.6892C42.1917 67.3136 43.3316 67.9985 44.2084 68.9721C44.5187 69.3414 44.5659 69.8449 45.1662 69.8584C45.6248 69.8852 46.016 69.4689 45.9756 69.0191C45.9351 68.5088 45.4562 67.9716 45.0852 67.5956C42.0838 64.7957 37.8682 63.3118 33.7606 63.7147C29.4573 64.1578 25.6869 66.669 22.3145 69.2138C21.269 69.9658 20.2708 70.9461 19.0095 71.3087C18.942 71.3154 18.8746 71.3154 18.8071 71.3154C18.6722 69.8852 18.3282 68.4752 17.8426 67.1189C16.7499 63.99 14.6995 61.3579 12.7637 58.7125C11.7587 57.2957 10.7537 55.6641 10.3558 53.9251C10.0522 52.6964 10.032 50.2389 11.6103 49.93C13.2426 50.4202 13.7822 52.7837 14.315 54.2071C14.632 55.0531 14.8613 56.067 15.6775 56.584C16.3115 56.9869 17.1748 56.7519 17.6402 56.2013C18.6857 54.8181 19.7312 53.3812 21.1813 52.3741C23.7511 50.5478 27.0494 49.8159 30.1588 50.4C31.2582 50.5746 32.2767 51.0178 33.1805 51.6355C33.1535 51.6019 33.1265 51.5684 33.0996 51.5348C33.0861 51.5146 33.0793 51.4945 33.0658 51.4743C33.0996 51.5348 33.14 51.5885 33.1872 51.6422C33.2884 51.7094 33.3896 51.7832 33.484 51.8571C33.7875 51.9779 34.0843 51.8974 34.2867 51.7161C34.9004 51.5012 35.5749 50.6082 36.0403 50.2188C38.3673 47.9694 39.9119 45.0084 40.7752 41.9198C42.8999 33.9834 38.3268 25.7179 33.2075 19.8764C32.8702 19.4937 32.5127 19.1244 32.1553 18.7618C31.9462 18.547 31.7236 18.3522 31.5212 18.1307C31.3931 17.9897 30.9075 17.5331 31.157 17.3518C31.7168 16.9355 32.6544 17.1839 33.2614 17.3384C34.4081 17.6271 35.5075 18.0837 36.5934 18.547C37.0318 18.735 37.477 18.923 37.9154 19.1043C38.2257 19.2318 38.5494 19.3863 38.8799 19.4668C40.2829 19.9704 41.443 18.6678 42.4682 17.9024C43.797 16.8146 45.1122 15.7202 46.4477 14.6459C47.1154 14.1155 47.8034 13.585 48.5184 13.0546C48.5993 12.9874 48.687 12.9203 48.7814 12.8599C48.7814 12.8599 55.587 16.5528 60.8008 13.2762C62.7299 16.0022 64.2947 18.9968 65.5358 22.0854C66.9522 25.8052 68.173 29.6257 68.8745 33.5469C69.0094 34.3594 69.1241 35.1718 69.2185 35.991C69.3062 36.367 69.232 36.8303 69.3331 37.213C69.3331 37.2533 69.3331 37.3003 69.3331 37.3405C69.3736 38.4753 69.3871 39.6167 69.4006 40.7515C69.4411 45.888 68.4091 51.0379 66.7296 55.9126Z" fill="#461A7E"/>
<path d="M33.2148 49.8898L33.208 49.8831C33.2282 49.9032 33.2417 49.9233 33.262 49.9368C33.2417 49.9301 33.2282 49.9099 33.2148 49.8898Z" fill="white"/>
<path d="M45.9557 36.3467C45.2205 36.3131 44.1953 36.4407 44.4044 37.4143C44.6742 38.2804 45.6252 37.8373 46.2795 37.9246C48.8965 38.0052 51.0684 39.8382 51.8845 42.2688C52.532 44.0817 52.4511 46.0423 52.3836 47.9357C52.269 50.3865 51.7428 52.9447 50.205 54.9254C50.0364 55.1201 49.861 55.2947 49.6789 55.4491C49.6924 54.3077 49.4428 52.703 49.3754 52.139C49.0786 51.2057 47.6959 51.5145 47.8376 52.4814C47.9994 53.6765 48.1276 54.8784 48.0736 56.0803C48.0736 56.1273 48.0736 56.1676 48.0804 56.2079C47.6554 56.2884 47.2238 56.2817 46.8056 56.181C46.9 54.8583 46.8865 53.5355 46.7921 52.2195C46.7651 51.2661 45.3824 51.1721 45.2273 52.1054C45.2003 52.609 45.2947 53.126 45.288 53.6363C45.3015 54.207 45.3015 54.771 45.2812 55.3417C44.9979 55.0731 44.7484 54.7441 44.5393 54.3547C43.8918 53.1394 43.8918 51.7294 43.9188 50.3932C43.993 48.4595 44.1818 46.5123 43.939 44.5785C43.7704 43.558 42.2595 43.7862 42.3742 44.8068C42.6103 46.6533 42.4012 48.5199 42.3405 50.3663C42.2528 52.374 42.4619 54.5628 43.8648 56.1273C44.6067 56.9599 45.5982 57.5978 46.7112 57.779C49.8947 58.3229 52.1678 55.6439 53.0581 52.891C53.7866 50.9236 53.9754 48.8086 54.0024 46.7271C54.0091 45.6193 53.9956 44.5047 53.8135 43.4102C53.166 39.4487 50.1173 36.3198 45.9557 36.3467Z" fill="white"/>
<path d="M67.526 42.5107C66.548 42.0407 66.2108 43.3365 65.8668 43.9811C64.9697 45.9954 64.8146 48.2246 64.4032 50.3665C64.1131 51.9041 63.6747 53.4417 62.8114 54.7644C62.7844 54.8114 62.7507 54.8517 62.7237 54.8987C62.7034 54.1736 62.69 53.4417 62.663 52.7165C62.6495 52.3405 62.609 51.9712 62.5955 51.5952C62.6225 51.3871 62.5618 51.1655 62.4269 50.9977C61.9413 50.3934 60.9633 50.8097 61.0172 51.5684C61.1116 53.0724 61.1319 54.5832 61.1791 56.0939C61.1791 56.1409 61.1858 56.1879 61.1926 56.2282C60.7407 56.4162 60.2753 56.4565 59.8166 56.3356C59.8436 56.255 59.8571 56.1677 59.8504 56.0737C59.8099 54.9592 59.8166 53.8446 59.8031 52.73C59.7964 52.3741 59.8099 52.0317 59.7896 51.6758C59.621 50.7089 58.2046 50.8432 58.2181 51.8101C58.2248 52.9113 58.2316 54.0124 58.2451 55.1136C56.4105 52.4614 57.004 47.0496 57.5099 43.9744C57.955 41.3222 58.8993 38.6297 60.9565 36.79C61.9683 35.8567 63.2161 34.9838 64.6325 34.8965C65.5161 35.0174 65.9477 33.6745 64.9293 33.3589C61.5163 33.1441 58.0292 36.9981 56.95 39.9861C55.8102 43.1015 55.4392 46.4587 55.4594 49.7622C55.419 52.9247 56.2283 57.2823 59.9111 57.9739C61.7119 58.2089 63.3375 56.9466 64.2278 55.4829C65.7521 53.1127 66.0017 50.2457 66.4873 47.533C66.6829 46.4789 66.9392 45.4247 67.3912 44.4511C67.6744 43.8133 68.3624 43.0277 67.526 42.5107Z" fill="white"/>
<path d="M70.9857 38.0994C70.9722 37.0989 70.952 36.0918 70.9115 35.0913C70.9115 35.0242 70.9048 34.957 70.9048 34.8899C70.9048 34.8429 70.898 34.7959 70.898 34.7556C70.9048 34.6616 70.8845 34.5743 70.8576 34.4937C70.8171 34.1983 70.7699 33.9163 70.7631 33.6813C70.3584 30.2502 69.4681 26.893 68.4024 23.6097C66.615 18.1576 64.1329 12.8197 60.4232 8.38816C58.9393 6.63571 50.7713 -1.92515 48.6803 0.639751C48.1812 1.35819 48.5792 5.52783 48.6264 6.76328C48.6399 7.58915 48.768 8.42173 48.6669 9.2476C46.7715 10.6442 45.0381 11.9938 43.1967 13.5247C42.0434 14.4244 40.9844 15.492 39.7029 16.2171C39.5208 16.3246 39.3319 16.197 39.1565 16.1366C38.6642 15.9419 38.1718 15.7404 37.6794 15.5323C35.6087 14.7803 31.7439 12.6719 29.9026 14.6124C29.5046 15.0421 29.3899 15.7404 29.5923 16.3044C29.6665 16.9692 30.5501 17.4929 30.9413 18.0032C32.7354 19.8228 34.3272 21.8438 35.6964 23.9924C37.8683 27.5108 39.568 31.4857 39.7703 35.6486C39.8513 39.0394 38.6304 42.3496 36.8093 45.1696C35.9257 46.3849 34.968 47.3988 33.8146 48.4194C32.2633 47.2981 30.1926 46.9758 28.3108 46.8885C23.2521 46.7811 19.2119 49.3325 16.4465 53.4283C15.4887 51.649 15.2999 49.4601 13.9104 47.9091C12.2916 45.8679 10.2142 46.4521 9.22944 48.1978C8.70334 46.3111 8.56844 44.3169 8.50099 42.3697C8.39982 37.1392 10.0726 32.0631 12.3186 27.3899C13.2764 25.3689 14.3691 23.4083 15.4887 21.4745C16.9051 18.9768 18.5307 16.0963 17.7685 13.1285C17.3098 11.3962 15.7315 10.1339 13.9644 9.91233C11.4687 9.50275 9.24293 11.1142 7.61067 12.8197C4.17751 16.3917 2.2822 21.1187 1.20302 25.8792C-0.800219 34.3124 -0.489954 43.6454 3.57047 51.4476C5.35113 54.6973 7.58369 57.7121 10.167 60.3777C11.8262 62.0832 13.4855 63.8021 14.9761 65.6619C15.4887 66.3267 16.1025 67.166 16.4532 68.0254C16.116 67.6158 15.7922 67.1995 15.455 66.8773C14.9761 66.3535 14.4567 65.8634 13.8564 65.4807C12.177 64.4668 9.83648 64.8562 9.27666 66.9243C8.9529 68.1194 9.29689 69.3951 9.78252 70.503C10.7133 72.6382 12.0016 74.5988 13.4922 76.3915C15.3403 78.8356 17.6808 80.87 20.399 82.2868C23.7849 83.6431 25.8624 83.6834 27.5149 83.7908C38.2999 84.4421 48.5657 78.9833 56.3425 71.8862C62.9863 65.991 67.8628 58.2895 69.7379 49.5608C70.6485 45.8075 71.0869 41.9669 70.9857 38.0994ZM30.8671 15.6196C30.8603 15.6196 30.8603 15.6129 30.8536 15.6129H30.8603C30.8873 15.6263 30.921 15.6464 30.948 15.6599C30.948 15.6599 30.948 15.6599 30.9413 15.6599C30.9413 15.6599 30.9413 15.6599 30.948 15.6599C30.9615 15.6666 30.9682 15.68 30.9817 15.6867C30.948 15.6666 30.9075 15.6397 30.8671 15.6196ZM8.818 56.4767C6.95641 54.1266 5.28368 51.5953 4.05611 48.8558C2.59921 45.3308 1.83029 41.5841 1.63469 37.7972C2.00566 37.1392 4.30567 33.1441 5.85025 31.244C7.53647 29.1692 9.8095 25.2144 8.98663 20.9038C8.42005 17.9495 7.77929 16.2373 7.42856 15.4517C7.86023 14.8877 8.32563 14.3438 8.82475 13.8268C9.77578 12.9137 10.801 11.9669 12.1028 11.5909C13.2561 11.2351 14.6051 11.4634 15.5022 12.2825C16.8714 13.6455 16.4128 15.7941 15.7855 17.4123C14.8142 19.7691 13.3506 21.8841 12.1837 24.1468C9.44528 29.3169 7.19923 34.9167 6.94292 40.8187C6.88222 44.1222 7.0441 47.6137 8.46052 50.6486C8.51448 50.7291 8.56844 50.7896 8.62915 50.8433C8.63589 52.8442 9.52622 54.7913 10.5649 56.4767C12.069 58.8468 13.9644 60.9484 15.2796 63.4395C15.3336 63.5335 15.3808 63.6342 15.428 63.7282C13.3236 61.2304 10.8752 59.0281 8.818 56.4767ZM66.7567 54.1736C64.6657 59.995 61.064 65.1987 56.5989 69.4757C53.1252 68.9654 42.6437 67.6696 36.3507 69.657C30.0509 71.6445 23.6433 78.7214 21.6131 81.1185C20.1022 80.3598 18.6453 79.4735 17.3975 78.332C16.1295 77.1906 15.057 75.8611 14.0183 74.5115C12.6356 72.6651 11.2731 70.6507 10.7605 68.3746C10.3828 66.1722 12.4198 66.0447 13.6811 67.3204C14.9356 68.4618 15.799 70.0867 17.3773 70.832C19.9134 72.007 22.0515 69.5294 23.9536 68.2067C26.3075 66.4542 28.8706 64.8965 31.6765 63.9699C34.7791 63.0702 38.2258 63.4395 41.0788 64.9502C42.2187 65.5747 43.3586 66.2595 44.2355 67.2331C44.5457 67.6024 44.5929 68.106 45.1932 68.1194C45.6519 68.1463 46.0431 67.73 46.0026 67.2801C45.9621 66.7698 45.4833 66.2327 45.1123 65.8567C42.1108 63.0568 37.8953 61.5729 33.7876 61.9757C29.4844 62.4189 25.714 64.9301 22.3415 67.4748C21.2961 68.2268 20.2978 69.2072 19.0365 69.5697C18.9691 69.5764 18.9016 69.5764 18.8342 69.5764C18.6993 68.1463 18.3553 66.7363 17.8697 65.3799C16.777 62.251 14.7265 59.619 12.7907 56.9735C11.7858 55.5568 10.7808 53.9252 10.3828 52.1862C10.0793 50.9574 10.0591 48.5 11.6374 48.1911C13.2696 48.6812 13.8092 51.0447 14.3421 52.4682C14.6591 53.3142 14.8884 54.3281 15.7045 54.8451C16.3386 55.2479 17.2019 55.0129 17.6673 54.4623C18.7128 53.0725 19.7582 51.6423 21.2084 50.6351C23.7782 48.8088 27.0764 48.077 30.1858 48.6611C31.2853 48.8357 32.3037 49.2788 33.2076 49.8965C33.1806 49.863 33.1536 49.8294 33.1266 49.7958C33.1131 49.7757 33.1064 49.7555 33.0929 49.7354C33.1266 49.7958 33.1671 49.8495 33.2143 49.9033C33.3155 49.9704 33.4166 50.0443 33.5111 50.1181C33.8146 50.239 34.1114 50.1584 34.3137 49.9771C34.9275 49.7623 35.602 48.8692 36.0674 48.4798C38.3944 46.2305 39.939 43.2694 40.8023 40.1808C42.9269 32.2444 38.3539 23.979 33.2345 18.1375C32.8973 17.7547 32.5398 17.3855 32.1823 17.0229C31.9732 16.808 31.7507 16.6133 31.5483 16.3917C31.4202 16.2507 30.9345 15.7941 31.1841 15.6129C31.7439 15.1898 32.6814 15.445 33.2885 15.5994C34.4351 15.8881 35.5345 16.3447 36.6205 16.808C37.0589 16.996 37.5041 17.184 37.9425 17.3653C38.2527 17.4929 38.5765 17.6473 38.907 17.7279C40.3099 18.2315 41.4701 16.9289 42.4953 16.1634C43.824 15.0757 45.1393 13.9813 46.4748 12.9069C47.1425 12.3765 47.8305 11.8461 48.5454 11.3156C48.6264 11.2485 48.7141 11.1814 48.8085 11.1209C48.8085 11.1209 55.6141 14.8138 60.8279 11.5372C62.7569 14.2633 64.3218 17.2579 65.5628 20.3465C66.9792 24.0663 68.2001 27.8868 68.9015 31.808C69.0364 32.6204 69.1511 33.4329 69.2455 34.252C69.3332 34.628 69.259 35.0913 69.3602 35.474C69.3602 35.5143 69.3602 35.5613 69.3602 35.6016C69.4007 36.7363 69.4142 37.8778 69.4276 39.0125C69.4681 44.149 68.4361 49.299 66.7567 54.1736Z" fill="white"/>
<path d="M58.2037 15.2972C58.7231 15.022 59.3639 14.9481 59.2762 14.1827C58.9726 13.0211 57.7586 13.7059 57.0976 14.1155C56.1398 14.7131 55.2764 15.4651 54.575 16.3514C53.7454 17.4123 53.226 18.7014 53.0371 20.0309C52.9764 20.4539 53.3272 20.85 53.7386 20.897C54.7166 20.9776 54.5952 19.8362 54.838 19.1983C55.0606 18.4866 55.4181 17.8219 55.8835 17.2377C56.5243 16.4521 57.3202 15.7941 58.2037 15.2972Z" fill="white"/>
<path d="M46.6031 23.7439C47.1899 24.0998 47.9589 23.4552 47.7295 22.8173C47.507 22.119 45.3688 21.3737 44.6471 21.367C43.0553 21.3066 41.4703 21.8975 40.1685 22.7905C39.7841 23.0859 39.2512 23.3814 39.258 23.9252C39.2445 24.6235 40.2225 24.9592 40.6407 24.4154C41.1802 23.9454 41.8143 23.6029 42.4753 23.3411C44.0064 22.7032 45.2137 22.8375 46.6031 23.7439ZM40.7418 24.2811C40.7148 24.3281 40.6811 24.3751 40.6474 24.4154C40.7148 24.3348 40.7621 24.2475 40.7958 24.1468C40.7823 24.1938 40.7621 24.2341 40.7418 24.2811Z" fill="white"/>
<path d="M33.3969 26.893C35.0629 27.9875 35.0292 26.141 34.5772 25.5032C30.9485 17.9025 19.988 19.7019 16.1165 26.1813C11.6648 32.9226 15.7657 43.2896 24.1496 43.9745C29.7209 44.4378 34.9145 41.6714 36.4793 36.1321C36.7558 35.3733 37.1403 34.1446 36.0814 33.829C35.2382 33.6343 34.5031 34.2722 33.8218 34.6616C32.0749 35.8098 29.9907 37.1258 27.8323 36.3335C26.679 35.9105 25.8359 34.9503 25.1614 33.9633C23.9878 32.184 24.3183 29.7735 25.7684 28.2494C27.6165 26.1343 30.908 25.7382 33.3969 26.893Z" fill="white"/>
<path d="M50.8658 23.0993C49.7934 23.6365 50.2183 24.6638 51.1221 25.1002C51.5133 25.3151 51.9315 25.4561 52.3429 25.6306C52.579 25.7246 52.8016 25.8657 53.0646 25.8858C54.5283 25.8388 54.2315 23.811 54.1168 22.8173C53.6717 21.132 51.7629 22.636 50.8658 23.0993Z" fill="white"/>
</svg>
