<svg width="1920" height="83" viewBox="0 0 1920 83" fill="none" xmlns="http://www.w3.org/2000/svg">
<g clip-path="url(#clip0_2239_6)">
<path fill-rule="evenodd" clip-rule="evenodd" d="M887.021 0.139472C808.822 23.9024 617.371 62.9462 349.709 78.5H239.156C269.57 79.3522 299.232 79.7305 328.083 79.6961C297.175 81.3194 265.293 82.6254 232.493 83.5569H-0.5C81.3453 85.8501 159.212 85.638 232.493 83.5569H887.021H887.479H1542.01C1615.29 85.638 1693.15 85.8501 1775 83.5569H1542.01C1509.21 82.6254 1477.32 81.3194 1446.42 79.6961C1475.27 79.7305 1504.93 79.3522 1535.34 78.5H1424.79C1157.13 62.9462 965.678 23.9024 887.479 0.139472V0L887.25 0.0697908L887.021 0V0.139472Z" fill="#461A7E"/>
</g>
<defs>
<clipPath id="clip0_2239_6">
<rect width="1920" height="83" fill="white"/>
</clipPath>
</defs>
</svg>
