<svg width="1775" height="83" viewBox="0 0 1775 83" fill="none" xmlns="http://www.w3.org/2000/svg">
<g clip-path="url(#clip0_2458_2)">
<path fill-rule="evenodd" clip-rule="evenodd" d="M887.521 0.139472C809.322 23.9024 617.871 62.9462 350.209 78.5H239.656C270.07 79.3522 299.732 79.7305 328.583 79.6961C297.675 81.3194 265.793 82.6254 232.993 83.5569H0C81.8453 85.8501 159.712 85.638 232.993 83.5569H887.521H887.979H1542.51C1615.79 85.638 1693.65 85.8501 1775.5 83.5569H1542.51C1509.71 82.6254 1477.82 81.3194 1446.92 79.6961C1475.77 79.7305 1505.43 79.3522 1535.84 78.5H1425.29C1157.63 62.9462 966.178 23.9024 887.979 0.139472V0L887.75 0.0697908L887.521 0V0.139472Z" fill="#461A7E"/>
</g>
<defs>
<clipPath id="clip0_2458_2">
<rect width="1775" height="83" fill="white"/>
</clipPath>
</defs>
</svg>
