<svg width="54" height="45" viewBox="0 0 54 45" fill="none" xmlns="http://www.w3.org/2000/svg">
<path d="M38.2394 40.1558H11.8211C10.0695 40.1558 8.38956 39.4507 7.15096 38.1956C5.91237 36.9405 5.21653 35.2382 5.21653 33.4632V15.6162C5.21653 15.0245 4.98458 14.4571 4.57172 14.0387C4.15885 13.6203 3.59888 13.3853 3.015 13.3853C2.43112 13.3853 1.87115 13.6203 1.45829 14.0387C1.04542 14.4571 0.813477 15.0245 0.813477 15.6162L0.813477 33.4632C0.813477 36.4215 1.97321 39.2587 4.03754 41.3505C6.10187 43.4424 8.9017 44.6176 11.8211 44.6176H38.2394C38.8233 44.6176 39.3833 44.3826 39.7961 43.9642C40.209 43.5458 40.4409 42.9784 40.4409 42.3867C40.4409 41.7951 40.209 41.2276 39.7961 40.8092C39.3833 40.3909 38.8233 40.1558 38.2394 40.1558ZM47.0455 0H16.2242C14.4725 0 12.7926 0.705116 11.554 1.96023C10.3154 3.21534 9.61958 4.91764 9.61958 6.69264V29.0014C9.61958 30.7764 10.3154 32.4787 11.554 33.7338C12.7926 34.989 14.4725 35.6941 16.2242 35.6941H47.0455C48.7972 35.6941 50.4771 34.989 51.7157 33.7338C52.9543 32.4787 53.6501 30.7764 53.6501 29.0014V6.69264C53.6501 4.91764 52.9543 3.21534 51.7157 1.96023C50.4771 0.705116 48.7972 0 47.0455 0ZM46.1429 4.46176L33.1979 17.5793C32.9933 17.7884 32.7498 17.9544 32.4815 18.0677C32.2132 18.1809 31.9255 18.2392 31.6348 18.2392C31.3442 18.2392 31.0565 18.1809 30.7882 18.0677C30.5199 17.9544 30.2764 17.7884 30.0718 17.5793L17.1268 4.46176H46.1429ZM49.247 29.0014C49.247 29.5931 49.0151 30.1605 48.6022 30.5789C48.1894 30.9973 47.6294 31.2323 47.0455 31.2323H16.2242C15.6403 31.2323 15.0803 30.9973 14.6674 30.5789C14.2546 30.1605 14.0226 29.5931 14.0226 29.0014V7.51806L26.9676 20.6356C28.206 21.889 29.8846 22.5929 31.6348 22.5929C33.3851 22.5929 35.0637 21.889 36.3021 20.6356L49.247 7.51806V29.0014Z" fill="white"/>
</svg>
