<svg width="21" height="32" viewBox="0 0 21 32" fill="none" xmlns="http://www.w3.org/2000/svg">
<path d="M4.54525 0.27404C4.26697 0.416273 4.04434 0.645081 3.93922 0.898626C3.79698 1.22638 0 16.9647 0 17.2182C0 17.6697 0.321569 18.1458 0.773001 18.3561C1.00181 18.4612 1.24917 18.4736 4.5638 18.4736C6.66637 18.4736 8.10106 18.4983 8.10106 18.5292C8.10106 18.5602 7.47029 21.1822 6.70347 24.3608C5.78824 28.1206 5.30588 30.2418 5.30588 30.4458C5.31207 30.9962 5.60272 31.4724 6.07888 31.7012C6.30769 31.8125 6.46229 31.8311 7.17964 31.8311C8.11342 31.8311 8.3546 31.7568 8.69472 31.392C8.87406 31.2003 19.9744 14.1077 20.3392 13.4645C20.4691 13.2357 20.5 13.1059 20.5 12.7472C20.5 12.37 20.4753 12.271 20.3145 12.0051C20.197 11.8196 20.0115 11.6341 19.8259 11.5166C19.6277 11.3952 19.4001 11.3304 19.1676 11.3293L15.7569 11.3125C13.6914 11.3063 11.997 11.2754 11.997 11.2507C11.997 11.2259 12.5103 9.08626 13.1348 6.50752C13.7594 3.92261 14.2851 1.7211 14.3036 1.62216C14.3964 1.12125 14.0315 0.447193 13.5615 0.249304C13.4008 0.187464 12.5288 0.168913 9.04721 0.168913C5.23786 0.175097 4.70603 0.187464 4.54525 0.27404Z" fill="#FF87F3"/>
</svg>
