<svg width="64" height="64" viewBox="0 0 64 64" fill="none" xmlns="http://www.w3.org/2000/svg">
<g clip-path="url(#clip0_460_830)">
<path d="M13.0886 52.6033C18.7535 56.1339 25.2929 57.9999 31.9999 57.9999C38.7069 57.9999 45.2465 56.1338 50.9113 52.6033C56.4196 49.1703 60.8979 44.3088 63.8616 38.5442C64.0461 38.1855 64.0461 37.76 63.8616 37.4011C60.8979 31.6366 56.4198 26.775 50.9113 23.342C45.2465 19.8115 38.7069 17.9454 31.9999 17.9454C25.2929 17.9454 18.7533 19.8115 13.0886 23.342C7.58023 26.7752 3.10212 31.6367 0.138375 37.4012C-0.0461249 37.76 -0.0461249 38.1855 0.138375 38.5443C3.10212 44.3088 7.58023 49.1704 13.0886 52.6033ZM31.9999 20.5979C41.5805 20.5979 49.3749 28.3922 49.3749 37.9728C49.3749 47.5534 41.5805 55.3478 31.9999 55.3478C22.4193 55.3478 14.625 47.5534 14.625 37.9728C14.625 28.3922 22.4195 20.5979 31.9999 20.5979ZM61.3376 37.9728C57.7106 44.7104 52.0115 49.8484 45.254 52.7696C49.3151 49.1279 51.8749 43.8439 51.8749 37.9728C51.8749 32.1017 49.315 26.8177 45.2539 23.1761C52.0115 26.0972 57.7106 31.2352 61.3376 37.9728ZM18.7461 23.1761C14.6848 26.8176 12.125 32.1016 12.125 37.9728C12.125 43.8441 14.6847 49.1279 18.746 52.7696C11.9884 49.8484 6.28924 44.7104 2.66237 37.9728C6.28936 31.2352 11.9885 26.0972 18.7461 23.1761Z" fill="white"/>
<path d="M32 47.2229C37.1005 47.2229 41.25 43.0734 41.25 37.9729C41.25 35.306 40.0982 32.7684 38.0903 31.0105C37.571 30.5557 36.7813 30.6084 36.3264 31.1277C35.8716 31.6472 35.9241 32.437 36.4436 32.8916C37.9094 34.1747 38.75 36.0267 38.75 37.9729C38.75 41.6947 35.7219 44.7229 32 44.7229C28.2781 44.7229 25.25 41.6947 25.25 37.9729C25.25 36.0269 26.0908 34.1747 27.5564 32.8917C28.0758 32.437 28.1283 31.6472 27.6736 31.1279C27.2188 30.6084 26.4293 30.5562 25.9098 31.0106C23.9016 32.7684 22.75 35.3061 22.75 37.9729C22.75 43.0732 26.8996 47.2229 32 47.2229Z" fill="white"/>
<path d="M0.435243 28.2551C0.958492 28.7054 1.74787 28.6463 2.19811 28.1229C4.80498 25.0934 7.8466 22.4855 11.238 20.3717C17.4587 16.4947 24.6382 14.4455 32.0006 14.4455C39.3629 14.4455 46.5424 16.4948 52.7631 20.3717C56.1546 22.4855 59.1961 25.0933 61.803 28.1229C62.0504 28.4103 62.3995 28.5576 62.7511 28.5576C63.0397 28.5576 63.3299 28.4581 63.5659 28.2551C64.0892 27.8048 64.1484 27.0156 63.6981 26.4923C60.926 23.2709 57.6919 20.4978 54.0855 18.25C47.4675 14.1257 39.8307 11.9457 32.0004 11.9457C24.1702 11.9457 16.5335 14.1257 9.9156 18.2503C6.30923 20.4979 3.07511 23.2709 0.302993 26.4924C-0.147256 27.0156 -0.088131 27.8049 0.435243 28.2551Z" fill="white"/>
<path d="M63.5655 47.6907C63.0423 47.2403 62.253 47.2994 61.8027 47.8227C61.6709 47.9758 61.5379 48.1278 61.4038 48.2791C60.9457 48.7954 60.9929 49.5854 61.5093 50.0437C61.7473 50.2548 62.0434 50.3587 62.3384 50.3587C62.6835 50.3587 63.0269 50.2166 63.2739 49.9383C63.4164 49.7778 63.5575 49.6162 63.6975 49.4536C64.1478 48.9303 64.0888 48.1411 63.5655 47.6907Z" fill="white"/>
<path d="M39.3554 60.8096C38.9472 60.887 38.5317 60.959 38.1203 61.0236C37.4383 61.1306 36.9722 61.7704 37.0793 62.4524C37.1759 63.0688 37.7077 63.5086 38.3125 63.5086C38.377 63.5086 38.4423 63.5038 38.5079 63.4934C38.9453 63.4248 39.3872 63.3481 39.8214 63.2659C40.4997 63.1371 40.9452 62.4829 40.8165 61.8047C40.6879 61.1266 40.0345 60.68 39.3554 60.8096Z" fill="white"/>
<path d="M51.9601 56.0608C51.6017 56.2726 51.2351 56.4811 50.8707 56.6808C50.2652 57.0126 50.0435 57.7722 50.3752 58.3777C50.6025 58.7925 51.0307 59.0272 51.4725 59.0272C51.6755 59.0272 51.8815 58.9777 52.0721 58.8732C52.4599 58.6608 52.8499 58.4388 53.2312 58.2137C53.8256 57.8626 54.023 57.0962 53.672 56.5017C53.3211 55.9073 52.555 55.7099 51.9601 56.0608Z" fill="white"/>
<path d="M45.8637 58.9816C45.4748 59.1281 45.0777 59.2705 44.6837 59.4047C44.0301 59.6274 43.6809 60.3376 43.9036 60.991C44.0807 61.5109 44.5664 61.8382 45.0867 61.8382C45.2203 61.8382 45.3563 61.8166 45.4899 61.7711C45.9092 61.6282 46.3312 61.4769 46.7449 61.3211C47.3909 61.0779 47.7174 60.3569 47.4742 59.7107C47.2307 59.0649 46.5101 58.7381 45.8637 58.9816Z" fill="white"/>
<path d="M57.4663 52.1358C57.1504 52.4047 56.8248 52.6729 56.4988 52.933C55.9592 53.3634 55.8707 54.1499 56.3012 54.6898C56.5481 54.9993 56.9119 55.1603 57.2792 55.1603C57.5524 55.1603 57.8277 55.0712 58.0578 54.8874C58.4044 54.6109 58.7506 54.3257 59.0866 54.0397C59.6123 53.5922 59.6757 52.8032 59.2283 52.2775C58.7808 51.7517 57.9919 51.6884 57.4663 52.1358Z" fill="white"/>
<path d="M25.8828 61.024C25.4724 60.9598 25.0569 60.8878 24.6478 60.8103C23.9699 60.6808 23.3154 61.1271 23.1867 61.8053C23.058 62.4835 23.5035 63.1376 24.1818 63.2664C24.617 63.3489 25.0593 63.4254 25.4959 63.4939C25.5614 63.5041 25.6267 63.509 25.691 63.509C26.296 63.509 26.8279 63.0689 26.9244 62.4524C27.031 61.7703 26.5648 61.1309 25.8828 61.024Z" fill="white"/>
<path d="M19.3194 59.4055C18.9264 59.2719 18.5296 59.1295 18.1396 58.9826C17.493 58.7389 16.7724 59.0658 16.5292 59.7119C16.286 60.358 16.6125 61.079 17.2585 61.3223C17.6734 61.4785 18.0956 61.6299 18.5137 61.7723C18.6472 61.8177 18.7831 61.8393 18.9167 61.8393C19.4371 61.8393 19.923 61.5118 20.1 60.9918C20.3224 60.3381 19.973 59.6281 19.3194 59.4055Z" fill="white"/>
<path d="M13.1325 56.6822C12.7663 56.4817 12.4 56.2732 12.0436 56.0627C11.4491 55.7117 10.6828 55.9089 10.3316 56.5032C9.98051 57.0977 10.1779 57.8642 10.7721 58.2152C11.1515 58.4393 11.5415 58.661 11.9313 58.8747C12.1219 58.979 12.3278 59.0285 12.5308 59.0285C12.9725 59.0285 13.4009 58.7937 13.6281 58.3789C13.9599 57.7737 13.738 57.014 13.1325 56.6822Z" fill="white"/>
<path d="M32.6493 61.4948C32.6426 61.4948 32.6359 61.4948 32.6291 61.4949C32.2104 61.5015 31.7924 61.5016 31.3749 61.495C31.368 61.4949 31.3614 61.4949 31.3546 61.4949C30.6735 61.4949 30.116 62.0415 30.1051 62.725C30.0941 63.4152 30.6449 63.9838 31.3351 63.9948C31.5566 63.9983 31.7785 64 32.001 64C32.2238 63.9999 32.4464 63.9981 32.6688 63.9946C33.359 63.9836 33.9098 63.4152 33.8989 62.725C33.8879 62.0414 33.3305 61.4948 32.6493 61.4948Z" fill="white"/>
<path d="M7.50491 52.9355C7.17941 52.6759 6.85379 52.4076 6.53716 52.1381C6.01141 51.6906 5.22241 51.7544 4.77504 52.2801C4.32766 52.8059 4.39129 53.5949 4.91704 54.0423C5.25379 54.3288 5.59991 54.6139 5.94579 54.8899C6.17616 55.0736 6.45129 55.1628 6.72441 55.1628C7.09166 55.1628 7.45566 55.0016 7.70241 54.6923C8.13316 54.1524 8.04466 53.366 7.50491 52.9355Z" fill="white"/>
<path d="M2.19749 47.8225C1.74699 47.2993 0.957987 47.2402 0.434612 47.6905C-0.0887627 48.141 -0.147638 48.9301 0.302612 49.4533C0.442612 49.616 0.583737 49.7776 0.726237 49.9381C0.973362 50.2166 1.31674 50.3585 1.66174 50.3585C1.95661 50.3585 2.25286 50.2547 2.49086 50.0435C3.00724 49.5852 3.05449 48.7952 2.59636 48.2788C2.46236 48.1277 2.32924 47.9756 2.19749 47.8225Z" fill="white"/>
<path d="M32 9.44563C32.6903 9.44563 33.25 8.88588 33.25 8.19563V1.25C33.25 0.55975 32.6903 0 32 0C31.3098 0 30.75 0.55975 30.75 1.25V8.1955C30.75 8.88588 31.3098 9.44563 32 9.44563Z" fill="white"/>
<path d="M14.9178 10.9493C15.1494 11.3503 15.5694 11.5745 16.0015 11.5745C16.2135 11.5745 16.4284 11.5204 16.6253 11.4068C17.2231 11.0615 17.428 10.2972 17.0828 9.69928L14.0866 4.50978C13.7414 3.91203 12.9775 3.70715 12.3791 4.05228C11.7812 4.39753 11.5764 5.16191 11.9216 5.75978L14.9178 10.9493Z" fill="white"/>
<path d="M47.3752 11.4067C47.5721 11.5203 47.787 11.5744 47.999 11.5744C48.431 11.5744 48.8512 11.3502 49.0827 10.9492L52.0788 5.75968C52.4241 5.1618 52.2192 4.39743 51.6213 4.05218C51.0233 3.70693 50.259 3.9118 49.9138 4.50968L46.9177 9.69918C46.5725 10.2971 46.7773 11.0616 47.3752 11.4067Z" fill="white"/>
<path d="M32 31.2227C32.3288 31.2227 32.6513 31.09 32.8836 30.8563C33.1161 30.6239 33.25 30.3014 33.25 29.9727C33.25 29.6438 33.1163 29.3213 32.8836 29.0889C32.6513 28.8564 32.3288 28.7227 32 28.7227C31.6713 28.7227 31.3487 28.8563 31.1162 29.0889C30.8837 29.3213 30.75 29.6438 30.75 29.9727C30.75 30.3014 30.8836 30.6239 31.1162 30.8563C31.3487 31.09 31.6713 31.2227 32 31.2227Z" fill="white"/>
</g>
<defs>
<clipPath id="clip0_460_830">
<rect width="64" height="64" fill="white"/>
</clipPath>
</defs>
</svg>
