<svg width="55" height="56" viewBox="0 0 55 56" fill="none" xmlns="http://www.w3.org/2000/svg">
<path d="M35.343 0.965763C33.2356 2.10726 33.3234 5.88299 35.4308 7.02449C36.3967 7.46353 38.2406 7.90257 39.6455 7.90257C41.9285 7.90257 41.7529 8.16599 35.782 14.2247C31.0404 18.9663 29.1964 20.2834 28.3184 19.581C27.7037 19.0541 25.1573 18.1761 22.6987 17.5614C9.70315 14.3125 -2.85334 27.3959 0.571153 40.6548C2.76634 49.4356 12.6886 56.3724 21.0303 55.0553C31.0404 53.4747 37.7138 45.8355 37.7138 36.001C37.7138 33.279 37.0991 29.9423 36.3089 28.3617L34.9039 25.6397L41.3139 19.2297L47.8117 12.8198V16.4199C47.8117 19.3176 48.2507 20.3712 49.6556 21.0737C51.0605 21.864 51.8508 21.7762 53.1679 20.5469C54.5728 19.3176 54.8363 17.8248 54.8363 10.888C54.8363 0.263298 54.5728 -0.00012207 44.475 -0.00012207C40.2602 -0.00012207 36.1332 0.438915 35.343 0.965763ZM27.6159 27.2202C30.9526 30.5569 31.1282 30.996 31.1282 36.0888C31.1282 41.1817 30.9526 41.7085 27.7037 44.8696C24.5426 48.0306 23.928 48.2941 19.2742 48.2941C11.2837 48.2941 6.54207 43.7281 6.54207 36.001C6.54207 28.3617 11.4593 23.7079 19.5376 23.7079C23.6646 23.7079 24.367 23.9714 27.6159 27.2202Z" fill="white"/>
</svg>
