<svg width="38" height="67" viewBox="0 0 38 67" fill="none" xmlns="http://www.w3.org/2000/svg">
<path d="M13.6116 0.210213C10.0993 0.912674 5.00644 4.77621 2.46002 8.63974C0.44044 11.713 0.00140182 13.2935 0.00140182 18.0352C-0.0864058 26.8159 3.95274 33.2259 11.592 36.3869C14.314 37.5284 14.4019 37.7041 14.4019 43.1481V48.7678H10.5383C5.09424 48.7678 3.86494 49.4703 3.86494 52.2801C3.86494 55.09 5.09424 55.7924 10.5383 55.7924H14.4019V59.5682C14.4019 63.3439 16.2458 66.3293 18.6166 66.3293C20.724 66.3293 22.3045 63.4317 22.3045 59.656V55.7924H26.9583C33.1927 55.7924 35.5635 53.3338 32.3146 50.1727C31.4365 49.2947 29.417 48.7678 26.6071 48.7678H22.3045V43.1481C22.3045 37.7041 22.3923 37.5284 25.2022 36.4748C28.9779 34.982 34.422 29.7136 36.0025 26.0257C36.705 24.4451 37.2318 20.845 37.2318 18.123C37.2318 8.72755 29.856 0.912674 20.3728 0.122398C17.8263 -0.053215 14.7531 -0.053215 13.6116 0.210213ZM23.9729 7.32263C28.8023 9.69343 30.6463 12.9423 30.6463 19.001C30.5585 23.8305 30.3828 24.4451 27.3096 27.4306C24.3241 30.5038 23.7095 30.6795 18.88 30.7673C12.8213 30.7673 9.57243 28.9233 7.20163 24.0939C5.35767 20.4938 5.26986 17.2449 6.67478 13.9082C9.83586 6.79578 17.2995 3.98594 23.9729 7.32263Z" fill="white"/>
</svg>
