<svg width="33" height="29" viewBox="0 0 33 29" fill="none" xmlns="http://www.w3.org/2000/svg">
<path d="M6.83586 0.277398C2.77397 1.28792 0 5.03278 0 9.53058C0 13.2953 1.5455 16.2277 5.56776 20.1113C8.12378 22.5682 14.8408 28.3341 15.4352 28.5521C15.7126 28.671 16.1485 28.6908 16.4457 28.6314C17.0005 28.5125 23.5788 22.9645 26.5311 20.1113C30.5533 16.2277 32.0988 13.2953 32.0988 9.53058C32.0988 4.14115 28.1558 7.24751e-07 23.0042 7.24751e-07C20.8642 7.24751e-07 17.9714 1.44643 16.5844 3.19007L16.0494 3.86375L15.5144 3.19007C14.6624 2.12011 12.7603 0.832192 11.3535 0.396283C9.90704 -0.0396275 8.32192 -0.0792556 6.83586 0.277398Z" fill="#FF87F3"/>
</svg>
