<svg width="55" height="55" viewBox="0 0 55 55" fill="none" xmlns="http://www.w3.org/2000/svg">
<path d="M46.1827 12.0327C43.7972 9.64095 40.635 8.18116 37.2672 7.91702C33.8995 7.65289 30.5483 8.60182 27.8191 10.5924C24.9557 8.46268 21.3918 7.49696 17.8449 7.88972C14.298 8.28248 11.0317 10.0046 8.70371 12.7092C6.37569 15.4138 5.15891 18.9 5.29839 22.4658C5.43787 26.0316 6.92325 29.4122 9.45542 31.9267L23.4307 45.9245C24.601 47.0762 26.1771 47.7217 27.8191 47.7217C29.461 47.7217 31.0372 47.0762 32.2075 45.9245L46.1827 31.9267C48.8103 29.283 50.2851 25.7071 50.2851 21.9797C50.2851 18.2523 48.8103 14.6764 46.1827 12.0327ZM43.0096 28.8211L29.0343 42.7963C28.8753 42.9569 28.686 43.0844 28.4774 43.1714C28.2688 43.2584 28.0451 43.3032 27.8191 43.3032C27.5931 43.3032 27.3693 43.2584 27.1607 43.1714C26.9521 43.0844 26.7629 42.9569 26.6038 42.7963L12.6285 28.7535C10.8637 26.9495 9.87537 24.526 9.87537 22.0022C9.87537 19.4784 10.8637 17.0549 12.6285 15.2509C14.427 13.4752 16.8526 12.4796 19.3799 12.4796C21.9072 12.4796 24.3328 13.4752 26.1312 15.2509C26.3404 15.4618 26.5894 15.6292 26.8636 15.7435C27.1378 15.8577 27.432 15.9165 27.7291 15.9165C28.0261 15.9165 28.3203 15.8577 28.5945 15.7435C28.8688 15.6292 29.1177 15.4618 29.3269 15.2509C31.1253 13.4752 33.5509 12.4796 36.0782 12.4796C38.6055 12.4796 41.0311 13.4752 42.8296 15.2509C44.6187 17.0313 45.6395 19.4416 45.6731 21.9655C45.7068 24.4894 44.7506 26.926 43.0096 28.7535V28.8211Z" fill="white"/>
</svg>
