<svg width="87" height="91" viewBox="0 0 87 91" fill="none" xmlns="http://www.w3.org/2000/svg">
<path d="M48.4916 0.759554C45.9985 2.19309 44.6273 7.49094 45.6245 12.0409C47.1204 19.1462 53.7271 19.8941 56.5318 13.2251C57.2798 11.4799 57.2798 10.545 56.6565 7.92723C55.0983 1.13352 52.1689 -1.42191 48.4916 0.759554Z" fill="white"/>
<path d="M34.094 3.87597C30.1673 6.11977 30.292 17.8997 34.1563 19.9565C36.5248 21.2031 38.6439 20.7668 40.8877 18.523C42.4459 16.9648 43.0068 15.8429 43.0068 14.347C43.0068 11.6046 41.137 5.93279 39.7658 4.43692C38.5193 3.06571 35.9015 2.8164 34.094 3.87597Z" fill="white"/>
<path d="M61.8925 12.8509C59.3994 13.9104 57.9658 16.6528 57.9658 20.4548C57.9658 28.3081 66.0061 31.5492 69.3718 25.0048C71.3039 21.2651 69.5588 14.0974 66.3177 12.6016C64.3856 11.729 64.3856 11.729 61.8925 12.8509Z" fill="white"/>
<path d="M20.569 16.7152C15.5205 21.2028 19.2601 31.2375 25.8669 31.2375C28.4846 31.2375 31.1647 28.1212 31.1647 25.1294C31.1647 21.8261 29.7312 18.6474 27.4251 16.6529C24.9319 14.5961 22.9375 14.5961 20.569 16.7152Z" fill="white"/>
<path d="M42.4462 24.1947C42.0099 24.3816 38.5195 27.6227 34.7799 31.3623L30.7939 35.3483C28.9689 37.1733 28.0146 39.6936 28.1731 42.2697C28.4224 45.947 28.6718 46.5703 30.4169 48.1285C32.91 50.3723 34.6552 50.3723 38.6442 48.3154C42.6331 46.2586 45.8742 46.2586 49.9255 48.3154C53.5405 50.2476 55.4103 50.3723 57.4671 48.6894C59.7109 47.0066 60.6458 44.2018 60.3342 40.6491C60.0226 37.7821 59.7732 37.3458 53.5405 31.2377C45.8119 23.6337 45.0639 23.1351 42.4462 24.1947Z" fill="white"/>
<path d="M80.6531 58.5995C78.8456 59.2228 74.9189 61.4042 71.8649 63.3364C66.4424 66.8267 66.3801 66.9514 66.3801 69.3822C66.3801 74.1191 63.0144 75.1786 51.4837 74.1814C44.0668 73.5581 41.1374 73.7451 36.5874 75.054C33.2218 75.9889 32.0999 74.7423 34.9669 73.1841C36.8368 72.1869 38.6443 72.0623 49.8632 72.0623C56.9062 72.0623 63.0144 71.8129 63.4507 71.5636C63.8246 71.252 64.1986 70.2547 64.1986 69.2575C64.1986 66.8267 62.4534 65.7672 57.3425 64.8946C50.9851 63.8973 42.5086 62.4015 37.3977 61.4042C31.5389 60.2823 26.4904 60.9679 20.8186 63.5857L16.8296 65.4555V75.054V84.6524L23.8726 84.4031C29.7937 84.1538 31.9752 84.3408 38.208 85.712C42.2593 86.5846 46.2482 87.3325 46.9962 87.3325C48.8037 87.3325 60.5836 81.5984 67.315 77.4224C78.4716 70.5041 86.6365 62.9624 86.6365 59.5967C86.6365 58.3502 85.5146 57.3529 84.2681 57.4153C84.0188 57.4776 82.3982 57.9762 80.6531 58.5995Z" fill="white"/>
<path d="M1.37211 61.5289C0.000902065 62.4638 0.000902022 62.7754 0.000902022 75.4902C0.000902022 91.0098 -0.248408 90.4489 7.54254 90.4489C14.7725 90.4489 14.6479 90.6982 14.6479 75.3656C14.6479 63.0247 14.6479 62.9001 13.152 61.7158C11.2822 60.1576 3.49125 60.033 1.37211 61.5289Z" fill="white"/>
</svg>
