<svg width="87" height="86" viewBox="0 0 87 86" fill="none" xmlns="http://www.w3.org/2000/svg">
<path d="M27.7327 3.57659L25.7212 6.61518L29.0166 12.8636C30.814 16.2873 36.0781 26.1734 40.6574 34.8184L49.0028 50.4822L50.0727 49.455C50.6719 48.8987 51.8702 48.1283 52.7689 47.7432L54.3524 47.1012L53.4537 45.2609C52.5978 43.5918 29.9153 0.751984 29.7869 0.580795C29.7441 0.537998 28.8454 1.90751 27.7327 3.57659ZM44.9371 33.6201C44.9371 35.0324 44.8515 35.118 43.4392 35.118C42.0269 35.118 41.9413 35.0324 41.9413 33.6201C41.9413 32.2078 42.0269 32.1222 43.4392 32.1222C44.8515 32.1222 44.9371 32.2078 44.9371 33.6201Z" fill="white"/>
<path d="M55.4223 3.74741C54.4808 5.50209 53.6676 7.12838 53.582 7.34237C53.4964 7.55635 55.0371 7.72754 57.0486 7.72754C59.7448 7.72754 60.7291 7.55635 60.9003 7.12838C61.0287 6.8288 60.2156 5.20251 59.1456 3.53343L57.1342 0.537632L55.4223 3.74741Z" fill="white"/>
<path d="M0 12.6493V14.1472H13.0531H26.1062L25.3787 12.6493L24.6511 11.1514H12.3256H0V12.6493Z" fill="white"/>
<path d="M39.6729 12.6493L40.4004 14.1472H63.6392H86.878V12.6493V11.1514H62.9117H38.9453L39.6729 12.6493Z" fill="white"/>
<path d="M42.6685 18.2987C43.0536 18.9835 43.396 19.5398 43.4388 19.5826C43.4388 19.6254 43.7812 19.0691 44.1664 18.3843L44.8939 17.1432H43.396H41.9409L42.6685 18.2987Z" fill="white"/>
<path d="M46.8626 19.8395C46.0495 21.3374 45.3647 22.7497 45.3647 22.9209C45.3647 23.4773 48.5317 29.5544 48.8313 29.5544C48.9597 29.5544 49.4733 28.7413 49.944 27.7142C50.4576 26.7298 51.9555 23.948 53.2394 21.5086L55.636 17.1433H51.9983H48.4033L46.8626 19.8395Z" fill="white"/>
<path d="M35.1791 41.9656L32.4829 47.0584L34.1092 47.7432C35.0079 48.1283 36.2063 48.8987 36.8054 49.455L37.8753 50.4822L39.7584 46.93L41.6843 43.3779L39.9724 40.1253C39.0737 38.3278 38.2177 36.8299 38.0893 36.8299C37.9609 36.8299 36.6342 39.141 35.1791 41.9656Z" fill="white"/>
<path d="M22.8964 50.482C19.601 51.2951 16.9048 53.7346 15.6637 57.0299C15.0217 58.6134 14.9361 60.3681 15.0645 68.9703L15.1929 79.0704L16.4768 81.1675C18.3171 84.0777 21.0989 85.7468 24.6082 85.9608C27.9464 86.1747 30.0007 85.5328 32.1833 83.5641C35.6499 80.4399 35.7355 80.1404 35.8639 66.2741C35.9923 52.7074 35.9067 52.0227 33.3816 50.7388C32.0549 50.054 25.3786 49.8828 22.8964 50.482ZM28.1176 53.7346C30.2575 54.6333 31.199 55.532 32.1405 57.5863C32.8253 59.0842 32.9537 60.4965 32.9537 68.2428C32.9537 76.5026 32.8681 77.3585 32.0549 79.0704C29.7011 83.9065 22.7252 84.5484 19.4298 80.2259L18.1887 78.6425L18.0603 68.9703C17.9747 63.6635 18.0175 58.913 18.1887 58.3566C18.5311 56.9871 20.9277 54.3765 22.4684 53.6918C24.1803 52.9214 26.2345 52.9642 28.1176 53.7346Z" fill="white"/>
<path d="M23.7098 56.5167C23.1963 56.6879 22.3831 57.4154 21.8696 58.0574C20.9708 59.2129 20.928 59.5553 21.0564 68.6283L21.1848 78.0008L22.3831 79.0279C24.1378 80.5258 26.5345 80.4402 28.3319 78.814L29.7442 77.5728L29.8726 68.7566C30.001 59.0417 29.787 57.9718 27.3904 56.7307C26.0209 56.0031 25.0794 55.9603 23.7098 56.5167Z" fill="white"/>
<path d="M53.2398 50.8671C50.9715 52.3222 50.8859 53.0925 51.0143 66.4024C51.1427 78.0004 51.1855 78.6424 52.0842 80.3114C53.2398 82.4513 56.0644 84.9763 58.0758 85.6611C58.889 85.9179 60.772 86.0462 62.2699 85.9607C65.7793 85.7467 68.5611 84.0776 70.4014 81.1674L71.6853 79.0703L71.8137 68.9702C71.9421 57.8002 71.7281 56.5591 69.2031 53.6489C66.9348 51.081 65.0517 50.3963 59.4881 50.2251C55.1656 50.0539 54.3953 50.1395 53.2398 50.8671ZM64.3242 53.6917C65.9077 54.3336 68.3471 56.9442 68.6895 58.3565C68.8607 58.9129 68.9035 63.6634 68.8179 68.9702L68.6895 78.6424L67.4912 80.183C65.9505 82.2373 64.1102 83.136 61.5852 83.136C58.7178 83.136 56.0216 81.5098 54.8232 79.0703C54.0101 77.3584 53.9245 76.4597 53.9245 68.3711C53.9245 57.2866 54.3953 55.7459 58.4182 53.9056C60.4725 52.9641 62.4411 52.8785 64.3242 53.6917Z" fill="white"/>
<path d="M59.2311 56.8589C57.0484 58.2284 56.8345 59.3411 57.0056 68.8849L57.134 77.5727L58.5463 78.8138C60.0014 80.1405 62.1841 80.4829 63.8104 79.6269C65.6506 78.5998 65.9074 77.1875 65.9074 67.9005V59.0843L64.7519 57.8004C63.2112 56.0885 61.0714 55.7462 59.2311 56.8589Z" fill="white"/>
</svg>
