<svg width="99" height="85" viewBox="0 0 99 85" fill="none" xmlns="http://www.w3.org/2000/svg">
<path d="M3.05036 0.456543C3.97472 1.02538 4.47246 2.09195 4.80428 4.2251C4.9939 5.48129 5.32571 6.21603 6.41599 7.96996C9.56831 12.9947 14.2138 18.2802 17.5795 20.674C19.523 22.0487 21.7984 23.139 23.5286 23.4945C24.7137 23.7315 24.9033 23.7315 25.5195 23.2812C26.6335 22.4991 27.9845 22.1672 30.165 22.1672C31.279 22.1435 32.156 22.0724 32.1086 22.0013C31.9427 21.7169 29.928 21.314 28.7666 21.314C28.1504 21.314 26.9416 21.5273 26.0883 21.8117C24.7611 22.2383 24.4055 22.262 23.5523 22.0487C22.4383 21.7406 21.9643 21.1955 21.111 19.1808C19.8311 16.1707 20.4474 11.5726 22.0828 11.9992C22.8412 12.2126 24.9744 10.9801 26.0409 9.72388C26.5624 9.10764 27.3682 8.42029 27.8186 8.20698C29.0748 7.59073 31.4686 7.35371 33.5781 7.59073L35.4505 7.80405L36.7541 6.42935C37.4651 5.6946 38.8872 4.1777 39.9064 3.11112C41.7077 1.19129 41.7788 1.14389 42.2292 1.54681C42.9639 2.21046 44.0542 4.62803 44.2201 6.00272C44.4097 7.44852 43.9594 9.51057 43.0824 11.2882C42.5847 12.3311 42.561 12.5207 42.8217 13.3739C43.3431 15.033 43.2246 17.1188 42.5373 18.7779C41.9921 20.0578 41.921 20.4844 42.0396 21.9302C42.3477 26.1965 45.1445 30.9842 49.1026 34.0181C49.8848 34.6106 52.0416 35.8905 53.8667 36.8623C58.4885 39.2798 60.9298 40.9863 63.3236 43.3565C68.0165 48.0494 70.8607 54.3541 72.188 63.0289C72.4013 64.4036 72.6384 67.8403 72.7095 70.6608C72.7806 73.505 72.9228 75.8277 73.0176 75.8277C73.1124 75.8277 73.8945 75.093 74.7478 74.1923C77.5209 71.3244 78.5638 68.0536 78.0186 64.0243C77.3076 58.9285 75.1981 54.7333 67.3529 42.764C63.3947 36.7437 60.5031 30.0599 59.6025 24.8692C59.081 21.8117 59.2469 16.9529 59.9817 14.4405C60.8587 11.3593 62.2096 9.13134 64.6035 6.71377C66.4996 4.77024 67.0211 4.41471 69.2253 3.34814C70.6 2.7082 72.4487 1.99715 73.3257 1.78383C80.9813 -0.0648956 89.4428 2.7319 94.4913 8.75211C97.0985 11.8333 99.279 16.7633 98.9709 18.8727C98.5917 21.4088 95.9134 23.1627 93.4247 22.4991C91.9789 22.1198 90.6753 20.8399 90.1776 19.3467C89.2058 16.2892 87.0016 13.3976 84.584 11.9755C81.1472 9.9609 76.9521 9.67648 73.5864 11.2171C72.0458 11.9281 70.0549 13.7295 69.4149 15.033C67.2107 19.2993 68.1825 25.7936 72.0932 33.1174C72.7332 34.3499 74.6293 37.4311 76.3121 39.9909C85.3661 53.9274 87.4756 59.1418 87.1675 67.0581C87.0253 70.9689 86.4801 73.1969 84.9395 76.2781C83.0908 79.9755 80.1755 82.5353 76.3358 83.7915C75.127 84.1944 73.7286 84.2418 58.7255 84.3129L42.4425 84.384V83.6256C42.4425 81.848 43.9357 80.1177 46.1162 79.3593C47.8228 78.7667 52.8001 79.0986 55.3599 79.9755C55.6206 80.0703 54.5066 79.4541 52.8712 78.6245C47.965 76.1359 44.8363 73.6709 42.9165 70.803C38.3184 63.9295 42.7032 56.3924 51.3069 56.3924C52.8475 56.3924 53.9852 56.5346 55.028 56.8664C55.8576 57.1035 56.5687 57.2694 56.6161 57.222C56.8057 57.056 53.7956 55.6814 52.4683 55.3258C50.9277 54.9229 48.0124 54.8755 46.4955 55.231C43.4854 55.9184 40.57 58.2648 39.5983 60.8246C39.0294 62.2704 38.8398 64.9013 39.1954 66.1812C39.3613 66.7737 39.3376 66.8211 38.9583 66.6078C38.1525 66.1812 34.5024 62.7444 32.7722 60.8246C29.454 57.1035 26.5387 52.1972 25.164 48.0968C24.5477 46.1533 23.9552 43.1669 23.9552 41.8159C23.9552 40.7967 23.9552 40.773 21.6324 39.0665C18.4801 36.6963 12.8391 31.0317 10.4927 27.8556C4.56727 19.8208 1.08312 10.9801 0.348373 2.16306C0.206161 0.338028 0.206161 0.290627 0.751305 0.148422C1.69937 -0.112297 2.2208 -0.0411911 3.05036 0.456543Z" fill="white"/>
<path d="M24.2158 50.1582C25.6853 53.9979 29.6435 59.8996 33.7202 64.2607C35.2608 65.8961 35.2134 65.5643 34.1942 68.764C32.6773 73.4096 31.9189 77.2492 31.4211 82.748L31.2552 84.3597H25.6142C19.3096 84.3597 19.5466 84.4308 19.831 82.6769C20.1154 80.8993 21.6798 79.3113 23.4574 79.0031C23.9314 78.932 24.4291 78.8372 24.5714 78.7898C24.9269 78.695 25.2113 70.4943 25.0217 65.6828C24.9269 63.6445 24.6662 60.0418 24.4291 57.6954C23.9077 52.6943 23.6944 49.5183 23.8603 49.5183C23.9077 49.5183 24.0736 49.8027 24.2158 50.1582Z" fill="white"/>
</svg>
