<svg width="10" height="14" viewBox="0 0 10 14" fill="none" xmlns="http://www.w3.org/2000/svg">
<path d="M4.1663 0.0388803C1.79662 0.471441 0.147871 2.37095 0.141602 4.67795C0.141602 5.28604 0.160409 5.39261 0.398631 6.08847C0.536549 6.50223 0.793578 7.14793 0.962841 7.53034C1.27002 8.20113 4.61767 13.9686 4.72425 14C4.79947 14.0188 8.52953 7.97544 8.91194 7.21062C9.09374 6.85329 9.33823 6.28281 9.45108 5.94428C9.63288 5.40515 9.65795 5.26096 9.65795 4.67795C9.65168 2.57783 8.24116 0.747278 6.18492 0.16426C5.65833 0.0200729 4.63021 -0.0488863 4.1663 0.0388803ZM5.37622 1.91958C6.17239 2.07004 6.91213 2.61544 7.29454 3.34265C8.18474 5.00393 7.11901 7.0539 5.23203 7.32973C4.09108 7.49273 2.89996 6.84075 2.39844 5.78129C1.45182 3.78148 3.20088 1.5121 5.37622 1.91958Z" fill="white"/>
</svg>
