<svg width="170" height="68" viewBox="0 0 170 68" fill="none" xmlns="http://www.w3.org/2000/svg">
<g clip-path="url(#clip0_508_239)">
<path d="M6.33511 42.1331C4.99324 40.4276 3.78749 38.5904 2.90263 36.6022C1.85247 34.0438 1.29822 31.3246 1.15723 28.5761C1.42949 28.0986 3.08252 25.1991 4.19589 23.82C5.41136 22.3142 7.0498 19.4439 6.45666 16.3154C6.04826 14.1712 5.58638 12.9285 5.33357 12.3584C5.64472 11.949 5.98019 11.5543 6.33997 11.1791C7.02549 10.5163 7.7645 9.82924 8.70284 9.55634C9.53421 9.29807 10.5066 9.46375 11.1532 10.0583C12.1402 11.0475 11.8096 12.6069 11.3574 13.7813C10.6573 15.4918 9.60228 17.0268 8.76118 18.6691C6.78726 22.4214 5.16826 26.4856 4.98351 30.769C4.93975 33.1666 5.05644 35.7006 6.07743 37.9033C6.11633 37.9618 6.15522 38.0056 6.19898 38.0446C6.20384 39.4968 6.8456 40.91 7.59433 42.1331C8.67853 43.8534 10.0447 45.3786 10.9928 47.1866C11.0317 47.2548 11.0657 47.3279 11.0997 47.3961C9.58283 45.5833 7.81798 43.9849 6.33511 42.1331Z" fill="white"/>
<path d="M48.0985 40.4613C46.5913 44.6863 43.9951 48.4629 40.7765 51.5671C38.2727 51.1968 30.7173 50.2563 26.1812 51.6987C21.6402 53.1411 17.0215 58.2774 15.558 60.0171C14.469 59.4664 13.4188 58.8232 12.5194 57.9948C11.6053 57.1663 10.8323 56.2015 10.0836 55.222C9.0869 53.8819 8.1048 52.4199 7.7353 50.7679C7.46304 49.1696 8.93132 49.077 9.84049 50.0028C10.7448 50.8313 11.3671 52.0106 12.5048 52.5515C14.3328 53.4043 15.8741 51.6061 17.2451 50.6461C18.9419 49.3742 20.7894 48.2437 22.8119 47.5712C25.0533 46.9182 27.5328 47.1862 29.5894 48.2826C30.411 48.7358 31.2327 49.2329 31.8647 49.9395C32.0884 50.2075 32.1224 50.573 32.5551 50.5828C32.8857 50.6022 33.1677 50.3001 33.1385 49.9736C33.1094 49.6033 32.7642 49.2134 32.4968 48.9405C30.3332 46.9084 27.2946 45.8315 24.3337 46.1239C21.2318 46.4455 18.514 48.268 16.0831 50.1149C15.3295 50.6607 14.61 51.3722 13.7008 51.6353C13.6522 51.6402 13.6036 51.6402 13.5549 51.6402C13.4577 50.6022 13.2098 49.5789 12.8597 48.5945C12.0721 46.3236 10.5941 44.4134 9.19872 42.4934C8.4743 41.4651 7.74989 40.281 7.46304 39.0188C7.24425 38.1271 7.22967 36.3435 8.36734 36.1193C9.54391 36.4751 9.93286 38.1904 10.3169 39.2235C10.5455 39.8375 10.7108 40.5734 11.299 40.9486C11.7561 41.241 12.3784 41.0704 12.7138 40.6708C13.4674 39.667 14.221 38.6241 15.2663 37.8932C17.1187 36.5677 19.4961 36.0365 21.7375 36.4605C22.5299 36.5872 23.2641 36.9088 23.9156 37.3571C23.8961 37.3327 23.8767 37.3084 23.8572 37.284C23.8475 37.2694 23.8426 37.2548 23.8329 37.2402C23.8572 37.284 23.8864 37.323 23.9204 37.362C23.9934 37.4107 24.0663 37.4643 24.1344 37.5179C24.3531 37.6056 24.5671 37.5472 24.7129 37.4156C25.1554 37.2596 25.6415 36.6115 25.977 36.3289C27.6544 34.6964 28.7677 32.5473 29.39 30.3057C30.9215 24.5457 27.6252 18.5469 23.935 14.3073C23.6919 14.0295 23.4343 13.7615 23.1766 13.4983C23.0259 13.3424 22.8654 13.2011 22.7196 13.0402C22.6272 12.9379 22.2771 12.6065 22.457 12.475C22.8606 12.1728 23.5364 12.3531 23.9739 12.4652C24.8004 12.6748 25.5929 13.0061 26.3757 13.3424C26.6917 13.4788 27.0126 13.6153 27.3286 13.7468C27.5522 13.8394 27.7856 13.9515 28.0239 14.01C29.0351 14.3755 29.8714 13.4301 30.6104 12.8746C31.5681 12.0851 32.5162 11.2908 33.4789 10.5111C33.9602 10.1261 34.4561 9.74114 34.9715 9.35616C35.0298 9.30743 35.093 9.2587 35.1611 9.21484C35.1611 9.21484 40.0667 11.8951 43.8249 9.51698C45.2154 11.4955 46.3434 13.6689 47.2379 15.9105C48.2589 18.6102 49.1389 21.383 49.6446 24.2289C49.7418 24.8186 49.8244 25.4082 49.8925 26.0027C49.9557 26.2756 49.9022 26.6119 49.9752 26.8896C49.9752 26.9189 49.9752 26.953 49.9752 26.9822C50.0043 27.8058 50.0141 28.6342 50.0238 29.4578C50.053 33.1857 49.3091 36.9234 48.0985 40.4613Z" fill="white"/>
<path d="M23.9394 36.0902L23.9346 36.0854C23.9489 36.0998 23.9585 36.1142 23.9729 36.1238C23.9585 36.119 23.9489 36.1046 23.9394 36.0902Z" fill="#340077"/>
<path d="M33.1233 26.2612C32.5933 26.2368 31.8543 26.3294 32.005 27.036C32.1995 27.6646 32.885 27.343 33.3566 27.4064C35.243 27.4649 36.8085 28.7952 37.3968 30.5593C37.8636 31.875 37.8052 33.298 37.7566 34.6722C37.674 36.4509 37.2947 38.3075 36.1862 39.7451C36.0647 39.8864 35.9383 40.0131 35.807 40.1252C35.8167 39.2968 35.6368 38.1321 35.5882 37.7228C35.3743 37.0454 34.3776 37.2696 34.4797 37.9713C34.5964 38.8387 34.6888 39.711 34.6499 40.5833C34.6499 40.6174 34.6499 40.6466 34.6547 40.6759C34.3484 40.7344 34.0373 40.7295 33.7358 40.6564C33.8039 39.6964 33.7942 38.7364 33.7261 37.7812C33.7067 37.0893 32.71 37.021 32.5982 37.6984C32.5787 38.0639 32.6468 38.4391 32.6419 38.8095C32.6517 39.2237 32.6517 39.633 32.6371 40.0472C32.4329 39.8523 32.253 39.6135 32.1023 39.3309C31.6355 38.4489 31.6355 37.4255 31.655 36.4558C31.7085 35.0523 31.8446 33.6391 31.6696 32.2356C31.548 31.4949 30.459 31.6606 30.5416 32.4013C30.7118 33.7414 30.5611 35.0962 30.5173 36.4363C30.4541 37.8933 30.6048 39.482 31.6161 40.6174C32.1509 41.2217 32.8656 41.6846 33.6678 41.8162C35.9626 42.2109 37.601 40.2665 38.2428 38.2686C38.7679 36.8407 38.904 35.3057 38.9235 33.795C38.9283 32.991 38.9186 32.182 38.7873 31.3877C38.3206 28.5126 36.123 26.2417 33.1233 26.2612Z" fill="#340077"/>
<path d="M48.6725 30.7347C47.9676 30.3936 47.7245 31.3341 47.4765 31.8019C46.8299 33.2639 46.7181 34.8818 46.4215 36.4363C46.2124 37.5522 45.8964 38.6682 45.2741 39.6282C45.2546 39.6623 45.2303 39.6915 45.2109 39.7256C45.1963 39.1993 45.1866 38.6682 45.1671 38.1419C45.1574 37.869 45.1282 37.601 45.1185 37.3281C45.138 37.177 45.0942 37.0162 44.997 36.8944C44.6469 36.4558 43.9419 36.7579 43.9808 37.3086C44.0489 38.4001 44.0635 39.4966 44.0975 40.5931C44.0975 40.6272 44.1024 40.6613 44.1072 40.6905C43.7815 40.827 43.446 40.8562 43.1154 40.7685C43.1349 40.71 43.1446 40.6467 43.1397 40.5784C43.1106 39.7695 43.1154 38.9606 43.1057 38.1516C43.1008 37.8933 43.1106 37.6448 43.096 37.3865C42.9744 36.6848 41.9534 36.7823 41.9632 37.484C41.968 38.2832 41.9729 39.0824 41.9826 39.8816C40.6602 37.9567 41.088 34.029 41.4527 31.7971C41.7735 29.8722 42.4542 27.9181 43.9371 26.5828C44.6664 25.9055 45.5658 25.272 46.5868 25.2086C47.2237 25.2963 47.5349 24.3217 46.8007 24.0927C44.3406 23.9367 41.827 26.7339 41.0491 28.9024C40.2275 31.1636 39.9601 33.6001 39.9747 35.9977C39.9455 38.2929 40.5289 41.4556 43.1835 41.9575C44.4816 42.1281 45.6533 41.2119 46.2951 40.1496C47.3939 38.4294 47.5737 36.3486 47.9238 34.3798C48.0648 33.6147 48.2495 32.8497 48.5753 32.1431C48.7795 31.6801 49.2754 31.11 48.6725 30.7347Z" fill="#340077"/>
<path d="M51.166 27.5333C51.1563 26.8073 51.1417 26.0763 51.1125 25.3502C51.1125 25.3015 51.1077 25.2527 51.1077 25.204C51.1077 25.1699 51.1028 25.1358 51.1028 25.1065C51.1077 25.0383 51.0931 24.975 51.0737 24.9165C51.0445 24.7021 51.0105 24.4974 51.0056 24.3268C50.7139 21.8367 50.0721 19.4001 49.3039 17.0172C48.0155 13.0602 46.2264 9.18606 43.5524 5.9698C42.4827 4.69791 36.595 -1.51531 35.0879 0.346218C34.7281 0.867641 35.0149 3.89385 35.049 4.7905C35.0587 5.3899 35.1511 5.99416 35.0781 6.59356C33.7119 7.60716 32.4624 8.58666 31.1352 9.69773C30.3038 10.3507 29.5405 11.1256 28.6167 11.6519C28.4854 11.7298 28.3493 11.6372 28.2229 11.5934C27.868 11.4521 27.5131 11.3059 27.1582 11.1548C25.6656 10.609 22.8797 9.07885 21.5524 10.4872C21.2656 10.7991 21.1829 11.3059 21.3288 11.7152C21.3823 12.1976 22.0192 12.5777 22.3012 12.9481C23.5944 14.2687 24.7418 15.7355 25.7288 17.2949C27.2943 19.8484 28.5195 22.7333 28.6653 25.7547C28.7237 28.2156 27.8437 30.618 26.531 32.6647C25.8941 33.5468 25.2037 34.2826 24.3723 35.0233C23.2541 34.2095 21.7615 33.9756 20.405 33.9123C16.7586 33.8343 13.8464 35.6861 11.853 38.6587C11.1626 37.3673 11.0265 35.7787 10.025 34.653C8.85811 33.1715 7.36065 33.5955 6.65082 34.8625C6.2716 33.4932 6.17436 32.0459 6.12574 30.6327C6.05281 26.8365 7.25855 23.1524 8.87755 19.7607C9.56794 18.2939 10.3556 16.871 11.1626 15.4675C12.1836 13.6547 13.3553 11.5641 12.8059 9.41022C12.4753 8.15295 11.3377 7.23681 10.0638 7.076C8.26496 6.77874 6.66054 7.94828 5.48397 9.18606C3.00929 11.7786 1.6431 15.2092 0.865205 18.6643C-0.578768 24.7849 -0.355122 31.5585 2.57172 37.2211C3.85525 39.5797 5.46453 41.7677 7.32662 43.7024C8.52264 44.9401 9.71866 46.1876 10.7931 47.5375C11.1626 48.0199 11.6051 48.6291 11.8579 49.2528C11.6148 48.9556 11.3814 48.6534 11.1383 48.4195C10.7931 48.0394 10.4188 47.6837 9.98606 47.4059C8.77546 46.6701 7.08839 46.9527 6.68485 48.4536C6.45149 49.3211 6.69944 50.247 7.04949 51.051C7.72043 52.6007 8.64905 54.0236 9.72352 55.3247C11.0557 57.0986 12.7427 58.5751 14.7021 59.6033C17.1427 60.5877 18.6402 60.617 19.8313 60.6949C27.6054 61.1676 35.0052 57.2058 40.6109 52.0549C45.3999 47.7763 48.915 42.1868 50.2666 35.8518C50.9229 33.1277 51.239 30.3403 51.166 27.5333ZM22.2477 11.2181C22.2428 11.2181 22.2428 11.2133 22.238 11.2133H22.2428C22.2623 11.223 22.2866 11.2376 22.306 11.2474C22.306 11.2474 22.306 11.2474 22.3012 11.2474C22.3012 11.2474 22.3012 11.2474 22.306 11.2474C22.3157 11.2523 22.3206 11.262 22.3303 11.2669C22.306 11.2523 22.2768 11.2328 22.2477 11.2181ZM6.35425 40.8711C5.01237 39.1655 3.80663 37.3283 2.92177 35.3401C1.87161 32.7817 1.31736 30.0625 1.17636 27.3141C1.44377 26.8365 3.10166 23.937 4.21503 22.5579C5.43049 21.0521 7.06894 18.1818 6.47579 15.0533C6.0674 12.9091 5.60552 11.6665 5.3527 11.0963C5.66386 10.687 5.99933 10.2923 6.35911 9.91702C7.04463 9.25428 7.78364 8.56717 8.72197 8.29428C9.55335 8.036 10.5257 8.20168 11.1724 8.79621C12.1593 9.78545 11.8287 11.3448 11.3766 12.5193C10.6764 14.2297 9.62142 15.7648 8.78032 17.407C6.8064 21.1593 5.1874 25.2235 5.00265 29.507C4.95889 31.9045 5.07558 34.4386 6.09657 36.6412C6.13546 36.6997 6.17436 36.7435 6.21812 36.7825C6.22298 38.2347 6.86474 39.6479 7.61347 40.8711C8.69767 42.5913 10.0638 44.1166 11.0119 45.9245C11.0508 45.9927 11.0848 46.0658 11.1189 46.134C9.60197 44.3212 7.83712 42.7229 6.35425 40.8711ZM48.1176 39.1996C46.6105 43.4246 44.0142 47.2013 40.7957 50.3054C38.2918 49.9351 30.7365 48.9946 26.2004 50.437C21.6594 51.8795 17.0406 57.0157 15.5772 58.7554C14.4881 58.2048 13.438 57.5615 12.5385 56.7331C11.6245 55.9046 10.8515 54.9398 10.1027 53.9603C9.10606 52.6202 8.12397 51.1582 7.75446 49.5062C7.4822 47.9079 8.95048 47.8153 9.85965 48.7412C10.764 49.5696 11.3863 50.7489 12.524 51.2898C14.352 52.1426 15.8932 50.3444 17.2643 49.3844C18.9611 48.1125 20.8086 46.982 22.8311 46.3095C25.0676 45.6565 27.552 45.9245 29.6085 47.021C30.4302 47.4742 31.2518 47.9712 31.8839 48.6778C32.1075 48.9458 32.1416 49.3113 32.5743 49.3211C32.9049 49.3406 33.1869 49.0384 33.1577 48.7119C33.1285 48.3416 32.7833 47.9517 32.5159 47.6788C30.3524 45.6467 27.3137 44.5698 24.3529 44.8622C21.251 45.1838 18.5332 47.0063 16.1023 48.8532C15.3487 49.399 14.6291 50.1105 13.72 50.3737C13.6713 50.3785 13.6227 50.3785 13.5741 50.3785C13.4769 49.3406 13.2289 48.3172 12.8789 47.3328C12.0912 45.062 10.6132 43.1517 9.21788 41.2317C8.49347 40.2035 7.76905 39.0193 7.4822 37.7572C7.26342 36.8654 7.24883 35.0818 8.38651 34.8576C9.56308 35.2134 9.95203 36.9287 10.3361 37.9618C10.5646 38.5758 10.7299 39.3117 11.3182 39.6869C11.7752 39.9793 12.3975 39.8087 12.733 39.4091C13.4866 38.4004 14.2402 37.3624 15.2855 36.6315C17.1379 35.306 19.5153 34.7748 21.7566 35.1988C22.5491 35.3255 23.2833 35.6471 23.9347 36.0954C23.9153 36.0711 23.8958 36.0467 23.8764 36.0223C23.8667 36.0077 23.8618 35.9931 23.8521 35.9785C23.8764 36.0223 23.9056 36.0613 23.9396 36.1003C24.0125 36.149 24.0855 36.2026 24.1535 36.2562C24.3723 36.3439 24.5862 36.2855 24.7321 36.1539C25.1745 35.998 25.6607 35.3498 25.9962 35.0672C27.6735 33.4347 28.7869 31.2856 29.4092 29.044C30.9407 23.284 27.6443 17.2852 23.9542 13.0456C23.7111 12.7678 23.4534 12.4998 23.1957 12.2366C23.045 12.0807 22.8846 11.9394 22.7387 11.7786C22.6463 11.6762 22.2963 11.3448 22.4762 11.2133C22.8797 10.9063 23.5555 11.0914 23.9931 11.2035C24.8196 11.4131 25.6121 11.7444 26.3948 12.0807C26.7109 12.2171 27.0317 12.3536 27.3478 12.4852C27.5714 12.5777 27.8048 12.6898 28.043 12.7483C29.0543 13.1138 29.8905 12.1684 30.6295 11.6129C31.5873 10.8234 32.5354 10.0291 33.498 9.24941C33.9793 8.86443 34.4753 8.47945 34.9906 8.09448C35.049 8.04575 35.1122 7.99701 35.1802 7.95316C35.1802 7.95316 40.0858 10.6334 43.8441 8.25529C45.2346 10.2338 46.3625 12.4072 47.2571 14.6488C48.2781 17.3485 49.1581 20.1213 49.6637 22.9672C49.761 23.5569 49.8436 24.1465 49.9117 24.7411C49.9749 25.0139 49.9214 25.3502 49.9943 25.628C49.9943 25.6572 49.9943 25.6913 49.9943 25.7205C50.0235 26.5441 50.0332 27.3725 50.0429 28.1961C50.0721 31.924 49.3282 35.6617 48.1176 39.1996Z" fill="#340077"/>
<path d="M41.9528 10.9842C42.3271 10.7844 42.789 10.7308 42.7258 10.1753C42.507 9.33223 41.6319 9.82929 41.1554 10.1266C40.465 10.5603 39.8427 11.1061 39.3371 11.7493C38.7391 12.5193 38.3647 13.4549 38.2286 14.4198C38.1848 14.7268 38.4376 15.0143 38.7342 15.0484C39.4392 15.1069 39.3517 14.2785 39.5267 13.8155C39.6871 13.299 39.9448 12.8165 40.2803 12.3926C40.7422 11.8224 41.3159 11.3448 41.9528 10.9842Z" fill="#340077"/>
<path d="M33.5906 17.1144C34.0135 17.3727 34.5678 16.9048 34.4025 16.4419C34.2421 15.9351 32.7008 15.3942 32.1806 15.3893C31.0332 15.3455 29.8907 15.7743 28.9523 16.4224C28.6752 16.6368 28.2911 16.8512 28.296 17.246C28.2863 17.7528 28.9912 17.9964 29.2927 17.6017C29.6816 17.2606 30.1386 17.0121 30.6151 16.822C31.7187 16.3591 32.589 16.4565 33.5906 17.1144ZM29.3656 17.5042C29.3462 17.5384 29.3218 17.5725 29.2975 17.6017C29.3462 17.5432 29.3802 17.4799 29.4045 17.4068C29.3948 17.4409 29.3802 17.4701 29.3656 17.5042Z" fill="#340077"/>
<path d="M24.0709 19.4C25.2717 20.1943 25.2474 18.8542 24.9217 18.3913C22.306 12.8749 14.4055 14.1809 11.6148 18.8834C8.40593 23.7761 11.3619 31.3002 17.4052 31.7972C21.4211 32.1335 25.1648 30.1257 26.2927 26.1054C26.4921 25.5547 26.7692 24.663 26.0059 24.4339C25.3981 24.2926 24.8682 24.7556 24.3772 25.0382C23.1179 25.8715 21.6156 26.8266 20.0598 26.2516C19.2284 25.9446 18.6207 25.2477 18.1345 24.5314C17.2886 23.24 17.5268 21.4906 18.5721 20.3844C19.9042 18.8493 22.2768 18.5618 24.0709 19.4Z" fill="#FF87F3"/>
<path d="M36.6633 16.6467C35.8903 17.0365 36.1966 17.7821 36.8481 18.0989C37.13 18.2548 37.4315 18.3571 37.7281 18.4838C37.8982 18.5521 38.0587 18.6544 38.2483 18.669C39.3033 18.6349 39.0894 17.1632 39.0067 16.442C38.6858 15.2189 37.3099 16.3104 36.6633 16.6467Z" fill="#FF87F3"/>
</g>
<path d="M85.2952 12.9501C85.2952 14.9025 84.5888 16.585 83.1762 17.9977C81.7635 19.397 80.081 20.0967 78.1285 20.0967C76.1695 20.0967 74.4869 19.397 73.0809 17.9977C71.6682 16.585 70.9619 14.9025 70.9619 12.9501C70.9619 11.0043 71.6682 9.3251 73.0809 7.91243C74.4936 6.49976 76.1761 5.79342 78.1285 5.79342C80.081 5.79342 81.7635 6.49976 83.1762 7.91243C84.5888 9.3251 85.2952 11.0043 85.2952 12.9501ZM83.2461 12.9501C83.2461 11.5507 82.743 10.348 81.7368 9.34176C80.7307 8.33556 79.5279 7.83247 78.1285 7.83247C76.7292 7.83247 75.5264 8.33556 74.5202 9.34176C73.514 10.348 73.0109 11.5507 73.0109 12.9501C73.0109 14.3494 73.514 15.5522 74.5202 16.5584C75.5264 17.5646 76.7292 18.0677 78.1285 18.0677C79.5279 18.0677 80.7307 17.5646 81.7368 16.5584C82.743 15.5522 83.2461 14.3494 83.2461 12.9501ZM94.251 13.8097C94.251 13.1167 93.9978 12.5169 93.4913 12.0105C92.9849 11.5041 92.3852 11.2509 91.6922 11.2509C90.9992 11.2509 90.3994 11.5041 89.893 12.0105C89.3866 12.5169 89.1334 13.1167 89.1334 13.8097V19.9268H87.0843V13.8097C87.0843 12.5902 87.5475 11.5174 88.4737 10.5912C89.3999 9.66494 90.4727 9.20182 91.6922 9.20182C92.9049 9.20182 93.9744 9.66494 94.9007 10.5912C95.8336 11.5241 96.3 12.5969 96.3 13.8097V19.9268H94.251V13.8097ZM109.014 18.7573C109.014 20.2366 108.474 21.5094 107.395 22.5755C106.322 23.655 105.039 24.1948 103.547 24.1948C102.62 24.1948 101.741 23.9582 100.908 23.4851C100.488 23.2519 100.112 22.9754 99.7784 22.6555C99.4519 22.3423 99.1553 21.9858 98.8888 21.586L100.618 20.4565C101.364 21.5827 102.341 22.1457 103.547 22.1457C104.559 22.1457 105.369 21.8126 105.975 21.1462C106.542 20.5198 106.865 19.7002 106.945 18.6874C105.932 19.6269 104.743 20.0967 103.377 20.0967C101.911 20.0967 100.661 19.5603 99.6284 18.4875C98.6023 17.4213 98.0892 16.1452 98.0892 14.6593C98.0892 13.1666 98.6256 11.8839 99.6984 10.8111C100.791 9.73824 102.074 9.20182 103.547 9.20182C105.039 9.20182 106.322 9.73824 107.395 10.8111C108.474 11.8839 109.014 13.1666 109.014 14.6593V18.7573ZM106.965 14.6593C106.965 13.733 106.628 12.9334 105.955 12.2604C105.282 11.5874 104.479 11.2509 103.547 11.2509C102.614 11.2509 101.811 11.5874 101.138 12.2604C100.471 12.9267 100.138 13.7264 100.138 14.6593C100.138 15.5988 100.471 16.4018 101.138 17.0681C101.804 17.7345 102.607 18.0677 103.547 18.0677C104.486 18.0677 105.289 17.7345 105.955 17.0681C106.628 16.3951 106.965 15.5922 106.965 14.6593ZM76.8491 40.9268H74.8001V29.0024H70.5421V26.9633H81.1171V29.0024H76.8491V40.9268ZM82.9163 30.3717H84.9553V40.9268H82.9163V30.3717ZM82.9163 26.9633H84.9553V29.0024H82.9163V26.9633ZM94.7707 34.8097C94.7707 34.1167 94.5175 33.5169 94.0111 33.0105C93.5047 32.5041 92.9049 32.2509 92.2119 32.2509C91.5189 32.2509 90.9192 32.5041 90.4128 33.0105C89.9063 33.5169 89.6531 34.1167 89.6531 34.8097V40.9268H87.6041V34.8097C87.6041 33.5902 88.0672 32.5174 88.9934 31.5912C89.9197 30.6649 90.9925 30.2018 92.2119 30.2018C93.4247 30.2018 94.4942 30.6649 95.4204 31.5912C96.3533 32.5241 96.8198 33.5969 96.8198 34.8097V40.9268H94.7707V34.8097ZM99.4685 30.3717H101.508V40.9268H99.4685V30.3717ZM99.4685 26.9633H101.508V29.0024H99.4685V26.9633ZM114.651 35.5193C114.638 37.0719 114.112 38.388 113.072 39.4675C112.033 40.5536 110.743 41.0967 109.204 41.0967C107.685 41.0967 106.392 40.5736 105.326 39.5274C104.26 38.4813 103.727 37.1985 103.727 35.6792C103.727 34.1733 104.256 32.8839 105.316 31.8111C106.375 30.7382 107.661 30.2018 109.174 30.2018C110.28 30.2018 111.29 30.5083 112.203 31.1214C113.115 31.7344 113.798 32.5574 114.252 33.5902L107.025 38.288C107.671 38.8078 108.398 39.0677 109.204 39.0677C110.177 39.0677 110.98 38.7212 111.613 38.0281C112.246 37.3351 112.569 36.4989 112.582 35.5193H114.651ZM111.353 33.0305C110.7 32.5107 109.974 32.2509 109.174 32.2509C108.228 32.2509 107.425 32.5874 106.765 33.2604C106.105 33.9334 105.776 34.7397 105.776 35.6792C105.776 35.9325 105.822 36.2257 105.915 36.5588L111.353 33.0305ZM128.305 36.9387C128.305 38.0248 127.908 38.9644 127.116 39.7573C126.323 40.537 125.383 40.9268 124.297 40.9268H116.88V26.9633H123.957C125.043 26.9633 125.983 27.3598 126.776 28.1528C127.569 28.9457 127.965 29.8853 127.965 30.9715C127.965 32.1842 127.482 33.1438 126.516 33.8501C127.709 34.5431 128.305 35.5726 128.305 36.9387ZM126.256 36.9387C126.256 36.4056 126.063 35.9458 125.676 35.5593C125.29 35.1728 124.83 34.9796 124.297 34.9796H118.919V38.8977H124.297C124.823 38.8977 125.28 38.7045 125.666 38.318C126.059 37.9249 126.256 37.4651 126.256 36.9387ZM125.916 30.9715C125.916 30.4317 125.723 29.9686 125.336 29.5821C124.95 29.1956 124.49 29.0024 123.957 29.0024H118.919V32.9305H123.957C124.49 32.9305 124.95 32.7373 125.336 32.3508C125.723 31.9643 125.916 31.5045 125.916 30.9715ZM131.394 30.3717H133.433V40.9268H131.394V30.3717ZM131.394 26.9633H133.433V29.0024H131.394V26.9633ZM140.859 32.2509C140.099 32.2509 139.456 32.4941 138.93 32.9805C138.397 33.4603 138.13 34.07 138.13 34.8097V40.9268H136.081V34.8097C136.081 33.5436 136.558 32.4641 137.511 31.5712C138.47 30.6716 139.586 30.2151 140.859 30.2018V32.2509ZM152.714 35.6593C152.714 37.1519 152.177 38.4346 151.104 39.5075C150.031 40.567 148.745 41.0967 147.246 41.0967C145.74 41.0967 144.454 40.567 143.388 39.5075C142.322 38.4413 141.789 37.1586 141.789 35.6593C141.789 34.1666 142.302 32.8872 143.328 31.8211C144.354 30.7416 145.604 30.2018 147.076 30.2018C148.462 30.2018 149.658 30.6849 150.664 31.6511V26.9633H152.714V35.6593ZM150.664 35.6593C150.664 34.733 150.328 33.9334 149.655 33.2604C148.982 32.5874 148.179 32.2509 147.246 32.2509C146.313 32.2509 145.51 32.5874 144.837 33.2604C144.171 33.9267 143.838 34.7264 143.838 35.6593C143.838 36.5988 144.171 37.4018 144.837 38.0681C145.504 38.7345 146.307 39.0677 147.246 39.0677C148.186 39.0677 148.989 38.7345 149.655 38.0681C150.328 37.3951 150.664 36.5922 150.664 35.6593ZM82.5265 52.3413C82.0267 51.5816 81.3903 50.9753 80.6174 50.5221C79.8444 50.0624 79.0148 49.8325 78.1285 49.8325C76.7292 49.8325 75.5264 50.3356 74.5202 51.3418C73.514 52.348 73.0109 53.5507 73.0109 54.9501C73.0109 56.3494 73.514 57.5522 74.5202 58.5584C75.5264 59.5646 76.7292 60.0677 78.1285 60.0677C79.0148 60.0677 79.8511 59.8344 80.6374 59.368C81.397 58.9282 82.0234 58.3318 82.5165 57.5788L84.2357 58.7083C83.5693 59.7478 82.6864 60.5741 81.5869 61.1871C80.5208 61.7935 79.368 62.0967 78.1285 62.0967C76.1695 62.0967 74.4869 61.397 73.0809 59.9977C71.6682 58.585 70.9619 56.9025 70.9619 54.9501C70.9619 53.0043 71.6682 51.3251 73.0809 49.9124C74.4936 48.4998 76.1761 47.7934 78.1285 47.7934C79.348 47.7934 80.5141 48.1033 81.6269 48.723C82.6864 49.3427 83.5627 50.179 84.2557 51.2318L82.5265 52.3413ZM94.4309 60.6674C93.418 61.6203 92.2219 62.0967 90.8426 62.0967C89.3766 62.0967 88.1272 61.5603 87.0943 60.4875C86.0681 59.4213 85.5551 58.1452 85.5551 56.6593C85.5551 55.16 86.0881 53.8772 87.1543 52.8111C88.2271 51.7382 89.5132 51.2018 91.0125 51.2018C92.5118 51.2018 93.7978 51.7382 94.8707 52.8111C95.9435 53.8839 96.4799 55.1666 96.4799 56.6593V61.9268H94.4309V60.6674ZM94.4309 56.6593C94.4309 55.733 94.0944 54.9334 93.4214 54.2604C92.7483 53.5874 91.9454 53.2509 91.0125 53.2509C90.0796 53.2509 89.2766 53.5874 88.6036 54.2604C87.9373 54.9267 87.6041 55.7264 87.6041 56.6593C87.6041 57.5988 87.9373 58.4018 88.6036 59.0681C89.27 59.7345 90.0729 60.0677 91.0125 60.0677C91.952 60.0677 92.755 59.7345 93.4214 59.0681C94.0944 58.3951 94.4309 57.5922 94.4309 56.6593ZM101.598 61.9268H99.5485V53.4208H97.8493V51.3717H99.5485V47.9633H101.598V51.3717H103.307V53.4208H101.598V61.9268ZM111.413 58.9782C111.413 59.8444 111.1 60.5808 110.473 61.1871C109.847 61.7935 109.104 62.0967 108.244 62.0967C107.485 62.0967 106.818 61.8601 106.245 61.387C105.672 60.9073 105.302 60.2876 105.136 59.5279L107.115 58.9982C107.248 59.7112 107.625 60.0677 108.244 60.0677C108.538 60.0677 108.801 59.961 109.034 59.7478C109.267 59.5279 109.384 59.2714 109.384 58.9782C109.384 58.4917 109.014 58.0886 108.274 57.7687C107.082 57.2357 106.395 56.8991 106.215 56.7592C105.476 56.2128 105.106 55.4165 105.106 54.3703C105.106 53.5174 105.416 52.7744 106.035 52.1414C106.662 51.515 107.408 51.2018 108.274 51.2018C109.041 51.2018 109.707 51.445 110.273 51.9315C110.82 52.3979 111.183 53.0143 111.363 53.7806L109.364 54.3004C109.211 53.6007 108.847 53.2509 108.274 53.2509C107.975 53.2509 107.711 53.3641 107.485 53.5907C107.258 53.8173 107.145 54.0771 107.145 54.3703C107.145 54.8501 107.515 55.2533 108.254 55.5798C108.841 55.833 109.301 56.0462 109.634 56.2195C109.974 56.3861 110.197 56.5093 110.303 56.5893C111.043 57.149 111.413 57.9453 111.413 58.9782Z" fill="white"/>
<defs>
<clipPath id="clip0_508_239">
<rect width="51.176" height="60.7288" fill="white"/>
</clipPath>
</defs>
</svg>
