<svg width="535" height="362" viewBox="0 0 535 362" fill="none" xmlns="http://www.w3.org/2000/svg">
<path opacity="0.4" d="M96.5018 47.2072C96.5018 59.8872 91.9145 70.8145 82.7399 79.9891C73.5653 89.0772 62.638 93.6212 49.958 93.6212C37.2347 93.6212 26.3074 89.0772 17.1761 79.9891C8.0015 70.8145 3.4142 59.8872 3.4142 47.2072C3.4142 34.5705 8.0015 23.6649 17.1761 14.4903C26.3507 5.31565 37.278 0.728348 49.958 0.728348C62.638 0.728348 73.5653 5.31565 82.7399 14.4903C91.9145 23.6649 96.5018 34.5705 96.5018 47.2072ZM83.1943 47.2072C83.1943 38.1192 79.9269 30.3078 73.3922 23.773C66.8574 17.2383 59.0461 13.9709 49.958 13.9709C40.87 13.9709 33.0586 17.2383 26.5238 23.773C19.9891 30.3078 16.7217 38.1192 16.7217 47.2072C16.7217 56.2953 19.9891 64.1067 26.5238 70.6414C33.0586 77.1762 40.87 80.4435 49.958 80.4435C59.0461 80.4435 66.8574 77.1762 73.3922 70.6414C79.9269 64.1067 83.1943 56.2953 83.1943 47.2072ZM154.665 52.7899C154.665 48.2891 153.021 44.3943 149.732 41.1053C146.443 37.8163 142.548 36.1717 138.047 36.1717C133.546 36.1717 129.652 37.8163 126.363 41.1053C123.074 44.3943 121.429 48.2891 121.429 52.7899V92.5177H108.122V52.7899C108.122 44.8703 111.129 37.9028 117.145 31.8874C123.16 25.872 130.128 22.8642 138.047 22.8642C145.923 22.8642 152.869 25.872 158.885 31.8874C164.943 37.9461 167.973 44.9136 167.973 52.7899V92.5177H154.665V52.7899ZM250.544 84.9227C250.544 94.53 247.039 102.796 240.028 109.72C233.061 116.731 224.73 120.236 215.036 120.236C209.021 120.236 203.308 118.7 197.898 115.627C195.172 114.113 192.727 112.317 190.563 110.239C188.443 108.205 186.517 105.89 184.786 103.293L196.016 95.9581C200.863 103.272 207.203 106.929 215.036 106.929C221.614 106.929 226.872 104.765 230.81 100.437C234.489 96.3693 236.588 91.0463 237.107 84.4682C230.529 90.5702 222.804 93.6212 213.932 93.6212C204.412 93.6212 196.297 90.1375 189.589 83.17C182.925 76.2457 179.593 67.9583 179.593 58.3076C179.593 48.6137 183.076 40.283 190.044 33.3155C197.141 26.348 205.472 22.8642 215.036 22.8642C224.73 22.8642 233.061 26.348 240.028 33.3155C247.039 40.283 250.544 48.6137 250.544 58.3076V84.9227ZM237.237 58.3076C237.237 52.2922 235.051 47.099 230.68 42.7281C226.309 38.3572 221.095 36.1717 215.036 36.1717C208.977 36.1717 203.762 38.3572 199.392 42.7281C195.064 47.0558 192.9 52.2489 192.9 58.3076C192.9 64.4096 195.064 69.6244 199.392 73.9521C203.719 78.2797 208.934 80.4435 215.036 80.4435C221.138 80.4435 226.353 78.2797 230.68 73.9521C235.051 69.5812 237.237 64.3663 237.237 58.3076ZM41.6489 226.518H28.3414V149.074H0.687781V135.832H69.3675V149.074H41.6489V226.518ZM81.0521 157.968H94.2947V226.518H81.0521V157.968ZM81.0521 135.832H94.2947V149.074H81.0521V135.832ZM158.041 186.79C158.041 182.289 156.396 178.394 153.107 175.105C149.818 171.816 145.923 170.172 141.423 170.172C136.922 170.172 133.027 171.816 129.738 175.105C126.449 178.394 124.805 182.289 124.805 186.79V226.518H111.497V186.79C111.497 178.87 114.505 171.903 120.52 165.887C126.536 159.872 133.503 156.864 141.423 156.864C149.299 156.864 156.245 159.872 162.26 165.887C168.319 171.946 171.348 178.914 171.348 186.79V226.518H158.041V186.79ZM188.551 157.968H201.793V226.518H188.551V157.968ZM188.551 135.832H201.793V149.074H188.551V135.832ZM287.156 191.399C287.07 201.482 283.651 210.029 276.9 217.04C270.148 224.094 261.775 227.621 251.778 227.621C241.911 227.621 233.515 224.224 226.591 217.43C219.667 210.635 216.204 202.305 216.204 192.437C216.204 182.657 219.645 174.283 226.526 167.316C233.407 160.348 241.759 156.864 251.583 156.864C258.767 156.864 265.323 158.855 271.252 162.836C277.181 166.818 281.617 172.162 284.56 178.87L237.626 209.38C241.824 212.756 246.541 214.444 251.778 214.444C258.096 214.444 263.311 212.193 267.422 207.692C271.533 203.192 273.632 197.76 273.719 191.399H287.156ZM265.734 175.235C261.493 171.86 256.776 170.172 251.583 170.172C245.438 170.172 240.223 172.357 235.938 176.728C231.654 181.099 229.512 186.335 229.512 192.437C229.512 194.082 229.815 195.986 230.421 198.15L265.734 175.235ZM375.83 200.617C375.83 207.671 373.255 213.773 368.105 218.923C362.955 223.986 356.853 226.518 349.799 226.518H301.632V135.832H347.592C354.646 135.832 360.748 138.407 365.898 143.557C371.048 148.707 373.622 154.809 373.622 161.863C373.622 169.739 370.485 175.971 364.21 180.558C371.956 185.059 375.83 191.745 375.83 200.617ZM362.522 200.617C362.522 197.155 361.267 194.169 358.757 191.658C356.247 189.148 353.261 187.893 349.799 187.893H314.875V213.34H349.799C353.218 213.34 356.182 212.085 358.692 209.575C361.245 207.022 362.522 204.036 362.522 200.617ZM360.315 161.863C360.315 158.357 359.06 155.35 356.55 152.84C354.04 150.33 351.054 149.074 347.592 149.074H314.875V174.586H347.592C351.054 174.586 354.04 173.331 356.55 170.821C359.06 168.311 360.315 165.325 360.315 161.863ZM395.888 157.968H409.131V226.518H395.888V157.968ZM395.888 135.832H409.131V149.074H395.888V135.832ZM457.362 170.172C452.429 170.172 448.253 171.751 444.834 174.911C441.372 178.026 439.641 181.986 439.641 186.79V226.518H426.333V186.79C426.333 178.567 429.427 171.557 435.616 165.758C441.848 159.915 449.097 156.951 457.362 156.864V170.172ZM534.351 192.308C534.351 202.002 530.867 210.332 523.9 217.3C516.932 224.181 508.58 227.621 498.843 227.621C489.062 227.621 480.71 224.181 473.786 217.3C466.862 210.376 463.399 202.045 463.399 192.308C463.399 182.614 466.732 174.305 473.396 167.38C480.061 160.37 488.175 156.864 497.739 156.864C506.741 156.864 514.509 160.002 521.044 166.277V135.832H534.351V192.308ZM521.044 192.308C521.044 186.292 518.858 181.099 514.487 176.728C510.116 172.357 504.902 170.172 498.843 170.172C492.784 170.172 487.569 172.357 483.198 176.728C478.871 181.056 476.707 186.249 476.707 192.308C476.707 198.41 478.871 203.624 483.198 207.952C487.526 212.28 492.741 214.444 498.843 214.444C504.945 214.444 510.16 212.28 514.487 207.952C518.858 203.581 521.044 198.366 521.044 192.308ZM78.5204 298.265C75.2747 293.331 71.1418 289.393 66.1217 286.45C61.1017 283.464 55.7138 281.971 49.958 281.971C40.87 281.971 33.0586 285.238 26.5238 291.773C19.9891 298.308 16.7217 306.119 16.7217 315.207C16.7217 324.295 19.9891 332.107 26.5238 338.641C33.0586 345.176 40.87 348.444 49.958 348.444C55.7138 348.444 61.145 346.929 66.2516 343.9C71.1851 341.043 75.2531 337.17 78.4555 332.28L89.6209 339.615C85.2932 346.366 79.5591 351.733 72.4185 355.714C65.4942 359.652 58.0074 361.621 49.958 361.621C37.2347 361.621 26.3074 357.077 17.1761 347.989C8.0015 338.815 3.4142 327.887 3.4142 315.207C3.4142 302.571 8.0015 291.665 17.1761 282.49C26.3507 273.316 37.278 268.728 49.958 268.728C57.8776 268.728 65.451 270.741 72.6781 274.765C79.5591 278.79 85.2499 284.221 89.7507 291.059L78.5204 298.265ZM155.834 352.338C149.256 358.527 141.488 361.621 132.529 361.621C123.009 361.621 114.894 358.137 108.186 351.17C101.522 344.246 98.1896 335.958 98.1896 326.308C98.1896 316.57 101.652 308.24 108.576 301.316C115.543 294.348 123.896 290.864 133.633 290.864C143.37 290.864 151.723 294.348 158.69 301.316C165.658 308.283 169.141 316.614 169.141 326.308V360.518H155.834V352.338ZM155.834 326.308C155.834 320.292 153.648 315.099 149.277 310.728C144.906 306.357 139.692 304.172 133.633 304.172C127.574 304.172 122.359 306.357 117.989 310.728C113.661 315.056 111.497 320.249 111.497 326.308C111.497 332.41 113.661 337.624 117.989 341.952C122.316 346.28 127.531 348.444 133.633 348.444C139.735 348.444 144.95 346.28 149.277 341.952C153.648 337.581 155.834 332.366 155.834 326.308ZM202.378 360.518H189.07V305.275H178.035V291.968H189.07V269.832H202.378V291.968H213.478V305.275H202.378V360.518ZM266.124 341.368C266.124 346.994 264.09 351.776 260.022 355.714C255.954 359.652 251.129 361.621 245.546 361.621C240.612 361.621 236.285 360.085 232.563 357.012C228.841 353.896 226.439 349.872 225.357 344.938L238.21 341.498C239.076 346.128 241.521 348.444 245.546 348.444C247.45 348.444 249.159 347.751 250.674 346.366C252.189 344.938 252.946 343.272 252.946 341.368C252.946 338.209 250.544 335.59 245.741 333.513C237.994 330.051 233.537 327.866 232.368 326.957C227.564 323.408 225.163 318.237 225.163 311.442C225.163 305.903 227.175 301.077 231.2 296.966C235.268 292.898 240.115 290.864 245.741 290.864C250.717 290.864 255.045 292.444 258.724 295.603C262.272 298.632 264.631 302.635 265.799 307.612L252.816 310.988C251.821 306.444 249.462 304.172 245.741 304.172C243.793 304.172 242.084 304.907 240.612 306.379C239.141 307.85 238.405 309.538 238.405 311.442C238.405 314.558 240.807 317.176 245.611 319.297C249.419 320.941 252.405 322.326 254.569 323.451C256.776 324.533 258.226 325.334 258.918 325.853C263.722 329.488 266.124 334.66 266.124 341.368Z" fill="#461A7E"/>
</svg>
