<svg width="309" height="120" viewBox="0 0 309 120" fill="none" xmlns="http://www.w3.org/2000/svg">
<g clip-path="url(#clip0_452_1238)">
<path d="M11.4853 76.3882C9.05245 73.2959 6.86641 69.9651 5.26213 66.3604C3.35816 61.7219 2.35328 56.7919 2.09766 51.8089C2.59128 50.9431 5.58828 45.6862 7.60684 43.1859C9.81052 40.4558 12.7811 35.2519 11.7057 29.5798C10.9652 25.6924 10.1278 23.4394 9.66948 22.4057C10.2336 21.6636 10.8418 20.9479 11.4941 20.2676C12.737 19.066 14.0768 17.8203 15.7781 17.3255C17.2854 16.8573 19.0483 17.1576 20.2207 18.2355C22.0101 20.0291 21.4107 22.8563 20.5909 24.9856C19.3216 28.0867 17.4088 30.8697 15.8838 33.8472C12.3051 40.6502 9.36978 48.0187 9.03482 55.7847C8.95549 60.1316 9.16704 64.7259 11.0181 68.7193C11.0886 68.8254 11.1592 68.9049 11.2385 68.9756C11.2473 71.6084 12.4109 74.1706 13.7683 76.3882C15.734 79.507 18.2109 82.2724 19.9298 85.5502C20.0003 85.6739 20.062 85.8064 20.1237 85.9301C17.3735 82.6435 14.1738 79.7455 11.4853 76.3882Z" fill="white"/>
<path d="M87.2035 73.3577C84.471 81.0178 79.7639 87.865 73.9286 93.4929C69.389 92.8215 55.691 91.1163 47.4669 93.7315C39.2339 96.3467 30.86 105.659 28.2068 108.813C26.2323 107.815 24.3283 106.648 22.6976 105.146C21.0404 103.644 19.6389 101.895 18.2814 100.119C16.4744 97.6896 14.6938 95.0391 14.0239 92.044C13.5303 89.1461 16.1923 88.9782 17.8407 90.6569C19.4802 92.1588 20.6085 94.2969 22.6711 95.2776C25.9855 96.8238 28.7797 93.5636 31.2655 91.8231C34.3418 89.5172 37.6914 87.4674 41.3583 86.2482C45.4219 85.0643 49.9174 85.5502 53.646 87.5381C55.1357 88.3597 56.6253 89.2609 57.7713 90.542C58.1767 91.028 58.2384 91.6906 59.0229 91.7083C59.6223 91.7436 60.1336 91.1958 60.0807 90.6039C60.0278 89.9324 59.402 89.2256 58.9172 88.7308C54.9946 85.0466 49.4854 83.094 44.1173 83.6241C38.4935 84.2073 33.5661 87.5116 29.1588 90.8601C27.7925 91.8496 26.4879 93.1395 24.8396 93.6166C24.7514 93.6255 24.6633 93.6255 24.5751 93.6255C24.3988 91.7436 23.9493 89.8882 23.3146 88.1035C21.8866 83.9864 19.207 80.523 16.6771 77.042C15.3638 75.1778 14.0504 73.0308 13.5303 70.7425C13.1336 69.1257 13.1072 65.8921 15.1698 65.4857C17.303 66.1306 18.0082 69.2406 18.7045 71.1136C19.1188 72.2268 19.4185 73.5609 20.4851 74.2412C21.3137 74.7713 22.442 74.4621 23.0502 73.7376C24.4164 71.9176 25.7827 70.0269 27.6779 68.7016C31.0363 66.2985 35.3467 65.3355 39.4102 66.1041C40.847 66.3338 42.1781 66.9169 43.3592 67.7298C43.324 67.6856 43.2887 67.6414 43.2535 67.5972C43.2358 67.5707 43.227 67.5442 43.2094 67.5177C43.2535 67.5972 43.3063 67.6679 43.368 67.7386C43.5003 67.827 43.6325 67.9241 43.7559 68.0213C44.1526 68.1804 44.5404 68.0743 44.8048 67.8358C45.607 67.5531 46.4884 66.378 47.0967 65.8656C50.1377 62.9058 52.1563 59.0095 53.2846 54.9454C56.0612 44.5023 50.0848 33.6263 43.3945 25.9397C42.9538 25.4361 42.4866 24.9502 42.0194 24.4731C41.7461 24.1904 41.4553 23.9341 41.1908 23.6426C41.0233 23.4571 40.3887 22.8563 40.7148 22.6177C41.4464 22.0699 42.6717 22.3968 43.465 22.6C44.9635 22.98 46.4003 23.5807 47.8195 24.1904C48.3924 24.4377 48.9742 24.6851 49.5471 24.9237C49.9526 25.0915 50.3757 25.2948 50.8076 25.4008C52.6411 26.0634 54.1572 24.3494 55.4971 23.3422C57.2336 21.9109 58.9524 20.4708 60.6977 19.0572C61.5704 18.3592 62.4695 17.6612 63.4039 16.9633C63.5096 16.8749 63.6242 16.7865 63.7476 16.707C63.7476 16.707 72.6417 21.5663 79.4554 17.2548C81.9764 20.8419 84.0214 24.7823 85.6433 28.8465C87.4944 33.7411 89.0899 38.7683 90.0066 43.928C90.1829 44.997 90.3328 46.0661 90.4562 47.144C90.5708 47.6387 90.4738 48.2484 90.606 48.752C90.606 48.805 90.606 48.8668 90.606 48.9198C90.6589 50.413 90.6765 51.9149 90.6942 53.4081C90.747 60.1669 89.3984 66.9434 87.2035 73.3577Z" fill="white"/>
<path d="M43.4033 65.4327L43.3945 65.4238C43.421 65.4503 43.4386 65.4768 43.4651 65.4945C43.4386 65.4857 43.421 65.4592 43.4033 65.4327Z" fill="#53248F"/>
<path d="M60.0538 47.6123C59.093 47.5681 57.7532 47.736 58.0264 49.0171C58.379 50.1568 59.6219 49.5737 60.4769 49.6886C63.897 49.7946 66.7354 52.2066 67.8019 55.4049C68.6481 57.7904 68.5424 60.3702 68.4542 62.8617C68.3044 66.0865 67.6168 69.4527 65.6071 72.0591C65.3867 72.3153 65.1575 72.545 64.9195 72.7482C64.9372 71.2462 64.611 69.1346 64.5229 68.3925C64.135 67.1644 62.328 67.5708 62.5131 68.8431C62.7247 70.4157 62.8921 71.9972 62.8216 73.5787C62.8216 73.6405 62.8216 73.6936 62.8304 73.7466C62.2751 73.8526 61.711 73.8438 61.1645 73.7112C61.2879 71.9707 61.2703 70.2302 61.1468 68.4985C61.1116 67.2439 59.3046 67.1202 59.1018 68.3483C59.0666 69.011 59.19 69.6913 59.1812 70.3627C59.1988 71.1137 59.1988 71.8559 59.1723 72.6068C58.8021 72.2534 58.476 71.8205 58.2027 71.3081C57.3565 69.7089 57.3565 67.8535 57.3918 66.0954C57.4887 63.5509 57.7356 60.9887 57.4182 58.4442C57.1979 57.1012 55.2234 57.4016 55.3732 58.7446C55.6817 61.1742 55.4085 63.6304 55.3291 66.06C55.2146 68.7017 55.4878 71.582 57.3213 73.6405C58.2909 74.7361 59.5866 75.5754 61.0411 75.814C65.2016 76.5296 68.1722 73.0044 69.3357 69.382C70.2877 66.7933 70.5345 64.0103 70.5698 61.2714C70.5786 59.8136 70.5609 58.347 70.3229 56.9069C69.4767 51.6941 65.4925 47.577 60.0538 47.6123Z" fill="#53248F"/>
<path d="M88.244 55.7228C86.9659 55.1043 86.5251 56.8095 86.0756 57.6576C84.9032 60.3082 84.7005 63.2414 84.1628 66.0598C83.7838 68.0831 83.2108 70.1063 82.0825 71.8468C82.0473 71.9087 82.0032 71.9617 81.9679 72.0235C81.9415 71.0693 81.9239 70.1063 81.8886 69.1521C81.871 68.6574 81.8181 68.1714 81.8005 67.6767C81.8357 67.4028 81.7564 67.1112 81.5801 66.8903C80.9454 66.0952 79.6673 66.643 79.7378 67.6413C79.8612 69.6204 79.8877 71.6083 79.9494 73.5962C79.9494 73.658 79.9582 73.7199 79.967 73.7729C79.3764 74.0203 78.7682 74.0733 78.1688 73.9142C78.2041 73.8082 78.2217 73.6934 78.2129 73.5697C78.16 72.103 78.1688 70.6364 78.1512 69.1698C78.1424 68.7015 78.16 68.2509 78.1335 67.7827C77.9132 66.5104 76.0621 66.6871 76.0797 67.9594C76.0885 69.4083 76.0973 70.8573 76.115 72.3063C73.7174 68.8164 74.4931 61.6953 75.1542 57.6488C75.7359 54.1589 76.97 50.6161 79.6585 48.1952C80.9807 46.9672 82.6114 45.8186 84.4625 45.7037C85.6172 45.8628 86.1814 44.0958 84.8503 43.6805C80.3901 43.3978 75.8329 48.4691 74.4226 52.4008C72.9329 56.5003 72.4481 60.9178 72.4745 65.2647C72.4216 69.426 73.4794 75.16 78.2922 76.07C80.6457 76.3792 82.7701 74.7182 83.9336 72.7922C85.9257 69.6734 86.2519 65.9008 86.8865 62.3314C87.1422 60.9443 87.4771 59.5572 88.0677 58.2761C88.4379 57.4368 89.337 56.4031 88.244 55.7228Z" fill="#53248F"/>
<path d="M92.7651 49.9185C92.7475 48.602 92.7211 47.2768 92.6682 45.9603C92.6682 45.872 92.6594 45.7836 92.6594 45.6953C92.6594 45.6334 92.6505 45.5716 92.6505 45.5186C92.6594 45.3949 92.6329 45.28 92.5977 45.174C92.5448 44.7853 92.4831 44.4142 92.4743 44.1049C91.9454 39.5902 90.7818 35.1727 89.3891 30.8523C87.0532 23.6782 83.8094 16.6543 78.9613 10.8231C77.0221 8.51715 66.3475 -2.74761 63.6149 0.627397C62.9626 1.57275 63.4827 7.05935 63.5444 8.68501C63.562 9.77173 63.7295 10.8673 63.5973 11.954C61.1204 13.7917 58.855 15.5676 56.4486 17.582C54.9413 18.7659 53.5574 20.1707 51.8826 21.1248C51.6446 21.2662 51.3978 21.0983 51.1686 21.0188C50.5251 20.7626 49.8816 20.4976 49.2382 20.2237C46.532 19.2341 41.4812 16.4599 39.0748 19.0133C38.5547 19.5787 38.4049 20.4976 38.6693 21.2397C38.7663 22.1144 39.921 22.8035 40.4323 23.475C42.777 25.8693 44.8573 28.5287 46.6466 31.3559C49.485 35.9855 51.7063 41.2159 51.9707 46.6936C52.0765 51.1554 50.481 55.5111 48.1011 59.2218C46.9463 60.821 45.6946 62.1551 44.1873 63.498C42.16 62.0225 39.4538 61.5985 36.9945 61.4836C30.3835 61.3422 25.1035 64.6996 21.4895 70.089C20.2378 67.7477 19.991 64.8675 18.1752 62.8265C16.0596 60.1407 13.3447 60.9093 12.0578 63.2065C11.3702 60.7238 11.1939 58.0998 11.1058 55.5376C10.9736 48.655 13.1596 41.9757 16.0949 35.8265C17.3466 33.1671 18.7746 30.5872 20.2378 28.0427C22.0889 24.7561 24.2132 20.9658 23.2172 17.0607C22.6178 14.7812 20.5551 13.1202 18.2457 12.8287C14.9842 12.2897 12.0754 14.4102 9.94224 16.6543C5.45556 21.3546 2.97863 27.5745 1.56828 33.8386C-1.04969 44.9355 -0.644212 57.2162 4.66224 67.4826C6.98932 71.7588 9.90698 75.7258 13.283 79.2333C15.4514 81.4774 17.6198 83.7392 19.5679 86.1866C20.2378 87.0612 21.0399 88.1656 21.4983 89.2965C21.0576 88.7576 20.6345 88.2098 20.1937 87.7857C19.5679 87.0966 18.8892 86.4516 18.1046 85.948C15.9098 84.6139 12.8511 85.1264 12.1195 87.8476C11.6964 89.4202 12.1459 91.0989 12.7806 92.5567C13.997 95.3662 15.6806 97.9461 17.6287 100.305C20.0439 103.521 23.1026 106.198 26.6549 108.062C31.0799 109.847 33.7948 109.9 35.9544 110.041C50.0491 110.898 63.4651 103.715 73.6284 94.3767C82.3109 86.6195 88.6839 76.4856 91.1344 65C92.3244 60.0612 92.8973 55.0075 92.7651 49.9185ZM40.3353 20.3385C40.3265 20.3385 40.3265 20.3297 40.3177 20.3297H40.3265C40.3618 20.3474 40.4058 20.3739 40.4411 20.3915C40.4411 20.3915 40.4411 20.3915 40.4323 20.3915C40.4323 20.3915 40.4323 20.3915 40.4411 20.3915C40.4587 20.4004 40.4675 20.418 40.4852 20.4269C40.4411 20.4004 40.3882 20.365 40.3353 20.3385ZM11.5201 74.1001C9.08721 71.0079 6.90117 67.677 5.29689 64.0723C3.39292 59.4339 2.38804 54.5039 2.13242 49.5209C2.61723 48.655 5.62304 43.3981 7.6416 40.8978C9.84528 38.1678 12.8158 32.9639 11.7404 27.2917C11 23.4043 10.1626 21.1513 9.70424 20.1176C10.2684 19.3755 10.8766 18.6598 11.5289 17.9795C12.7718 16.778 14.1116 15.5322 15.8128 15.0375C17.3201 14.5692 19.0831 14.8696 20.2554 15.9475C22.0448 17.741 21.4454 20.5682 20.6257 22.6975C19.3563 25.7986 17.4435 28.5817 15.9186 31.5591C12.3398 38.3621 9.40454 45.7306 9.06958 53.4967C8.99025 57.8435 9.2018 62.4378 11.0529 66.4313C11.1234 66.5373 11.1939 66.6168 11.2733 66.6875C11.2821 69.3204 12.4456 71.8825 13.8031 74.1001C15.7688 77.2189 18.2457 79.9843 19.9645 83.2621C20.0351 83.3858 20.0968 83.5184 20.1585 83.6421C17.4083 80.3554 14.2086 77.4575 11.5201 74.1001ZM87.2383 71.0697C84.5058 78.7297 79.7987 85.5769 73.9634 91.2049C69.4238 90.5334 55.7258 88.8283 47.5017 91.4435C39.2687 94.0586 30.8948 103.371 28.2416 106.525C26.2671 105.527 24.3631 104.36 22.7324 102.858C21.0752 101.356 19.6737 99.6071 18.3162 97.8312C16.5092 95.4016 14.7286 92.751 14.0587 89.7559C13.5651 86.858 16.2271 86.6902 17.8755 88.3688C19.515 89.8708 20.6433 92.0089 22.7059 92.9896C26.0202 94.5357 28.8145 91.2756 31.3002 89.5351C34.3766 87.2291 37.7262 85.1794 41.3931 83.9601C45.4478 82.7762 49.9521 83.2621 53.6808 85.25C55.1704 86.0717 56.6601 86.9729 57.806 88.254C58.2115 88.7399 58.2732 89.4025 59.0577 89.4202C59.6571 89.4556 60.1684 88.9078 60.1155 88.3158C60.0626 87.6444 59.4368 86.9375 58.952 86.4428C55.0294 82.7585 49.5202 80.806 44.1521 81.3361C38.5283 81.9192 33.6009 85.2235 29.1935 88.572C27.8273 89.5616 26.5227 90.8515 24.8743 91.3286C24.7862 91.3374 24.698 91.3374 24.6099 91.3374C24.4336 89.4556 23.9841 87.6002 23.3494 85.8155C21.9214 81.6983 19.2417 78.235 16.7119 74.7539C15.3985 72.8897 14.0851 70.7428 13.5651 68.4545C13.1684 66.8377 13.142 63.604 15.2046 63.1976C17.3378 63.8426 18.0429 66.9525 18.7393 68.8256C19.1536 69.9388 19.4533 71.2729 20.5199 71.9532C21.3485 72.4833 22.4767 72.1741 23.085 71.4496C24.4512 69.6207 25.8175 67.7389 27.7127 66.4136C31.0711 64.0104 35.3815 63.0474 39.445 63.8161C40.8818 64.0458 42.2128 64.6289 43.394 65.4417C43.3588 65.3976 43.3235 65.3534 43.2882 65.3092C43.2706 65.2827 43.2618 65.2562 43.2442 65.2297C43.2882 65.3092 43.3411 65.3799 43.4028 65.4506C43.535 65.5389 43.6673 65.6361 43.7907 65.7333C44.1873 65.8923 44.5752 65.7863 44.8396 65.5478C45.6418 65.265 46.5232 64.09 47.1314 63.5775C50.1725 60.6178 52.1911 56.7215 53.3194 52.6573C56.096 42.2142 50.1196 31.3382 43.4293 23.6517C42.9885 23.1481 42.5214 22.6622 42.0542 22.1851C41.7809 21.9023 41.49 21.6461 41.2256 21.3546C41.0581 21.169 40.4235 20.5682 40.7496 20.3297C41.4812 19.7731 42.7065 20.1088 43.4998 20.312C44.9983 20.6919 46.4351 21.2927 47.8543 21.9023C48.4272 22.1497 49.009 22.3971 49.5819 22.6356C49.9874 22.8035 50.4105 23.0067 50.8424 23.1127C52.6759 23.7754 54.192 22.0614 55.5318 21.0542C57.2683 19.6229 58.9872 18.1828 60.7325 16.7691C61.6052 16.0712 62.5043 15.3732 63.4386 14.6752C63.5444 14.5869 63.659 14.4985 63.7824 14.419C63.7824 14.419 72.6764 19.2783 79.4902 14.9668C82.0112 18.5538 84.0562 22.4943 85.6781 26.5584C87.5292 31.4531 89.1247 36.4803 90.0414 41.64C90.2177 42.709 90.3675 43.7781 90.4909 44.8559C90.6055 45.3507 90.5086 45.9603 90.6408 46.4639C90.6408 46.5169 90.6408 46.5788 90.6408 46.6318C90.6937 48.1249 90.7113 49.6269 90.7289 51.12C90.7818 57.8789 89.4332 64.6554 87.2383 71.0697Z" fill="#53248F"/>
<path d="M76.0618 19.9146C76.7405 19.5524 77.5779 19.4552 77.4633 18.448C77.0667 16.9195 75.48 17.8207 74.6162 18.3597C73.3645 19.146 72.2362 20.1355 71.3195 21.3018C70.2353 22.6977 69.5566 24.394 69.3098 26.1434C69.2304 26.7 69.6888 27.2213 70.2265 27.2831C71.5046 27.3891 71.346 25.8872 71.6633 25.0478C71.9542 24.1113 72.4213 23.2366 73.0296 22.468C73.867 21.4343 74.9071 20.5684 76.0618 19.9146Z" fill="#53248F"/>
<path d="M60.9002 31.029C61.667 31.4972 62.6719 30.6491 62.3722 29.8097C62.0813 28.8909 59.2871 27.9102 58.3439 27.9013C56.2636 27.8218 54.1922 28.5993 52.4909 29.7744C51.9885 30.1631 51.2921 30.5519 51.301 31.2675C51.2833 32.1864 52.5615 32.6281 53.108 31.9125C53.8131 31.294 54.6417 30.8434 55.5056 30.4989C57.5065 29.6595 59.0843 29.8362 60.9002 31.029ZM53.2402 31.7358C53.2049 31.7976 53.1609 31.8595 53.1168 31.9125C53.2049 31.8064 53.2666 31.6916 53.3107 31.5591C53.2931 31.6209 53.2666 31.6739 53.2402 31.7358Z" fill="#53248F"/>
<path d="M43.6415 35.1727C45.8187 36.6129 45.7747 34.1832 45.1841 33.3439C40.4418 23.3425 26.1179 25.7103 21.0583 34.2362C15.2406 43.1067 20.5999 56.7481 31.5566 57.6492C38.8375 58.2589 45.6248 54.6188 47.6698 47.3298C48.0312 46.3315 48.5337 44.7146 47.1498 44.2994C46.0479 44.0432 45.0871 44.8825 44.1968 45.3949C41.9138 46.9057 39.1901 48.6374 36.3694 47.5949C34.8621 47.0383 33.7602 45.7749 32.8788 44.4761C31.345 42.1348 31.7769 38.963 33.6721 36.9574C36.0873 34.1744 40.3889 33.6531 43.6415 35.1727Z" fill="#FF87F3"/>
<path d="M66.4716 30.1808C65.07 30.8877 65.6254 32.2394 66.8065 32.8137C67.3178 33.0964 67.8643 33.282 68.402 33.5117C68.7105 33.6354 69.0014 33.8209 69.3452 33.8474C71.258 33.7856 70.8701 31.1174 70.7203 29.8098C70.1385 27.5922 67.6439 29.5712 66.4716 30.1808Z" fill="#FF87F3"/>
</g>
<path d="M154.642 23.2827C154.642 26.8225 153.361 29.873 150.8 32.4342C148.239 34.9713 145.188 36.2398 141.648 36.2398C138.097 36.2398 135.046 34.9713 132.497 32.4342C129.936 29.873 128.655 26.8225 128.655 23.2827C128.655 19.755 129.936 16.7106 132.497 14.1494C135.058 11.5881 138.109 10.3075 141.648 10.3075C145.188 10.3075 148.239 11.5881 150.8 14.1494C153.361 16.7106 154.642 19.755 154.642 23.2827ZM150.927 23.2827C150.927 20.7457 150.015 18.565 148.19 16.7408C146.366 14.9165 144.185 14.0044 141.648 14.0044C139.111 14.0044 136.931 14.9165 135.106 16.7408C133.282 18.565 132.37 20.7457 132.37 23.2827C132.37 25.8198 133.282 28.0004 135.106 29.8247C136.931 31.649 139.111 32.5611 141.648 32.5611C144.185 32.5611 146.366 31.649 148.19 29.8247C150.015 28.0004 150.927 25.8198 150.927 23.2827ZM170.879 24.8412C170.879 23.5848 170.42 22.4975 169.502 21.5793C168.583 20.6611 167.496 20.202 166.24 20.202C164.983 20.202 163.896 20.6611 162.978 21.5793C162.06 22.4975 161.601 23.5848 161.601 24.8412V35.9317H157.886V24.8412C157.886 22.6304 158.725 20.6853 160.404 19.006C162.084 17.3267 164.029 16.4871 166.24 16.4871C168.438 16.4871 170.378 17.3267 172.057 19.006C173.748 20.6974 174.594 22.6424 174.594 24.8412V35.9317H170.879V24.8412ZM197.645 33.8115C197.645 36.4935 196.666 38.801 194.709 40.734C192.764 42.6912 190.438 43.6697 187.732 43.6697C186.053 43.6697 184.458 43.2409 182.948 42.3831C182.187 41.9603 181.504 41.4589 180.9 40.879C180.308 40.3112 179.771 39.6648 179.287 38.94L182.422 36.8922C183.776 38.9339 185.545 39.9548 187.732 39.9548C189.568 39.9548 191.036 39.3507 192.136 38.1426C193.163 37.007 193.749 35.521 193.894 33.6846C192.057 35.3881 189.901 36.2398 187.424 36.2398C184.766 36.2398 182.501 35.2673 180.628 33.3222C178.768 31.3892 177.838 29.0757 177.838 26.3816C177.838 23.6754 178.81 21.3497 180.755 19.4047C182.737 17.4596 185.062 16.4871 187.732 16.4871C190.438 16.4871 192.764 17.4596 194.709 19.4047C196.666 21.3497 197.645 23.6754 197.645 26.3816V33.8115ZM193.93 26.3816C193.93 24.7023 193.32 23.2525 192.099 22.0323C190.879 20.8121 189.424 20.202 187.732 20.202C186.041 20.202 184.585 20.8121 183.365 22.0323C182.157 23.2405 181.553 24.6902 181.553 26.3816C181.553 28.085 182.157 29.5408 183.365 30.7489C184.573 31.957 186.029 32.5611 187.732 32.5611C189.436 32.5611 190.891 31.957 192.099 30.7489C193.32 29.5287 193.93 28.0729 193.93 26.3816ZM139.329 72.9317H135.614V51.3125H127.894V47.6156H147.067V51.3125H139.329V72.9317ZM150.329 53.7951H154.026V72.9317H150.329V53.7951ZM150.329 47.6156H154.026V51.3125H150.329V47.6156ZM171.821 61.8412C171.821 60.5848 171.362 59.4975 170.444 58.5793C169.526 57.6611 168.438 57.202 167.182 57.202C165.926 57.202 164.838 57.6611 163.92 58.5793C163.002 59.4975 162.543 60.5848 162.543 61.8412V72.9317H158.828V61.8412C158.828 59.6304 159.668 57.6853 161.347 56.006C163.026 54.3267 164.971 53.4871 167.182 53.4871C169.381 53.4871 171.32 54.3267 172.999 56.006C174.69 57.6974 175.536 59.6424 175.536 61.8412V72.9317H171.821V61.8412ZM180.338 53.7951H184.035V72.9317H180.338V53.7951ZM180.338 47.6156H184.035V51.3125H180.338V47.6156ZM207.865 63.1279C207.841 65.9428 206.887 68.3288 205.002 70.286C203.118 72.2552 200.78 73.2398 197.989 73.2398C195.235 73.2398 192.891 72.2914 190.958 70.3947C189.025 68.4979 188.058 66.1723 188.058 63.4178C188.058 60.6875 189.019 58.3497 190.94 56.4047C192.861 54.4596 195.192 53.4871 197.935 53.4871C199.94 53.4871 201.77 54.0428 203.426 55.1543C205.081 56.2657 206.319 57.7578 207.141 59.6304L194.039 68.1476C195.21 69.0899 196.527 69.5611 197.989 69.5611C199.753 69.5611 201.209 68.9329 202.356 67.6764C203.504 66.42 204.09 64.9038 204.114 63.1279H207.865ZM201.885 58.6155C200.701 57.6732 199.384 57.202 197.935 57.202C196.219 57.202 194.763 57.8121 193.567 59.0323C192.371 60.2525 191.773 61.7144 191.773 63.4178C191.773 63.8769 191.858 64.4085 192.027 65.0125L201.885 58.6155ZM232.62 65.7011C232.62 67.6704 231.901 69.3738 230.463 70.8115C229.026 72.225 227.322 72.9317 225.353 72.9317H211.907V47.6156H224.737C226.706 47.6156 228.409 48.3344 229.847 49.7721C231.285 51.2098 232.004 52.9132 232.004 54.8824C232.004 57.0812 231.128 58.8209 229.376 60.1015C231.539 61.358 232.62 63.2245 232.62 65.7011ZM228.905 65.7011C228.905 64.7347 228.554 63.9011 227.854 63.2003C227.153 62.4996 226.319 62.1493 225.353 62.1493H215.603V69.253H225.353C226.307 69.253 227.135 68.9027 227.836 68.202C228.548 67.4892 228.905 66.6556 228.905 65.7011ZM228.289 54.8824C228.289 53.9039 227.938 53.0642 227.238 52.3635C226.537 51.6628 225.703 51.3125 224.737 51.3125H215.603V58.4343H224.737C225.703 58.4343 226.537 58.084 227.238 57.3833C227.938 56.6825 228.289 55.8489 228.289 54.8824ZM238.219 53.7951H241.916V72.9317H238.219V53.7951ZM238.219 47.6156H241.916V51.3125H238.219V47.6156ZM255.381 57.202C254.003 57.202 252.838 57.643 251.883 58.5249C250.917 59.3948 250.433 60.5002 250.433 61.8412V72.9317H246.719V61.8412C246.719 59.5458 247.582 57.5886 249.31 55.9698C251.05 54.3388 253.073 53.5112 255.381 53.4871V57.202ZM276.873 63.3816C276.873 66.0877 275.901 68.4134 273.956 70.3584C272.01 72.2794 269.679 73.2398 266.961 73.2398C264.23 73.2398 261.899 72.2794 259.966 70.3584C258.033 68.4255 257.066 66.0998 257.066 63.3816C257.066 60.6754 257.996 58.3558 259.857 56.4228C261.717 54.4656 263.983 53.4871 266.652 53.4871C269.165 53.4871 271.334 54.363 273.158 56.1147V47.6156H276.873V63.3816ZM273.158 63.3816C273.158 61.7023 272.548 60.2525 271.328 59.0323C270.108 57.8121 268.652 57.202 266.961 57.202C265.269 57.202 263.813 57.8121 262.593 59.0323C261.385 60.2405 260.781 61.6902 260.781 63.3816C260.781 65.085 261.385 66.5408 262.593 67.7489C263.801 68.957 265.257 69.5611 266.961 69.5611C268.664 69.5611 270.12 68.957 271.328 67.7489C272.548 66.5287 273.158 65.0729 273.158 63.3816ZM149.622 92.553C148.716 91.1757 147.562 90.0763 146.161 89.2548C144.759 88.4212 143.255 88.0044 141.648 88.0044C139.111 88.0044 136.931 88.9165 135.106 90.7408C133.282 92.565 132.37 94.7457 132.37 97.2827C132.37 99.8198 133.282 102 135.106 103.825C136.931 105.649 139.111 106.561 141.648 106.561C143.255 106.561 144.771 106.138 146.197 105.293C147.574 104.495 148.71 103.414 149.604 102.049L152.721 104.097C151.513 105.981 149.912 107.479 147.919 108.591C145.986 109.69 143.896 110.24 141.648 110.24C138.097 110.24 135.046 108.971 132.497 106.434C129.936 103.873 128.655 100.823 128.655 97.2827C128.655 93.755 129.936 90.7106 132.497 88.1494C135.058 85.5881 138.109 84.3075 141.648 84.3075C143.859 84.3075 145.974 84.8693 147.991 85.9929C149.912 87.1164 151.501 88.6326 152.757 90.5414L149.622 92.553ZM171.205 107.648C169.369 109.376 167.2 110.24 164.699 110.24C162.041 110.24 159.776 109.267 157.904 107.322C156.043 105.389 155.113 103.076 155.113 100.382C155.113 97.6633 156.079 95.3377 158.012 93.4047C159.957 91.4596 162.289 90.4871 165.007 90.4871C167.726 90.4871 170.057 91.4596 172.002 93.4047C173.947 95.3497 174.92 97.6754 174.92 100.382V109.932H171.205V107.648ZM171.205 100.382C171.205 98.7023 170.595 97.2525 169.375 96.0323C168.155 94.8121 166.699 94.202 165.007 94.202C163.316 94.202 161.86 94.8121 160.64 96.0323C159.432 97.2405 158.828 98.6902 158.828 100.382C158.828 102.085 159.432 103.541 160.64 104.749C161.848 105.957 163.304 106.561 165.007 106.561C166.711 106.561 168.167 105.957 169.375 104.749C170.595 103.529 171.205 102.073 171.205 100.382ZM184.198 109.932H180.483V94.5101H177.403V90.7951H180.483V84.6156H184.198V90.7951H187.297V94.5101H184.198V109.932ZM201.994 104.586C201.994 106.156 201.426 107.491 200.291 108.591C199.155 109.69 197.808 110.24 196.249 110.24C194.872 110.24 193.664 109.811 192.625 108.953C191.586 108.083 190.916 106.96 190.613 105.583L194.202 104.622C194.443 105.915 195.126 106.561 196.249 106.561C196.781 106.561 197.258 106.368 197.681 105.981C198.104 105.583 198.315 105.117 198.315 104.586C198.315 103.704 197.645 102.973 196.304 102.393C194.141 101.427 192.897 100.816 192.571 100.563C191.23 99.5721 190.559 98.1284 190.559 96.2317C190.559 94.6853 191.121 93.3382 192.244 92.1905C193.38 91.0549 194.733 90.4871 196.304 90.4871C197.693 90.4871 198.901 90.928 199.928 91.81C200.919 92.6556 201.577 93.7732 201.903 95.1625L198.279 96.1048C198.001 94.8363 197.343 94.202 196.304 94.202C195.76 94.202 195.283 94.4074 194.872 94.8182C194.461 95.2289 194.256 95.7001 194.256 96.2317C194.256 97.1015 194.926 97.8324 196.267 98.4244C197.331 98.8835 198.164 99.2701 198.768 99.5842C199.384 99.8862 199.789 100.11 199.982 100.255C201.323 101.27 201.994 102.713 201.994 104.586Z" fill="white"/>
<defs>
<clipPath id="clip0_452_1238">
<rect width="92.7835" height="110.103" fill="white"/>
</clipPath>
</defs>
</svg>
