<svg width="21" height="21" viewBox="0 0 21 21" fill="none" xmlns="http://www.w3.org/2000/svg">
<g opacity="1">
<path d="M11.0952 0.747499L10.8834 1.49508H10.0735C9.625 1.49508 9.26367 1.54491 9.26367 1.60721C9.26367 1.66951 9.53778 1.93116 9.87419 2.1679L10.4847 2.6289L10.2355 3.37648C10.0985 3.78764 10.0112 4.16143 10.0486 4.19881C10.0985 4.23619 10.3975 4.06176 10.7339 3.81256C11.0703 3.56337 11.3943 3.36402 11.4441 3.36402C11.4939 3.36402 11.8179 3.56337 12.1543 3.81256C12.5032 4.0493 12.8022 4.22373 12.8396 4.18635C12.877 4.16143 12.8147 3.82502 12.7025 3.45124C12.5904 3.07745 12.5032 2.71612 12.5032 2.64136C12.5032 2.57906 12.7773 2.32987 13.1262 2.1056C13.4626 1.86886 13.7491 1.64459 13.7491 1.58229C13.7491 1.53245 13.3629 1.49508 12.9019 1.49508H12.0422L11.8179 0.747499C11.6933 0.336332 11.5313 -7.77245e-05 11.4566 -7.77245e-05C11.3818 -7.77245e-05 11.2198 0.336332 11.0952 0.747499Z" fill="black"/>
<path d="M5.70039 0.83481C1.05296 3.28935 -1.10255 8.64699 0.554575 13.6308C1.67594 17.0323 4.37968 19.5491 7.9805 20.5833C9.37598 20.982 12.142 20.982 13.5375 20.5833C15.4937 20.0226 17.076 19.1131 18.4341 17.755C19.2315 16.9575 20.328 15.425 20.1286 15.3503C20.0663 15.3378 19.4932 15.4998 18.8453 15.724C17.699 16.1228 17.6242 16.1352 15.6182 16.1228C13.7119 16.1228 13.4877 16.0978 12.5033 15.7739C10.6967 15.1883 9.10187 14.1791 7.89329 12.8833C5.02758 9.80573 4.29246 5.27043 6.04926 1.47025C6.26108 0.996786 6.41059 0.598078 6.37321 0.560699C6.34829 0.53578 6.04926 0.647917 5.70039 0.83481Z" fill="black"/>
<path d="M17.7487 8.1237C17.6864 8.29813 17.5618 8.67192 17.487 8.95849L17.35 9.46933H16.5526C16.104 9.46933 15.7427 9.51917 15.7427 9.56901C15.7427 9.65623 16.4155 10.1795 16.9637 10.5284C16.9762 10.5409 16.8765 10.8773 16.7394 11.276C16.6024 11.6747 16.4903 12.0236 16.4903 12.0485C16.4903 12.198 16.8765 12.0236 17.3624 11.6622L17.9231 11.2386L18.5087 11.6622C19.3933 12.2977 19.493 12.2478 19.1691 11.3383C19.0694 11.0517 18.9822 10.7402 18.9822 10.653C18.9822 10.5658 19.2812 10.2792 19.6425 10.0051L20.2904 9.53163L19.4183 9.46933L18.5461 9.40704L18.2969 8.69684C17.9854 7.82467 17.8982 7.73745 17.7487 8.1237Z" fill="black"/>
<path d="M11.3699 9.05812L11.183 9.65618L10.5351 9.69356C10.1738 9.71848 9.88721 9.78078 9.88721 9.83062C9.88721 9.89291 10.1115 10.0798 10.3731 10.2542L10.8715 10.5907L10.6722 11.1513C10.5725 11.4628 10.5102 11.7619 10.56 11.7992C10.5974 11.8366 10.8591 11.7245 11.1456 11.5376L11.6565 11.2012L12.1549 11.5251C12.429 11.712 12.6782 11.8242 12.728 11.7868C12.7654 11.7494 12.728 11.5002 12.6532 11.2261C12.4539 10.5657 12.4539 10.5657 12.9398 10.2293C13.1765 10.0673 13.3759 9.89291 13.3759 9.83062C13.3759 9.76832 13.1018 9.71848 12.7654 9.71848H12.1549L11.943 9.0955C11.8309 8.74663 11.6939 8.47252 11.644 8.47252C11.5942 8.47252 11.4696 8.73417 11.3699 9.05812Z" fill="black"/>
</g>
</svg>
