<svg width="782" height="723" viewBox="0 0 782 723" fill="none" xmlns="http://www.w3.org/2000/svg">
<path d="M191.144 212.248L191.146 212.253C212.09 258.835 262.962 280.536 312.553 263.524C334.75 255.889 350.364 238.215 358.565 212.164C366.79 186.032 367.5 151.568 359.737 110.9C350.505 62.8973 333.27 31.3938 306.269 13.0268C287.191 0.315155 258.593 -0.513794 235.231 11.7065C208.383 25.8504 189.093 57.6482 180.679 95.44C172.282 133.158 174.876 176.239 191.144 212.248Z" fill="white" stroke="#E578E3" stroke-width="6"/>
<path d="M475.885 7.94687C438.275 27.6829 412.581 89.87 412.208 162.856C411.836 233.235 436.785 266.749 492.642 271.218C561.159 276.804 606.589 224.671 606.589 140.141C606.589 76.8368 583.13 28.4277 542.54 7.57449C524.294 -1.73495 493.759 -1.36258 475.885 7.94687Z" fill="url(#paint0_linear_452_1420)"/>
<path d="M48.0236 175.877C34.618 181.09 18.6057 197.475 10.041 214.604C0.359204 232.851 -2.9922 274.557 2.96585 301.74C12.2753 346.053 44.6722 392.601 75.9519 406.751C93.826 414.943 123.616 415.688 144.097 408.613C209.635 385.525 215.966 318.125 160.854 234.34C127.34 183.697 84.5166 161.354 48.0236 175.877Z" fill="url(#paint1_linear_452_1420)"/>
<path d="M671.384 182.584C625.954 209.023 580.151 286.478 580.524 337.121C580.896 389.999 639.732 426.492 696.706 409.362C752.19 392.978 795.758 294.298 776.394 229.876C760.755 178.86 714.58 158.007 671.384 182.584Z" fill="url(#paint2_linear_452_1420)"/>
<path d="M355.236 297.652C331.031 309.196 318.37 322.229 281.877 373.99C256.928 408.993 231.606 438.411 192.507 477.883C127.341 543.794 113.563 565.764 113.563 607.098C113.19 643.219 123.245 668.168 146.704 691.628C161.227 706.151 171.281 712.481 185.804 716.95C215.967 725.887 265.865 724.397 312.412 713.598C366.407 700.937 414.072 700.937 469.928 713.97C504.559 721.79 518.337 723.28 550.734 722.163C584.248 721.046 592.813 719.184 608.825 710.619C644.946 692 666.171 654.39 666.171 608.215C666.171 566.137 654.255 546.773 585.365 475.649C546.266 435.804 517.22 401.918 498.974 375.479C452.799 308.079 435.669 294.673 394.336 292.067C376.089 290.949 366.407 292.439 355.236 297.652Z" fill="url(#paint3_linear_452_1420)"/>
<defs>
<linearGradient id="paint0_linear_452_1420" x1="569.615" y1="21.386" x2="270.821" y2="338.944" gradientUnits="userSpaceOnUse">
<stop stop-color="#FF87F3"/>
<stop offset="1" stop-color="#461A7E"/>
</linearGradient>
<linearGradient id="paint1_linear_452_1420" x1="160.446" y1="189.928" x2="-102.041" y2="508.267" gradientUnits="userSpaceOnUse">
<stop stop-color="#FF87F3"/>
<stop offset="1" stop-color="#461A7E"/>
</linearGradient>
<linearGradient id="paint2_linear_452_1420" x1="742.922" y1="190.653" x2="481.822" y2="511.946" gradientUnits="userSpaceOnUse">
<stop stop-color="#FF87F3"/>
<stop offset="1" stop-color="#461A7E"/>
</linearGradient>
<linearGradient id="paint3_linear_452_1420" x1="561.057" y1="324.52" x2="168.159" y2="1070.41" gradientUnits="userSpaceOnUse">
<stop stop-color="#FF87F3"/>
<stop offset="1" stop-color="#461A7E"/>
</linearGradient>
</defs>
</svg>
