<svg width="18" height="17" viewBox="0 0 18 17" fill="none" xmlns="http://www.w3.org/2000/svg">
<path d="M5.50649 0.20075C4.26938 0.853422 3.76629 3.10886 4.50031 4.7364C4.97866 5.80216 6.14155 6.29786 7.27144 5.90956C8.30237 5.55431 8.70649 4.26549 8.3601 2.44792C8.15392 1.37391 7.76629 0.655142 7.14773 0.233797C6.70237 -0.0636225 6.04258 -0.0801458 5.50649 0.20075Z" fill="white"/>
<path d="M10.8674 0.176315C10.0344 0.614182 9.46537 1.99388 9.45712 3.61317C9.44887 5.17462 10.0015 5.91817 11.2386 6.01731C12.7561 6.14123 13.7623 4.9846 13.7623 3.1092C13.7623 1.70472 13.2427 0.630706 12.3437 0.168053C11.9396 -0.0384884 11.2633 -0.0302267 10.8674 0.176315Z" fill="white"/>
<path d="M1.39126 3.90202C1.09435 4.01768 0.739716 4.3812 0.550025 4.76123C0.335592 5.16605 0.261366 6.09136 0.393324 6.69446C0.59951 7.6776 1.31703 8.71031 2.00982 9.02425C2.40569 9.20601 3.06549 9.22253 3.51909 9.06556C4.97064 8.55333 5.11085 7.05797 3.89023 5.1991C3.14796 4.07552 2.19951 3.57982 1.39126 3.90202Z" fill="white"/>
<path d="M15.1975 4.05092C14.1913 4.6375 13.1769 6.35592 13.1851 7.47951C13.1934 8.65266 14.4964 9.46231 15.7583 9.08227C16.9872 8.71876 17.9521 6.52942 17.5232 5.10015C17.1769 3.9683 16.1542 3.50565 15.1975 4.05092Z" fill="white"/>
<path d="M8.19557 6.60377C7.65948 6.85988 7.37907 7.14904 6.57083 8.29741C6.01825 9.07401 5.45742 9.72668 4.59145 10.6024C3.14815 12.0647 2.84299 12.5522 2.84299 13.4692C2.83475 14.2706 3.05743 14.8241 3.57701 15.3446C3.89866 15.6668 4.12134 15.8073 4.44299 15.9064C5.11103 16.1047 6.21619 16.0716 7.24711 15.832C8.44299 15.5512 9.49866 15.5512 10.7358 15.8403C11.5028 16.0138 11.8079 16.0468 12.5255 16.0221C13.2677 15.9973 13.4574 15.956 13.8121 15.766C14.6121 15.3529 15.0822 14.5184 15.0822 13.494C15.0822 12.5604 14.8182 12.1308 13.2925 10.5528C12.4265 9.66885 11.7832 8.91704 11.3791 8.33046C10.3564 6.8351 9.97701 6.53768 9.06155 6.47985C8.65742 6.45506 8.44299 6.48811 8.19557 6.60377Z" fill="white"/>
</svg>
