<svg width="32" height="30" viewBox="0 0 32 30" fill="none" xmlns="http://www.w3.org/2000/svg">
<path d="M9.58025 0.371205C7.29184 1.57852 6.36121 5.75063 7.71901 8.76128C8.60386 10.7327 10.755 11.6497 12.8451 10.9314C14.7521 10.2742 15.4996 7.89018 14.8589 4.52804C14.4775 2.54132 13.7604 1.21174 12.6162 0.432335C11.7924 -0.117834 10.5719 -0.148399 9.58025 0.371205Z" fill="#FF87F3"/>
<path d="M19.4968 0.326C17.9559 1.13597 16.9032 3.68814 16.888 6.68351C16.8727 9.57189 17.8949 10.9473 20.1833 11.1307C22.9904 11.3599 24.8517 9.2204 24.8517 5.75128C24.8517 3.15326 23.8905 1.16654 22.2276 0.310719C21.4801 -0.0713434 20.2291 -0.0560608 19.4968 0.326Z" fill="#FF87F3"/>
<path d="M1.9675 7.21776C1.41828 7.43172 0.762266 8.10414 0.411375 8.80714C0.0147164 9.55598 -0.122589 11.2676 0.121509 12.3832C0.502912 14.2018 1.83019 16.1122 3.11171 16.6929C3.844 17.0291 5.06449 17.0597 5.90358 16.7693C8.58865 15.8218 8.84801 13.0557 6.5901 9.61711C5.21705 7.53869 3.4626 6.62174 1.9675 7.21776Z" fill="#FF87F3"/>
<path d="M27.5063 7.49333C25.6451 8.57838 23.7686 11.7571 23.7838 13.8356C23.7991 16.0057 26.2095 17.5033 28.5437 16.8003C30.8169 16.1279 32.6019 12.0781 31.8085 9.4342C31.1678 7.3405 29.276 6.48468 27.5063 7.49333Z" fill="#FF87F3"/>
<path d="M14.5538 12.2155C13.5621 12.6893 13.0434 13.2241 11.5483 15.3484C10.5262 16.785 9.48876 17.9923 7.88687 19.6122C5.21704 22.3172 4.65257 23.2189 4.65257 24.9152C4.63731 26.3976 5.04923 27.4216 6.01036 28.3844C6.60535 28.9804 7.01727 29.2402 7.61226 29.4236C8.848 29.7903 10.8923 29.7292 12.7993 29.286C15.0115 28.7664 16.9643 28.7664 19.2527 29.3013C20.6715 29.6222 21.236 29.6834 22.5632 29.6375C23.9363 29.5917 24.2872 29.5153 24.9432 29.1638C26.423 28.3996 27.2926 26.8561 27.2926 24.9611C27.2926 23.2342 26.8045 22.4395 23.9821 19.5205C22.3802 17.8853 21.1902 16.4946 20.4426 15.4095C18.5509 12.6434 17.8491 12.0932 16.1557 11.9863C15.4081 11.9404 15.0115 12.0015 14.5538 12.2155Z" fill="#FF87F3"/>
</svg>
