<svg width="1652" height="1082" viewBox="0 0 1652 1082" fill="none" xmlns="http://www.w3.org/2000/svg">
<path d="M0 3.526C0.20741 5.6001 1.03705 13.6891 2.0741 21.7781C3.11115 29.6597 5.39266 47.4969 7.05194 61.186C8.91863 74.8751 10.7853 91.2605 11.4075 97.4828C13.8965 119.053 10.9927 117.187 41.0672 117.602C135.854 119.468 215.292 159.084 260.507 227.114C281.041 258.226 294.107 288.3 305.1 329.782C310.908 351.975 311.53 386.405 306.345 406.524C296.596 444.687 284.359 468.747 236.655 543.414C211.766 582.615 185.217 633.638 177.543 657.075C158.461 716.809 161.365 772.395 186.669 824.455C241.84 938.53 339.53 990.175 468.747 973.79C517.695 967.775 556.896 958.027 658.527 926.915C684.868 918.826 712.868 910.53 720.75 908.248C728.839 905.967 737.55 903.271 740.454 902.233C753.106 897.878 809.729 885.226 840.01 880.041C871.329 874.855 948.278 874.855 971.716 880.248C1004.07 887.507 1017.55 892.278 1044.31 905.345C1088.69 927.33 1129.14 961.553 1166.47 1009.05C1194.47 1044.52 1200.49 1051.15 1211.9 1059.45C1252.55 1088.7 1297.76 1089.32 1340.91 1060.9C1354.18 1052.19 1379.9 1027.72 1392.14 1012.16C1425.74 969.434 1454.77 915.093 1499.57 810.973C1521.77 759.743 1566.98 630.112 1593.95 541.34C1600.38 520.184 1607.22 497.369 1609.5 490.525C1612.61 480.154 1624.64 438.672 1632.32 410.672C1646.21 359.649 1653.26 331.234 1651.81 329.989C1650.78 328.745 1540.43 300.952 1539.6 301.574C1539.4 301.782 1535.87 314.019 1531.93 328.745C1486.92 498.199 1423.04 693.372 1384.46 780.899C1342.56 875.478 1313.32 926.915 1286.15 953.879L1279.1 960.931L1274.74 955.745C1272.25 952.842 1262.92 940.812 1254 929.197C1221.85 888.13 1181.41 850.796 1137.64 822.381C1110.06 804.336 1095.95 797.284 1065.05 785.047C1020.25 767.624 979.39 759.535 927.745 757.669C844.159 754.765 777.787 767.002 624.304 813.669C496.539 852.455 459.413 860.337 412.538 858.055C372.923 856.188 350.108 846.025 324.804 819.27C300.952 793.965 288.3 770.321 284.152 743.98C279.174 710.794 292.033 676.986 335.797 607.711C404.242 499.858 424.153 450.909 428.302 380.805C432.657 304.685 389.516 190.402 331.234 125.068C289.13 77.364 233.336 41.0673 172.15 21.1559C125.276 5.80762 87.3196 0.00012207 32.7708 0.00012207C2.90374 0.00012207 0 0.414917 0 3.526Z" fill="url(#paint0_linear_459_746)"/>
<defs>
<linearGradient id="paint0_linear_459_746" x1="49.809" y1="11.7606" x2="1497.04" y2="816.315" gradientUnits="userSpaceOnUse">
<stop stop-color="#53248F"/>
<stop offset="1" stop-color="#FF87F3"/>
</linearGradient>
</defs>
</svg>
