<svg width="66" height="85" viewBox="0 0 66 85" fill="none" xmlns="http://www.w3.org/2000/svg">
<path d="M12.0107 1.07623C9.08318 1.97701 6.34332 4.56674 5.66774 7.00634C5.44254 7.79452 5.25488 9.67114 5.25488 11.1349V13.8748H32.8787H60.5025L60.3523 10.5719C60.1271 6.0305 58.7384 3.55337 55.3605 1.75182C53.8968 0.926105 53.5965 0.926105 33.4041 0.85104C22.1444 0.813508 12.5362 0.926105 12.0107 1.07623Z" fill="white"/>
<path d="M2.17708 26.7483L0.000207935 34.3674V56.3238C0.000207935 80.7573 -0.0748568 79.819 2.62747 82.4463C5.40486 85.1486 3.60331 84.9985 32.841 84.9985H59.1136L60.6524 84.1728C62.6416 83.1219 64.6684 80.7573 65.2314 78.8432C65.5692 77.8298 65.6818 71.1491 65.6818 55.8734L65.6442 34.3299L63.5049 26.8234L61.328 19.3169L32.841 19.2043L4.31642 19.1293L2.17708 26.7483ZM37.7202 26.4481C49.4678 28.9252 57.8 40.5227 56.2987 52.3829C55.5856 57.8626 53.5588 62.0287 49.5429 66.0822C44.8138 70.8488 39.3716 73.1758 32.841 73.1758C22.1067 73.1758 13.099 66.3074 9.90874 55.6858C8.97043 52.6832 9.00797 46.4153 9.90874 43.3376C11.8229 36.9196 16.4769 31.3648 22.1443 28.5499C27.3613 25.9977 32.3531 25.3221 37.7202 26.4481Z" fill="white"/>
<path d="M28.9002 36.8444C27.7742 37.2573 27.3989 37.7828 27.3989 39.0589C27.3989 41.0856 30.0262 42.0239 31.5275 40.5226C32.4283 39.6218 32.4658 38.7211 31.7151 37.6326C31.0396 36.6568 30.1013 36.3941 28.9002 36.8444Z" fill="white"/>
<path d="M34.8678 36.9199C32.6159 38.0084 33.329 41.2737 35.8061 41.2737C38.7712 41.2737 39.184 37.6706 36.3691 36.6572C36.0313 36.5446 35.3557 36.6572 34.8678 36.9199Z" fill="white"/>
<path d="M22.5947 40.0348C21.0559 40.6353 21.4312 43.6379 23.0826 44.2759C24.734 44.914 26.2729 43.788 26.2729 41.9864C26.2729 40.2975 24.3962 39.3217 22.5947 40.0348Z" fill="white"/>
<path d="M40.2348 40.035C38.696 40.6356 39.0713 43.6381 40.7227 44.2762C42.3742 44.9142 43.913 43.7883 43.913 41.9492C43.913 40.2227 42.1114 39.2844 40.2348 40.035Z" fill="white"/>
<path d="M29.4632 45.9273C23.7959 47.6914 20.0051 54.3721 22.0694 58.9886C23.4581 62.1788 26.1604 63.1922 30.364 62.1038C32.5784 61.5408 32.9162 61.5408 35.5059 62.1413C37.833 62.7043 38.471 62.7418 39.8222 62.329C45.3769 60.6775 45.5646 53.1711 40.1975 48.3294C37.27 45.6646 33.1789 44.7638 29.4632 45.9273Z" fill="white"/>
</svg>
