<svg width="61" height="61" viewBox="0 0 61 61" fill="none" xmlns="http://www.w3.org/2000/svg">
<g clip-path="url(#clip0_460_823)">
<path d="M60.0469 18.1094V2.85938H43.6874C43.3157 1.75566 42.2825 0.953125 41.0549 0.953125H40.7785C39.3298 0.953125 38.1088 2.08448 37.9982 3.52752L36.4856 23.1781L31.5227 19.8698C30.562 19.2283 29.5107 18.7623 28.4108 18.4687C30.255 17.0762 31.4531 14.8735 31.4531 12.3906C31.4531 8.18639 28.0324 4.76562 23.8281 4.76562C19.6239 4.76562 16.2031 8.18639 16.2031 12.3906C16.2031 14.6267 17.1763 16.6349 18.7146 18.0303C17.5289 17.8711 16.3852 17.4679 15.3577 16.837L5.80167 10.9562C5.30128 10.6474 4.72464 10.4844 4.13466 10.4844C2.38091 10.4844 0.953125 11.9112 0.953125 13.6659V14.0376C0.953125 15.1213 1.49641 16.1202 2.40569 16.7102L14.9793 24.8451C16.3423 25.7258 17.1562 27.2222 17.1562 28.8463V43.9276C10.6283 46.949 5.28031 52.1197 2.0597 58.5619L1.31722 60.0469H59.6828L58.9403 58.561C55.2365 51.1533 48.6704 45.424 40.8528 42.7267L41.481 34.5641L41.8536 34.7938C42.355 35.1026 42.9316 35.2656 43.5216 35.2656C45.2753 35.2656 46.7031 33.8388 46.7031 32.0841V31.6924C46.7031 30.6268 46.1732 29.6365 45.2868 29.0455L42.0709 26.902L42.7467 18.1094H60.0469ZM58.1406 16.2031H42.8935L43.7732 4.76562H58.1406V16.2031ZM39.8978 3.67334C39.9331 3.21775 40.32 2.85938 40.7785 2.85938H41.0549C41.541 2.85938 41.9375 3.25492 41.9346 3.80964L38.2584 51.6079C38.2232 52.0635 37.8362 52.4219 37.3778 52.4219H37.1013C36.6143 52.4219 36.2188 52.0263 36.2216 51.4716L39.8978 3.67334ZM35.0903 41.3265C33.5719 41.1045 32.0326 40.992 30.499 40.9939L30.5 27.8065L35.8756 31.1148L35.0903 41.3265ZM24.7536 26.4397L23.8281 27.8284L22.9026 26.4397L23.505 20.0156H23.8281H24.1512L24.7536 26.4397ZM18.1094 12.3906C18.1094 9.23673 20.6742 6.67188 23.8281 6.67188C26.982 6.67188 29.5469 9.23673 29.5469 12.3906C29.5469 15.5445 26.982 18.1094 23.8281 18.1094C20.6742 18.1094 18.1094 15.5445 18.1094 12.3906ZM16.0154 23.2439L3.44269 15.1099C3.07764 14.8726 2.85938 14.4722 2.85938 14.0376V13.6659C2.85938 12.9635 3.4322 12.3906 4.13466 12.3906C4.37103 12.3906 4.60169 12.4554 4.8028 12.5793L14.3588 18.4601C16.0125 19.4781 17.913 20.0156 19.8545 20.0156H21.5902L20.9411 26.9353L23.8281 31.2654L26.7151 26.9353L26.0689 20.0423C27.6387 20.1081 29.1542 20.5808 30.4666 21.4567L36.3188 25.3579L36.0405 28.9779L30.7697 25.7344H28.5938L28.5918 52.4648C28.5918 53.4922 27.756 54.3281 26.6446 54.3281C25.6171 54.3281 24.7812 53.4922 24.7812 52.4648V52.4638V36.2188V35.2656H22.875V36.2188V52.4638C22.875 53.4913 22.0391 54.3272 20.9259 54.3272C19.8984 54.3272 19.0625 53.4913 19.0625 52.4638V28.8463C19.0625 26.5722 17.9235 24.4782 16.0154 23.2439ZM11.6805 49.5901C12.1333 50.1067 12.3906 50.773 12.3906 51.4688C12.3906 53.0452 11.1077 54.3281 9.53125 54.3281C8.8145 54.3281 8.13587 54.0584 7.61547 53.5885C8.84119 52.1293 10.2013 50.7911 11.6805 49.5901ZM53.7286 53.9955C53.3273 54.2052 52.8851 54.3281 52.4219 54.3281C50.8454 54.3281 49.5625 53.0452 49.5625 51.4688C49.5625 50.9798 49.6988 50.5156 49.9323 50.0982C51.3105 51.2791 52.583 52.583 53.7286 53.9955ZM48.4321 48.8886C47.9336 49.6521 47.6562 50.5356 47.6562 51.4688C47.6562 54.0965 49.7941 56.2344 52.4219 56.2344C53.3083 56.2344 54.1547 55.9799 54.8943 55.5262C55.4909 56.3669 56.0504 57.2371 56.5584 58.1406H4.44061C5.03917 57.076 5.72066 56.0666 6.44027 55.0887C7.29331 55.8169 8.38273 56.2344 9.53125 56.2344C12.159 56.2344 14.2969 54.0965 14.2969 51.4688C14.2969 50.3517 13.8956 49.2861 13.197 48.4407C14.4503 47.5485 15.7714 46.7527 17.1562 46.0607V52.4638C17.1562 54.5426 18.8471 56.2334 21.0116 56.2334C22.1392 56.2334 23.1409 55.7254 23.8319 54.9391C24.5325 55.7264 25.5552 56.2344 26.7285 56.2344C28.8072 56.2344 30.4981 54.5435 30.4981 52.4648L30.499 42.9011C31.9831 42.9021 33.4747 43.0126 34.9435 43.2328L34.3211 51.3239C34.3154 51.3963 34.3125 51.4668 34.3125 51.5393C34.3125 53.0776 35.563 54.3281 37.1013 54.3281H37.3778C38.8265 54.3281 40.0475 53.1968 40.158 51.7537L40.7013 44.6901C43.4825 45.7023 46.0865 47.1254 48.4321 48.8886ZM44.2288 30.6315C44.5843 30.8689 44.7969 31.2654 44.7969 31.6924V32.0841C44.7969 32.7865 44.224 33.3594 43.5216 33.3594C43.2852 33.3594 43.0546 33.2946 42.8535 33.1707L41.6458 32.4272L41.9032 29.0808L44.2288 30.6315Z" fill="#FFFBFB"/>
<path d="M54.3281 6.67188H56.2344V8.57812H54.3281V6.67188Z" fill="#FFFBFB"/>
<path d="M50.5156 6.67188H52.4219V8.57812H50.5156V6.67188Z" fill="#FFFBFB"/>
<path d="M46.7031 6.67188H48.6094V8.57812H46.7031V6.67188Z" fill="#FFFBFB"/>
<path d="M43.8438 49.5625H45.75V51.4688H43.8438V49.5625Z" fill="#FFFBFB"/>
<path d="M40.9844 54.3281H42.8906V56.2344H40.9844V54.3281Z" fill="#FFFBFB"/>
</g>
<defs>
<clipPath id="clip0_460_823">
<rect width="61" height="61" fill="white"/>
</clipPath>
</defs>
</svg>
