<svg width="21" height="21" viewBox="0 0 21 21" fill="white" xmlns="http://www.w3.org/2000/svg">
<path d="M10.1416 0.167825C10.0951 0.288778 9.65783 1.2657 9.16472 2.34498C8.68091 3.41494 8.29014 4.30813 8.30874 4.31744C8.31805 4.33605 8.62508 4.28022 8.97864 4.20579C9.33219 4.13136 9.91835 4.06623 10.2719 4.06623C10.6348 4.06623 11.2116 4.13136 11.5652 4.20579C11.9187 4.28022 12.2258 4.33605 12.2351 4.31744C12.2723 4.28953 10.3742 0.0840888 10.2905 0.00965595C10.2533 -0.0275602 10.1882 0.0468726 10.1416 0.167825Z" fill="black"/>
<path d="M3.06108 3.44291C3.16343 3.70343 3.5542 4.73618 3.92636 5.7131C4.28922 6.69934 4.61486 7.50879 4.64277 7.50879C4.67068 7.50879 4.79164 7.32271 4.91259 7.09011C5.23823 6.46673 6.05699 5.62006 6.80132 5.12695C7.35026 4.76409 7.43399 4.67105 7.28513 4.61522C7.19209 4.57801 6.43846 4.29889 5.6197 3.99185C4.80094 3.68482 3.85193 3.32196 3.50768 3.1917L2.875 2.9498L3.06108 3.44291Z" fill="black"/>
<path d="M15.4352 3.78716C14.235 4.25237 13.2116 4.63383 13.165 4.65244C13.1185 4.67105 13.379 4.88504 13.7419 5.12695C14.4862 5.62006 15.305 6.46673 15.6306 7.09011C15.7516 7.32271 15.8725 7.50879 15.9004 7.50879C15.9284 7.50879 16.254 6.69934 16.6169 5.7131C16.989 4.73618 17.3798 3.70343 17.4821 3.43361C17.5845 3.17309 17.6589 2.9498 17.6403 2.9591C17.631 2.9591 16.6355 3.33126 15.4352 3.78716Z" fill="black"/>
<path d="M9.20184 5.42477C7.4992 5.78763 6.09428 7.05298 5.50813 8.73702C5.33135 9.23944 5.28483 9.58369 5.27552 10.2443C5.26622 11.705 5.74073 12.8866 6.73626 13.8822C8.68081 15.8267 11.8628 15.8267 13.8074 13.8822C14.8029 12.8866 15.2774 11.705 15.2681 10.2443C15.2495 7.89965 13.612 5.90858 11.2953 5.41547C10.5044 5.24799 9.99269 5.24799 9.20184 5.42477Z" fill="black"/>
<path d="M2.10279 9.31382C0.930475 9.84415 -0.00923557 10.3094 6.84969e-05 10.3559C0.0279807 10.4303 3.75891 12.1702 4.1869 12.3004C4.33576 12.3469 4.33576 12.3283 4.20551 11.9096C4.01942 11.3514 3.99151 9.40686 4.16829 8.8207C4.23342 8.60671 4.27063 8.40202 4.25203 8.39271C4.23342 8.37411 3.26579 8.79279 2.10279 9.31382Z" fill="black"/>
<path d="M16.3101 8.55088C16.5892 9.58363 16.5985 11.0258 16.3287 11.9096C16.2078 12.3283 16.2078 12.3469 16.3566 12.3004C16.7195 12.1888 20.5993 10.3931 20.5993 10.3466C20.5993 10.3 17.1475 8.69044 16.4683 8.42993C16.2729 8.34619 16.2543 8.3648 16.3101 8.55088Z" fill="black"/>
<path d="M3.92636 14.9706C3.5542 15.9568 3.16343 16.9895 3.06108 17.25L2.875 17.7432L3.36812 17.5571C3.62863 17.4547 4.66138 17.064 5.64761 16.6918C6.62454 16.3289 7.43399 16.0033 7.43399 15.9754C7.43399 15.9475 7.22 15.7986 6.95948 15.6497C6.34542 15.2869 5.33127 14.2727 4.96841 13.6587C4.81955 13.3982 4.67068 13.1842 4.64277 13.1842C4.61486 13.1842 4.28922 13.9936 3.92636 14.9706Z" fill="black"/>
<path d="M15.575 13.6587C15.2121 14.2727 14.198 15.2869 13.5839 15.6497C13.3234 15.7986 13.1094 15.9475 13.1094 15.9754C13.1094 16.0033 13.9188 16.3289 14.9051 16.6918C15.882 17.064 16.9147 17.4547 17.1753 17.5571L17.6684 17.7432L17.4823 17.25C17.3799 16.9895 16.9892 15.9568 16.617 14.9706C16.2541 13.9936 15.9285 13.1842 15.9006 13.1842C15.8727 13.1842 15.7331 13.3982 15.575 13.6587Z" fill="black"/>
<path d="M8.31799 16.4314C8.42964 16.785 10.216 20.6741 10.2718 20.6741C10.3277 20.6741 12.114 16.785 12.2257 16.4314C12.2722 16.2826 12.2536 16.2826 11.8349 16.4128C11.2209 16.6175 9.32283 16.6175 8.70876 16.4128C8.29008 16.2826 8.27147 16.2826 8.31799 16.4314Z" fill="black"/>
</svg>
