<svg width="1920" height="188" viewBox="0 0 1920 188" fill="none" xmlns="http://www.w3.org/2000/svg">
<g clip-path="url(#clip0_2427_2)">
<rect y="178" width="1921" height="1331" fill="#461A7E"/>
<ellipse cx="960.5" cy="748" rx="1299.5" ry="748" fill="#461A7E"/>
<path d="M978.43 193.074C978.345 193.034 975.179 191.473 974.617 191.272C974.382 191.175 974.132 191.12 973.878 191.108C973.661 191.112 973.449 191.172 973.262 191.283C973.075 191.394 972.92 191.551 972.812 191.74C972.495 192.21 971.538 193.33 971.242 193.664C971.203 193.708 971.15 193.761 971.119 193.761C971.088 193.761 970.601 193.559 970.452 193.49C967.894 192.192 965.713 190.256 964.123 187.868C964.097 187.83 964.079 187.787 964.07 187.742C964.121 187.661 964.183 187.587 964.255 187.523C964.428 187.353 964.615 187.127 964.796 186.909C964.881 186.806 964.968 186.702 965.051 186.605C965.26 186.36 965.434 186.087 965.566 185.794L965.637 185.652C965.744 185.434 965.797 185.194 965.789 184.951C965.781 184.709 965.714 184.472 965.593 184.262C965.519 184.112 964.181 180.882 964.039 180.545C963.697 179.727 963.245 179.346 962.618 179.346C962.56 179.346 962.618 179.346 962.373 179.357C961.462 179.422 960.569 179.651 959.739 180.033C959.045 180.591 958.496 181.31 958.14 182.126C957.784 182.943 957.632 183.834 957.695 184.723C957.848 186.756 958.612 188.696 959.887 190.288C959.903 190.309 959.933 190.354 959.977 190.423C962.122 193.785 965.196 196.453 968.826 198.105C970.503 198.901 972.317 199.365 974.17 199.472C974.461 199.47 974.751 199.452 975.04 199.42L975.195 199.405C976.013 199.262 976.789 198.939 977.466 198.459C978.144 197.98 978.708 197.357 979.116 196.634C979.524 195.728 979.612 194.711 979.366 193.749C979.127 193.437 978.802 193.202 978.43 193.074Z" fill="#461A7E"/>
<path d="M968.972 167C963.336 166.985 957.925 169.207 953.925 173.177C949.925 177.147 947.663 182.542 947.635 188.177C947.633 191.945 948.644 195.643 950.561 198.886L946.896 209.702C946.862 209.801 946.856 209.907 946.879 210.009C946.903 210.111 946.954 210.205 947.027 210.279C947.1 210.354 947.193 210.407 947.294 210.432C947.396 210.457 947.502 210.453 947.602 210.421L958.874 206.84C962.116 208.571 965.749 209.436 969.423 209.353C973.096 209.27 976.687 208.241 979.847 206.365C983.007 204.49 985.63 201.831 987.462 198.646C989.295 195.461 990.275 191.857 990.309 188.183C990.283 182.546 988.022 177.15 984.022 173.178C980.021 169.207 974.609 166.985 968.972 167ZM968.972 204.94C965.668 204.945 962.434 203.981 959.672 202.168C959.602 202.122 959.522 202.092 959.439 202.08C959.356 202.069 959.272 202.076 959.192 202.101L953.546 203.897L955.369 198.519C955.398 198.433 955.405 198.341 955.391 198.252C955.378 198.163 955.342 198.078 955.289 198.005C953.193 195.157 952.065 191.713 952.071 188.177C952.044 184.829 953.013 181.549 954.853 178.752C956.694 175.955 959.324 173.768 962.409 172.468C965.495 171.168 968.897 170.814 972.184 171.451C975.471 172.088 978.495 173.686 980.872 176.044C983.249 178.402 984.872 181.413 985.535 184.695C986.198 187.977 985.872 191.382 984.597 194.478C983.321 197.574 981.156 200.221 978.374 202.084C975.592 203.947 972.319 204.942 968.971 204.942L968.972 204.94Z" fill="#461A7E"/>
<path d="M170 154.5C64.8 204.5 13.1667 139.667 0.5 101L-16 196L8 232L130.5 208C187.5 169.333 275.2 104.5 170 154.5Z" fill="#461A7E"/>
<path d="M1750.19 154.5C1855.39 204.5 1907.03 139.667 1919.69 101L1936.19 196L1912.19 232L1789.69 208C1732.69 169.333 1644.99 104.5 1750.19 154.5Z" fill="#461A7E"/>
</g>
<defs>
<clipPath id="clip0_2427_2">
<rect width="1920" height="188" fill="white"/>
</clipPath>
</defs>
</svg>
