<svg width="45" height="44" viewBox="0 0 45 44" fill="none" xmlns="http://www.w3.org/2000/svg">
<path d="M32.4304 26.0741C32.3453 26.0335 29.1789 24.4734 28.6165 24.2719C28.3818 24.175 28.132 24.1197 27.8784 24.1083C27.6611 24.1122 27.4486 24.1724 27.2616 24.2831C27.0746 24.3938 26.9196 24.5511 26.8116 24.7397C26.4953 25.2102 25.5381 26.3296 25.242 26.6635C25.2028 26.7082 25.1501 26.7609 25.119 26.7609C25.0879 26.7609 24.6012 26.5595 24.4525 26.4905C21.8936 25.1924 19.7133 23.2556 18.1225 20.8677C18.0969 20.8296 18.079 20.7869 18.0698 20.7419C18.1209 20.6606 18.1833 20.5868 18.255 20.5229C18.4281 20.3526 18.6146 20.1268 18.7958 19.9091C18.881 19.8064 18.9675 19.7023 19.0513 19.6049C19.2605 19.3602 19.4339 19.0871 19.5664 18.7937L19.6367 18.6518C19.7442 18.4344 19.7965 18.1939 19.789 17.9515C19.7814 17.7091 19.7143 17.4722 19.5935 17.2619C19.5191 17.1119 18.1807 13.882 18.0387 13.5454C17.6967 12.7274 17.2451 12.3462 16.6178 12.3462C16.5597 12.3462 16.6178 12.3462 16.3731 12.357C15.4617 12.422 14.5695 12.651 13.7394 13.033C13.045 13.5913 12.4963 14.3096 12.1403 15.1264C11.7842 15.9433 11.6315 16.8342 11.6953 17.723C11.8477 19.7565 12.6117 21.6963 13.8868 23.2877C13.903 23.3093 13.9328 23.3539 13.9774 23.4229C16.1225 26.7849 19.196 29.4532 22.826 31.1048C24.5027 31.9007 26.3175 32.3649 28.1704 32.4716C28.4608 32.4696 28.751 32.4525 29.0397 32.4202L29.1952 32.4054C30.0129 32.2617 30.7886 31.9387 31.4665 31.4595C32.1444 30.9803 32.7077 30.3568 33.1159 29.6338C33.5237 28.7282 33.6119 27.711 33.366 26.7487C33.1272 26.4368 32.8018 26.2022 32.4304 26.0741Z" fill="#461A7E"/>
<path d="M22.9719 7.64609e-05C17.3361 -0.0146702 11.9246 2.20668 7.92459 6.17681C3.92455 10.1469 1.66265 15.5416 1.6351 21.1773C1.63306 24.9447 2.64352 28.6433 4.56076 31.8863L0.895573 42.7021C0.861742 42.801 0.856079 42.9073 0.879216 43.0093C0.902354 43.1112 0.95338 43.2047 1.0266 43.2794C1.09981 43.354 1.19233 43.4068 1.29382 43.4318C1.39531 43.4569 1.50177 43.4533 1.6013 43.4213L12.874 39.8399C16.1156 41.5706 19.7487 42.4362 23.4225 42.353C27.0962 42.2699 30.6864 41.2409 33.8464 39.3653C37.0064 37.4898 39.6294 34.8311 41.4621 31.6461C43.2948 28.4611 44.2752 24.8573 44.3087 21.1827C44.2829 15.546 42.0218 10.1497 38.0215 6.17833C34.0212 2.20696 28.6087 -0.0150235 22.9719 7.64609e-05ZM22.9719 37.9404C19.6674 37.9453 16.434 36.9812 13.6717 35.1675C13.6016 35.1215 13.5222 35.0917 13.4392 35.0802C13.3562 35.0688 13.2716 35.076 13.1917 35.1013L7.54591 36.8967L9.36837 31.5186C9.39728 31.4328 9.40513 31.3414 9.39124 31.2519C9.37736 31.1625 9.34215 31.0778 9.2886 31.0048C7.19292 28.1573 6.06519 24.7129 6.07091 21.1773C6.04413 17.8293 7.01246 14.5487 8.85306 11.7519C10.6937 8.955 13.3236 6.76791 16.4091 5.46806C19.4947 4.16821 22.8968 3.81419 26.1838 4.45092C29.4709 5.08765 32.4948 6.68642 34.8718 9.0444C37.2488 11.4024 38.8718 14.4133 39.5349 17.6951C40.198 20.977 39.8713 24.3818 38.5963 27.4777C37.3213 30.5736 35.1554 33.221 32.3734 35.084C29.5914 36.947 26.3187 37.9417 22.9705 37.9418L22.9719 37.9404Z" fill="#461A7E"/>
</svg>
