<svg width="72" height="14" viewBox="0 0 72 14" fill="none" xmlns="http://www.w3.org/2000/svg">
<path d="M4.24302 0.100908C1.75782 0.242342 1.04055 0.545415 0.474814 1.66678C0.070717 2.48508 0.0101024 3.11143 0 6.66749C0 9.50627 0.0303073 10.173 0.171741 10.7893C0.505121 12.2339 1.07086 12.7997 2.42458 13.0724C4.81886 13.5674 15.2345 13.4866 16.9014 12.9714C17.558 12.7592 18.2551 12.1632 18.4773 11.6177C18.8309 10.7287 18.9724 8.91022 18.9016 6.01083C18.841 3.17205 18.7299 2.29313 18.3561 1.55566C17.9621 0.777771 17.2853 0.393878 16.0123 0.201932C15.0728 0.0604982 6.21299 -0.0203209 4.24302 0.100908ZM10.1024 5.34407C11.2743 6.02093 12.2542 6.60687 12.2947 6.64728C12.3452 6.69779 8.05163 9.29412 7.60713 9.47596C7.56672 9.49616 7.52631 8.23336 7.52631 6.66749V3.8186L7.75866 3.96004C7.87989 4.04085 8.94065 4.6672 10.1024 5.34407Z" fill="white"/>
<path d="M59.655 0.121139C59.655 0.191855 59.6449 3.17207 59.6247 6.74833L59.6045 13.2341H60.3319H61.0693L61.13 12.8199L61.2007 12.4158L61.5037 12.729C62.2816 13.5271 63.4232 13.6281 64.2011 12.9714C64.9285 12.3552 65.1103 11.5874 65.181 8.94056C65.2517 6.08157 65.08 4.67733 64.5749 3.93986C64.2516 3.45494 63.8778 3.21248 63.3626 3.16197C62.6857 3.08115 62.2614 3.19228 61.8169 3.57617L61.4229 3.90955L61.4633 1.95978L61.4936 -9.05991e-05H60.5743C59.9076 -9.05991e-05 59.655 0.0302172 59.655 0.121139ZM62.8474 4.59651C63.2414 4.86928 63.302 5.42491 63.2717 8.45564C63.2414 11.1631 63.2313 11.3146 63.0292 11.5874C62.716 12.0016 62.0796 12.042 61.726 11.6581L61.4734 11.3853V8.21318V5.03092L61.7664 4.73795C62.0998 4.41467 62.514 4.35406 62.8474 4.59651Z" fill="white"/>
<path d="M23.5284 1.0304C23.5587 1.16173 24.1043 3.00037 24.7508 5.13198L25.9126 9.00121V11.1126V13.2341H26.8723H27.8321V11.2035V9.17296L29.0545 5.17239C29.7212 2.95996 30.2869 1.08091 30.3173 0.979886C30.3678 0.82835 30.2768 0.808145 29.4181 0.808145H28.4685L27.7209 3.78836C27.3067 5.42495 26.9531 6.76858 26.9228 6.76858C26.8925 6.76858 26.5288 5.42495 26.1146 3.78836L25.357 0.808145H24.4073C23.4779 0.808145 23.4678 0.808145 23.5284 1.0304Z" fill="white"/>
<path d="M45.0974 0.959682C45.0974 1.0405 45.0873 1.37388 45.0873 1.68706L45.0771 2.273L46.0571 2.3033L47.0269 2.33361V7.77882V13.2341H47.9866H48.9464V7.77882V2.32351H49.9566H50.9669V1.56583V0.808145H48.0372C45.5015 0.808145 45.1075 0.82835 45.0974 0.959682Z" fill="white"/>
<path d="M32.7218 3.32367C32.1661 3.57623 31.6509 4.21268 31.4287 4.90975C31.166 5.74825 31.0347 7.42525 31.1054 9.04164C31.2468 12.2643 31.9641 13.3655 33.8937 13.3655C35.601 13.3554 36.3789 12.3754 36.6415 9.90035C36.7728 8.57693 36.692 6.24327 36.4698 5.27343C36.2576 4.35411 35.8131 3.67725 35.2171 3.36408C34.6311 3.061 33.3481 3.0408 32.7218 3.32367ZM34.2877 4.54606C34.7019 4.75821 34.7524 5.16231 34.7524 8.23345C34.7524 11.3955 34.7221 11.6279 34.2169 11.8804C33.833 12.0724 33.4694 11.9107 33.237 11.4662C33.0451 11.0924 33.035 10.8601 33.035 8.18293C33.035 5.62702 33.0552 5.26333 33.2067 4.98046C33.4795 4.48545 33.8836 4.32381 34.2877 4.54606Z" fill="white"/>
<path d="M68.131 3.41466C66.848 4.08142 66.4035 5.82914 66.6156 9.39529C66.7469 11.7087 67.0803 12.5472 68.0906 13.1029C69.0806 13.6383 70.596 13.4161 71.3132 12.6281C71.687 12.2139 71.8184 11.83 71.9295 10.8803L72.0002 10.3045H71.1819H70.3636V10.7086C70.3636 11.6077 69.8888 12.0926 69.2018 11.9108C68.6563 11.7593 68.5048 11.3451 68.4643 9.87011L68.4239 8.5871H70.1009H71.7779L71.8487 8.30423C71.8992 8.15269 71.9295 7.32429 71.9295 6.46559C71.9295 5.02094 71.9093 4.8694 71.6971 4.4451C71.1819 3.45507 70.6263 3.14189 69.4443 3.13179C68.7876 3.13179 68.5856 3.1722 68.131 3.41466ZM69.7777 4.55623C69.8888 4.61684 70.0403 4.80879 70.111 4.99063C70.2828 5.39473 70.4141 6.74846 70.3232 7.11214C70.2626 7.37481 70.2424 7.37481 69.3534 7.37481H68.4441V6.61713C68.4441 5.56647 68.6058 4.89971 68.919 4.64715C69.2119 4.4249 69.4746 4.39459 69.7777 4.55623Z" fill="white"/>
<path d="M38.3589 7.59688C38.3892 11.9409 38.3892 11.9712 38.6216 12.446C39.1873 13.5876 40.6825 13.7392 41.7735 12.7592L42.2686 12.3147L42.3494 12.7491L42.4403 13.1835L43.1273 13.234C43.5011 13.2643 43.8344 13.2643 43.8546 13.2441C43.8748 13.2239 43.8951 10.961 43.8951 8.21312V3.23263H42.9353H41.9756V7.36452V11.5065L41.6826 11.7086C41.5008 11.8399 41.228 11.9207 40.9754 11.9207C40.6421 11.9207 40.5309 11.8702 40.3895 11.6479C40.2279 11.3954 40.2077 11.0014 40.1774 7.30391L40.1471 3.23263H39.2378H38.3286L38.3589 7.59688Z" fill="white"/>
<path d="M52.1792 7.55668V11.8805L52.4621 12.4361C52.8157 13.1433 53.2299 13.3858 54.0481 13.3757C54.7553 13.3656 55.3514 13.1029 55.7454 12.6281C55.8868 12.4665 56.0282 12.325 56.0585 12.325C56.0888 12.325 56.1394 12.5271 56.1798 12.7796L56.2404 13.2342H56.9374H57.6345V8.23354V3.23284H56.7253H55.8161V7.29401C55.8161 9.53675 55.7757 11.4158 55.7353 11.4764C55.4221 11.931 54.5634 12.0725 54.2401 11.7088C54.0583 11.5067 54.0481 11.2643 54.0178 7.36473L53.9875 3.23284H53.0884H52.1792V7.55668Z" fill="white"/>
</svg>
