<svg width="25" height="25" viewBox="0 0 25 25" fill="none" xmlns="http://www.w3.org/2000/svg">
<g clip-path="url(#clip0_469_571)">
<path d="M0.234375 0.234371C0.078125 0.390621 0 1.42578 0 3.63281C0 6.25 0.0585938 6.85546 0.3125 7.10937C0.703125 7.5 1.15234 7.5 1.71875 7.10937C2.08984 6.85546 2.14844 6.64062 2.14844 5.3125V3.82812L5.52734 7.1875C9.0625 10.7031 9.39453 10.918 10.1562 10.1562C10.918 9.39453 10.7031 9.0625 7.1875 5.52734L3.82812 2.14843H5.3125C6.64062 2.14843 6.85547 2.08984 7.10938 1.71875C7.5 1.15234 7.5 0.703121 7.10938 0.312496C6.85547 0.0585899 6.25 -3.8147e-06 3.63281 -3.8147e-06C1.42578 -3.8147e-06 0.390625 0.0781212 0.234375 0.234371Z" fill="white"/>
<path d="M17.8909 0.312496C17.5002 0.703121 17.5002 1.15234 17.8909 1.71875C18.1448 2.08984 18.3596 2.14843 19.6877 2.14843H21.1721L17.8127 5.52734C14.2971 9.0625 14.0823 9.39453 14.844 10.1562C15.6057 10.918 15.9377 10.7031 19.4729 7.1875L22.8518 3.82812V5.3125C22.8518 6.64062 22.9104 6.85546 23.2815 7.10937C23.8479 7.5 24.2971 7.5 24.6877 7.10937C24.9417 6.85546 25.0002 6.25 25.0002 3.63281C25.0002 1.42578 24.9221 0.390621 24.7659 0.234371C24.6096 0.0781212 23.5745 -3.8147e-06 21.3674 -3.8147e-06C18.7502 -3.8147e-06 18.1448 0.0585899 17.8909 0.312496Z" fill="white"/>
<path d="M5.52734 17.8125L2.14844 21.1719V19.6875C2.14844 18.3594 2.08984 18.1445 1.71875 17.8906C1.15234 17.5 0.703125 17.5 0.3125 17.8906C0.0585938 18.1445 0 18.75 0 21.3672C0 23.5742 0.078125 24.6094 0.234375 24.7656C0.390625 24.9219 1.42578 25 3.63281 25C6.25 25 6.85547 24.9414 7.10938 24.6875C7.5 24.2969 7.5 23.8477 7.10938 23.2812C6.85547 22.9102 6.64062 22.8516 5.3125 22.8516H3.82812L7.1875 19.4727C10.7031 15.9375 10.918 15.6055 10.1562 14.8438C9.39453 14.082 9.0625 14.2969 5.52734 17.8125Z" fill="white"/>
<path d="M14.844 14.8438C14.0823 15.6055 14.2971 15.9375 17.8127 19.4727L21.1721 22.8516H19.6877C18.3596 22.8516 18.1448 22.9102 17.8909 23.2812C17.5002 23.8477 17.5002 24.2969 17.8909 24.6875C18.1448 24.9414 18.7502 25 21.3674 25C23.5745 25 24.6096 24.9219 24.7659 24.7656C24.9221 24.6094 25.0002 23.5742 25.0002 21.3672C25.0002 18.75 24.9417 18.1445 24.6877 17.8906C24.2971 17.5 23.8479 17.5 23.2815 17.8906C22.9104 18.1445 22.8518 18.3594 22.8518 19.6875V21.1719L19.4729 17.8125C15.9377 14.2969 15.6057 14.082 14.844 14.8438Z" fill="white"/>
</g>
<defs>
<clipPath id="clip0_469_571">
<rect width="25" height="25" fill="white"/>
</clipPath>
</defs>
</svg>
